STARTFONT 2.3
FONT -FontForge-Courgette-Book-R-Normal--32-320-72-72-P-166-ISO10646-1
SIZE 32 72 72  4
FONTBOUNDINGBOX 42 41 -6 -9
COMMENT "Generated by fontforge, http://fontforge.sourceforge.net"
COMMENT "Copyright (c) 2012, Sorkin Type Co (www.sorkintype.com) with Reserved Font Name "Courgette"."
STARTPROPERTIES 41
FOUNDRY "FontForge"
FAMILY_NAME "Courgette"
WEIGHT_NAME "Book"
SLANT "R"
SETWIDTH_NAME "Normal"
ADD_STYLE_NAME ""
PIXEL_SIZE 32
POINT_SIZE 320
RESOLUTION_X 72
RESOLUTION_Y 72
SPACING "P"
AVERAGE_WIDTH 166
CHARSET_REGISTRY "ISO10646"
CHARSET_ENCODING "1"
FONTNAME_REGISTRY ""
CHARSET_COLLECTIONS "ISO8859-2 ISO8859-9 ISO8859-4 ISO10646-1"
BITS_PER_PIXEL 4
FONT_NAME "Courgette-Regular"
FACE_NAME "Courgette Regular"
COPYRIGHT "Copyright (c) 2012, Sorkin Type Co (www.sorkintype.com) with Reserved Font Name "Courgette"."
FONT_VERSION "1.002"
FONT_ASCENT 26
FONT_DESCENT 6
UNDERLINE_POSITION -3
UNDERLINE_THICKNESS 2
X_HEIGHT 15
CAP_HEIGHT 23
DEFAULT_CHAR 1
RAW_ASCENT 799
RAW_DESCENT 200
NORM_SPACE 10
RELATIVE_WEIGHT 40
RELATIVE_SETWIDTH 50
SUPERSCRIPT_X 0
SUPERSCRIPT_Y 15
SUPERSCRIPT_SIZE 20
SUBSCRIPT_X 0
SUBSCRIPT_Y 4
SUBSCRIPT_SIZE 20
AVG_LOWERCASE_WIDTH 160
AVG_UPPERCASE_WIDTH 188
ENDPROPERTIES
CHARS 407
STARTCHAR .null.dup1
ENCODING 0
SWIDTH 0 0
DWIDTH 0 0
BBX 1 1 0 0
BITMAP
00
ENDCHAR
STARTCHAR uni0001
ENCODING 1
SWIDTH 0 0
DWIDTH 0 0
BBX 1 1 0 0
BITMAP
00
ENDCHAR
STARTCHAR uni0002
ENCODING 2
SWIDTH 0 0
DWIDTH 0 0
BBX 1 1 0 0
BITMAP
00
ENDCHAR
STARTCHAR uni0003
ENCODING 3
SWIDTH 0 0
DWIDTH 0 0
BBX 1 1 0 0
BITMAP
00
ENDCHAR
STARTCHAR uni0004
ENCODING 4
SWIDTH 0 0
DWIDTH 0 0
BBX 1 1 0 0
BITMAP
00
ENDCHAR
STARTCHAR uni0005
ENCODING 5
SWIDTH 0 0
DWIDTH 0 0
BBX 1 1 0 0
BITMAP
00
ENDCHAR
STARTCHAR uni0006
ENCODING 6
SWIDTH 0 0
DWIDTH 0 0
BBX 1 1 0 0
BITMAP
00
ENDCHAR
STARTCHAR uni0007
ENCODING 7
SWIDTH 0 0
DWIDTH 0 0
BBX 1 1 0 0
BITMAP
00
ENDCHAR
STARTCHAR uni0008
ENCODING 8
SWIDTH 0 0
DWIDTH 0 0
BBX 1 1 0 0
BITMAP
00
ENDCHAR
STARTCHAR uni0009
ENCODING 9
SWIDTH 0 0
DWIDTH 0 0
BBX 1 1 0 0
BITMAP
00
ENDCHAR
STARTCHAR nonmarkingreturn
ENCODING 13
SWIDTH 0 0
DWIDTH 0 0
BBX 1 1 0 0
BITMAP
00
ENDCHAR
STARTCHAR uni0015
ENCODING 21
SWIDTH 0 0
DWIDTH 0 0
BBX 1 1 0 0
BITMAP
00
ENDCHAR
STARTCHAR uni0016
ENCODING 22
SWIDTH 0 0
DWIDTH 0 0
BBX 1 1 0 0
BITMAP
00
ENDCHAR
STARTCHAR uni0017
ENCODING 23
SWIDTH 0 0
DWIDTH 0 0
BBX 1 1 0 0
BITMAP
00
ENDCHAR
STARTCHAR uni0018
ENCODING 24
SWIDTH 0 0
DWIDTH 0 0
BBX 1 1 0 0
BITMAP
00
ENDCHAR
STARTCHAR uni0019
ENCODING 25
SWIDTH 0 0
DWIDTH 0 0
BBX 1 1 0 0
BITMAP
00
ENDCHAR
STARTCHAR space
ENCODING 32
SWIDTH 307 0
DWIDTH 10 0
BBX 1 1 0 0
BITMAP
00
ENDCHAR
STARTCHAR exclam
ENCODING 33
SWIDTH 417 0
DWIDTH 13 0
BBX 13 25 2 -1
BITMAP
000000002BEE50
00000001DFFF60
00000009FFFC00
0000003FFFF200
000000BFFF8000
000003FFFE1000
000009FFF60000
00001EFFD00000
00005FFF600000
0000AFFE000000
0000EFF7000000
0003FFF1000000
0007FF90000000
000AFF30000000
000CFC00000000
000DF600000000
000DF100000000
000A9000000000
00000000000000
02762000000000
2EFFF400000000
6FFFF900000000
5FFFF500000000
0BFFA000000000
00330000000000
ENDCHAR
STARTCHAR quotedbl
ENCODING 34
SWIDTH 437 0
DWIDTH 14 0
BBX 13 8 4 18
BITMAP
008EE9003CFD30
07FFFA00DFFF40
0EFFD106FFF700
4FFF300AFFB000
7FF8000DFF2000
8FE1000FF80000
8F70000EE10000
4C00000A600000
ENDCHAR
STARTCHAR numbersign
ENCODING 35
SWIDTH 725 0
DWIDTH 23 0
BBX 22 24 1 0
BITMAP
000000000005DE1002CE40
00000000002FFD000DFF20
00000000007FF8004FFC00
0000000000DFF2009FF600
0000000003FFB000EFE100
0000000008FF5004FF9000
000000000DFE000AFF3000
000000003FF8000EFC0000
0004EFFFFFFFFFFFFFFFFA
002FFFFFFFFFFFFFFFFFF8
002CDDDDFFEDDDFFEDDC80
00000007FF3003FF700000
0000000BFD0007FF200000
0000000FF9000BFD000000
0000004FF4001FF8000000
05EFFFFFFFFFFFFFFFFA00
2FFFFFFFFFFFFFFFFFF800
2CDDDDFFDDDDFFEDDC7000
000008FE0004FF20000000
00000DF80009FC00000000
00003FF2000EF600000000
00008FB0004FE100000000
0000EF5000AF9000000000
0003E80000EB1000000000
ENDCHAR
STARTCHAR dollar
ENCODING 36
SWIDTH 545 0
DWIDTH 17 0
BBX 18 33 1 -4
BITMAP
000000000000000372
000000000000006FF6
00000000000001EFC0
00000000000007FF30
0000000000000DFA00
0000000017CFFFF400
00000005EFFECFFE30
0000007FFD4002DFD0
000005FFD100006FF4
00001EFF3000004FF8
00008FFB0000007FF9
0000EFF7000001DFF8
0003FFF5000009FFF5
0005FFF500007FFFE0
0005FFF90007FFFF50
0004FFFE1009FFF700
0001EFFF8000673000
00009FFFF300000000
00002EFFFC00000000
000005FFFF70000000
0000009FFFE1000000
0000000BFFF6000000
00780002EFFA000000
08FF00008FFA000000
0FFE00005FF8000000
2FFF10006FF4000000
0EFF9003DFA0000000
07FFFEDFFB10000000
005EFFEB5000000000
000EF7000000000000
004FE1000000000000
008F90000000000000
008E30000000000000
ENDCHAR
STARTCHAR percent
ENCODING 37
SWIDTH 876 0
DWIDTH 28 0
BBX 24 24 2 0
BITMAP
00004AEEC600000000019E80
0008FFEDFF600000001CFF40
008FFD10EFE0000000BFF900
05FFE200CFF3000008FFC000
0DFF8000DFF300006FFD2000
4FFF1003FFF10004FFF30000
7FFB0007FFD0002EFF500000
9FF8001EFF7001CFF8000000
8FF6009FFC000AFFA0000000
3FFA17FFE2008FFC10000000
09FFFFFC2005FFD200000000
0059BA50003FFE3000000000
0000000002EFF500049BA600
000000001CFF7001AFFFFFB0
00000000AFFA001CFFA18FF5
00000007FFC0009FFB005FFA
0000005FFD1004FFF2005FFB
000003EFE3000AFF90009FF9
00001DFF40000EFF4000EFF6
0000BFF600001FFF1005FFF1
0009FF8000001FFE001DFF70
006FFA0000000CFF10AFFB00
02FFC000000004FFEEFFB100
06EA10000000004BEEC50000
ENDCHAR
STARTCHAR ampersand
ENCODING 38
SWIDTH 563 0
DWIDTH 18 0
BBX 18 24 1 0
BITMAP
000000005ADFED8100
0000005EFFFECEFD20
00001AFFFB40008FC0
0000BFFF8000004FF1
0008FFF8000000AFF3
002FFFB0000008FFE1
007FFF400002BFFF90
00AFFD00005FFFFD10
009FFA00003FFFC200
007FFC000003860000
001EFF869600000000
0002CFFFFF80000000
0005EFFFE930000000
006FFFF81000000000
04FFFE300241000250
0DFFE3006FFFDDEFF1
5FFF60006EFFFFFF70
AFFD000003FFFEB500
DFF9000000FFC00000
DFF8000002FF900000
BFFB00000BFF300000
5FFF7102CFF6000000
09FFFFEFFE40000000
005BEFEB7100000000
ENDCHAR
STARTCHAR quotesingle
ENCODING 39
SWIDTH 231 0
DWIDTH 7 0
BBX 6 8 4 18
BITMAP
008EE9
07FFFA
0EFFD1
4FFF30
7FF800
8FE100
8F7000
4C0000
ENDCHAR
STARTCHAR parenleft
ENCODING 40
SWIDTH 478 0
DWIDTH 15 0
BBX 17 36 3 -8
BITMAP
00000000000005BE30
000000000001BFF600
00000000003EFE3000
0000000004EFD10000
000000005FFD200000
00000003EFE2000000
0000002EFF40000000
000000CFF700000000
000008FFC000000000
00003FFF3000000000
0000BFF80000000000
0004FFE10000000000
000CFF800000000000
004FFF200000000000
00AFFB000000000000
01FFF5000000000000
05FFF1000000000000
09FFC0000000000000
0DFF80000000000000
1FFF50000000000000
3FFF30000000000000
5FFF10000000000000
6FFF00000000000000
7FFF00000000000000
7FFE00000000000000
6FFF00000000000000
5FFF10000000000000
2FFF20000000000000
0DFF50000000000000
09FF90000000000000
04FFD0000000000000
00CFF4000000000000
005FFB000000000000
000BFF600000000000
0001DFF60000000000
00001AE80000000000
ENDCHAR
STARTCHAR parenright
ENCODING 41
SWIDTH 478 0
DWIDTH 15 0
BBX 17 36 -4 -8
BITMAP
0000000006EB200000
0000000004EFE20000
00000000004FFD0000
000000000009FF7000
000000000002FFE000
000000000000BFF600
0000000000007FFB00
0000000000003FFF10
0000000000001FFF40
0000000000000EFF70
0000000000000DFF80
0000000000000CFF90
0000000000000DFF90
0000000000000EFF80
0000000000000FFF70
0000000000001FFF50
0000000000004FFF30
0000000000007FFF00
000000000000AFFB00
000000000000EFF700
000000000004FFF200
000000000009FFC000
00000000001EFF6000
00000000007FFE0000
0000000000DFF70000
0000000007FFD00000
000000001EFF400000
00000000AFFA000000
00000005FFD1000000
0000002EFE30000000
000001DFF500000000
00001BFF6000000000
0001BFF60000000000
002DFE500000000000
05EFC2000000000000
1EC600000000000000
ENDCHAR
STARTCHAR asterisk
ENCODING 42
SWIDTH 518 0
DWIDTH 17 0
BBX 12 12 4 12
BITMAP
000002CFD300
000009FFF300
05300EFF7000
1FC02FFB0010
1FF94FF27DF8
07FFBFBDFFFD
008FFFFFC863
001DFFF50000
02DFCBFD2000
1DF901EFD100
8F70006FF700
4500000BC200
ENDCHAR
STARTCHAR plus
ENCODING 43
SWIDTH 617 0
DWIDTH 20 0
BBX 16 16 2 4
BITMAP
00000007E1000000
0000001FF3000000
0000001FF3000000
0000001FF3000000
0000001FF3000000
0000001FF3000000
0000001FF3000000
3BCCCCCFFCCCCCCA
AFFFFFFFFFFFFFF9
0000001FF3000000
0000001FF3000000
0000001FF3000000
0000001FF3000000
0000001FF3000000
0000001FF2000000
0000000D90000000
ENDCHAR
STARTCHAR comma
ENCODING 44
SWIDTH 312 0
DWIDTH 10 0
BBX 6 9 0 -5
BITMAP
01AEC3
08FFFD
04FFFF
00CFFD
009FF8
00BFE1
06FF40
4FF500
DA3000
ENDCHAR
STARTCHAR hyphen
ENCODING 45
SWIDTH 452 0
DWIDTH 14 0
BBX 11 3 2 8
BITMAP
04CDDDDDDC20
2EFFFFFFFF20
3EFFFFFFE500
ENDCHAR
STARTCHAR period
ENCODING 46
SWIDTH 270 0
DWIDTH 9 0
BBX 6 5 0 0
BITMAP
06EEB2
1FFFFC
3FFFFB
0DFFF5
02AB50
ENDCHAR
STARTCHAR slash
ENCODING 47
SWIDTH 405 0
DWIDTH 13 0
BBX 22 34 -3 -5
BITMAP
0000000000000000000372
0000000000000000005FF6
000000000000000002EFE1
00000000000000000AFF50
00000000000000004FFB00
0000000000000000DFF300
0000000000000007FF9000
000000000000001EFE1000
000000000000009FF70000
00000000000002FFD00000
0000000000000BFF500000
0000000000004FFB000000
000000000000CFF3000000
000000000006FF90000000
00000000001EFE10000000
00000000008FF700000000
0000000002FFD000000000
000000000AFF5000000000
000000003FFB0000000000
00000000CFF30000000000
00000005FF900000000000
0000000DFE100000000000
0000007FF7000000000000
000001EFD0000000000000
000009FF50000000000000
00003FFB00000000000000
0000BFF300000000000000
0004FF9000000000000000
000DFE1000000000000000
006FF70000000000000000
01EFD00000000000000000
09FF500000000000000000
3FFB000000000000000000
6EA1000000000000000000
ENDCHAR
STARTCHAR zero
ENCODING 48
SWIDTH 621 0
DWIDTH 20 0
BBX 18 24 2 0
BITMAP
00000000027CEEC600
000000008EFFDEFFA0
0000001CFFC300AFF4
000001CFFB10003FFA
00000CFFC100002FFD
00009FFF3000003FFF
0004FFF70000004FFE
000DFFD00000007FFD
006FFF50000000BFFB
00DFFD00000000EFF9
04FFF600000004FFF5
09FFE10000000AFFF1
0EFFA00000001EFFB0
3FFF500000006FFF60
7FFF10000000DFFE10
AFFB00000005FFF800
CFF80000000DFFE100
DFF50000007FFF6000
DFF4000002EFFB0000
CFF300001CFFD10000
AFF40000BFFE300000
4FFB002CFFD2000000
0AFFEDFFF910000000
006CEED83000000000
ENDCHAR
STARTCHAR one
ENCODING 49
SWIDTH 405 0
DWIDTH 13 0
BBX 11 24 2 0
BITMAP
00000006EC30
0000009FFFE0
00001BFFFFF0
0006EFFFFFD0
00CFFFDDFFA0
00BFC71EFF50
0000004FFF10
0000008FFB00
000000DFF600
000004FFF100
000009FFA000
00000EFF4000
00005FFD0000
0000AFF70000
0001FFE10000
0007FF900000
000DFF200000
004FF9000000
00BFF2000000
02FF90000000
09FE10000000
1EF600000000
7FA000000000
A90000000000
ENDCHAR
STARTCHAR two
ENCODING 50
SWIDTH 524 0
DWIDTH 17 0
BBX 17 24 0 0
BITMAP
000000004AEFEB5000
0000001AFFECEFFA00
000001CFFA100AFF60
00000AFFB00002FFC0
00003FFF300000FFF0
00009FFE000001FFF0
0000BFFF000006FFD0
0000BFFFA0001DFFA0
00006FFFB0009FFF40
000007B80006FFFB00
00000000004FFFF300
0000000004EFFF5000
000000004EFFF70000
00000004EFFF700000
0000004EFFF7000000
000004EFFE50000000
00004EFFD300000000
0003EFFB1000000000
002EFF800000000000
00CFF6000000000000
09FF500000127C3000
3FFDCFFFFFFFFF4000
9FFFCDFFFFFFFD0000
4E8100159DFEA20000
ENDCHAR
STARTCHAR three
ENCODING 51
SWIDTH 537 0
DWIDTH 17 0
BBX 17 24 1 0
BITMAP
000000017CFED92000
0000005EFFDDFFF400
000008FFD4004FFE10
00006FFD10000AFF50
0001EFF5000009FF80
0007FFF100000AFF80
000AFFF200000EFF70
000AFFFC00005FFF30
0005FFFC0001DFFC00
00006B80001CFFF300
0000000003DFFF8000
000000039FFFF90000
000000AFFFFF800000
000003FFFFF5000000
000002AACFFD100000
000000000CFF800000
0000000009FFB00000
03AB40000AFFC00000
2EFF80000DFF900000
8FFD00005FFF200000
AFF80002EFF9000000
7FFB004DFFB0000000
1CFFEEFFF900000000
018DFFD93000000000
ENDCHAR
STARTCHAR four
ENCODING 52
SWIDTH 529 0
DWIDTH 17 0
BBX 16 24 1 0
BITMAP
000000CE70000000
000001FFF4000000
000004FFF7000000
000008FFF4000000
00000DFFE1000000
00004FFF90000000
0000AFFF30009810
0003FFFA0001FFD1
000AFFF20005FFF3
004FFF90000AFFF1
00CFFE10001EFFA0
06FFF500006FFF40
0EFFA00000CFFD00
2FFE100114FFF600
0AFFFFFFFFFFFFD3
017BCCCCDFFFCCD8
000000007FFB0000
00000000EFF30000
00000005FFA00000
0000000CFF200000
0000004FF8000000
000000BFD1000000
000003FF30000000
000005D400000000
ENDCHAR
STARTCHAR five
ENCODING 53
SWIDTH 540 0
DWIDTH 17 0
BBX 19 24 1 0
BITMAP
0000000AEC964446AE40
0000004FFFFFFFFFFF40
0000008FFADFFFFFFC00
000000EFF1037BCC9100
000005FFB00000000000
00000CFF400000000000
00004FFC000000000000
0000BFF4000000000000
0003FFD9DFEB50000000
000BFFFFCEFFF8000000
002FFFC2009FFF300000
003FFB00001FFF800000
00069000000DFFA00000
00000000000EFFB00000
00000000001FFF900000
00000000005FFF600000
02881000009FFF200000
3EFF200001EFFB000000
AFF9000008FFF3000000
DFF400003FFF80000000
CFF30001DFFC00000000
7FF8004DFFB100000000
1BFFEEFFF80000000000
007CFEC8200000000000
ENDCHAR
STARTCHAR six
ENCODING 54
SWIDTH 554 0
DWIDTH 18 0
BBX 17 24 2 0
BITMAP
0000000006BEFD8000
00000004DFFECFFA00
0000007FFE7005FF20
000008FFE30004FF40
00006FFF40001CFF30
0003FFF70005EFFE10
000CFFC00009FFF700
006FFF400002BD7000
00DFFB000000000000
04FFF4000000000000
0AFFE04ADFD9100000
0EFFAAFFDEFFD10000
4FFFEFB200BFF90000
7FFFFB00004FFE0000
AFFFE100003FFF1000
BFFF7000004FFF1000
CFFF1000007FFF0000
CFFC000000BFFC0000
BFFA000003FFF60000
8FF900000CFFD00000
4FFB00009FFE300000
0CFF3019FFE4000000
02EFFCEFFC20000000
0019DFEA5000000000
ENDCHAR
STARTCHAR seven
ENCODING 55
SWIDTH 473 0
DWIDTH 15 0
BBX 15 24 3 0
BITMAP
0CB63101369DE900
0EFFFFFFFFFFFF70
09FFFFFFFE8BFF60
008DFEB7304FFC00
0000000002EFE200
000000000CFF6000
000000009FFA0000
00000006FFD10000
0000002EFF400000
000001CFF8000000
000009FFD0000000
00003FFF40000000
0000DFF900000000
0008FFE100000000
002FFF7000000000
009FFE1000000000
02FFF70000000000
08FFE10000000000
0DFFA00000000000
3FFF500000000000
6FFF200000000000
7FFE000000000000
4FFD000000000000
07EA000000000000
ENDCHAR
STARTCHAR eight
ENCODING 56
SWIDTH 524 0
DWIDTH 17 0
BBX 17 24 1 0
BITMAP
000000028DEEC81000
0000005EFFDFFFD200
000005FF8102CFFD00
00001EFA00003FFF50
00008FF300000EFF80
0000CFF100000DFF90
0000EFF100000EFF80
0000FFF400002FFF50
0000EFF900008FFE00
0000BFFF2003EFF500
00006FFFA03EFF8000
00001EFFFAFFF70000
000006FFFFFB300000
000004FFFFA0000000
0003BFFFFFF2000000
006FFD65FFF9000000
05FFC1008FFE000000
1EFF30001EFF200000
5FFD000009FF300000
7FFC000008FF100000
5FFE10000BFB000000
1EFFA0008FE3000000
04EFFECEFD30000000
0029DFEC7100000000
ENDCHAR
STARTCHAR nine
ENCODING 57
SWIDTH 554 0
DWIDTH 18 0
BBX 17 24 1 0
BITMAP
000000005ADFEA3000
0000002CFFECFFF500
000004EFF7002EFE10
00003EFF50000AFF60
0000DFF9000009FF90
0007FFF100000BFFA0
000DFFA000000CFF90
003FFF5000001FFF70
006FFF2000005FFF60
007FFF000000CFFF40
007FFE000005FFFF10
006FFF10003EFFFC00
001FFF8005EFFFF800
0007FFFDEFFBFFF400
00005CEFD836FFD000
00000000000BFF7000
00000000003FFE1000
0001000000AFF60000
05EF500003FFC00000
2EFF30001DFE300000
5FFC0000BFF5000000
4FFC003CFF50000000
0CFFDDFFC300000000
019DFEB50000000000
ENDCHAR
STARTCHAR colon
ENCODING 58
SWIDTH 312 0
DWIDTH 10 0
BBX 8 15 1 0
BITMAP
0009EE91
005FFFF8
007FFFF7
003FFFE2
0004BA30
00000000
00000000
00000000
00000000
00000000
3DEC5000
CFFFF100
EFFFF000
AFFF8000
18B80000
ENDCHAR
STARTCHAR semicolon
ENCODING 59
SWIDTH 312 0
DWIDTH 10 0
BBX 9 19 0 -5
BITMAP
00008EEA10
0004FFFF90
0006FFFF90
0002EFFF20
00003AA300
0000000000
0000000000
0000000000
0000000000
0000000000
01AEC30000
08FFFD0000
04FFFF0000
00CFFD0000
009FF80000
00BFE10000
06FF400000
4FF5000000
DA30000000
ENDCHAR
STARTCHAR less
ENCODING 60
SWIDTH 637 0
DWIDTH 20 0
BBX 17 17 2 1
BITMAP
000000000000029E10
0000000000018EFE10
00000000006EFFD400
000000005DFFE70000
0000003CFFFA200000
00002AFFFC30000000
0019FFFE6000000000
07EFFF810000000000
BFFFC2000000000000
4DFFF9100000000000
017EFFE70000000000
00019FFFD500000000
000002AFFFB3000000
00000003CFFF910000
0000000005DFFE7000
000000000006EFFD10
00000000000018EC00
ENDCHAR
STARTCHAR equal
ENCODING 61
SWIDTH 617 0
DWIDTH 20 0
BBX 17 8 2 8
BITMAP
2CFFFFFFFFFFFFFF50
3BCCCCCCCCCCCCC910
000000000000000000
000000000000000000
000000000000000000
000000000000000000
4DFFFFFFFFFFFFFE10
6CCCCCCCCCCCCCB700
ENDCHAR
STARTCHAR greater
ENCODING 62
SWIDTH 606 0
DWIDTH 19 0
BBX 17 17 2 1
BITMAP
5EB300000000000000
6FFFA2000000000000
03CFFF910000000000
0006EFFE7100000000
000018FFFD60000000
0000002BFFFC400000
000000004DFFFB3000
00000000007EFFF900
000000000006FFFF30
0000000003BFFFB300
000000019FFFC40000
0000007EFFD6000000
00004DFFE710000000
002BFFF91000000000
08FFFA200000000000
8FFC30000000000000
8D5000000000000000
ENDCHAR
STARTCHAR question
ENCODING 63
SWIDTH 516 0
DWIDTH 17 0
BBX 16 24 2 0
BITMAP
00000006BEFD9200
000001BFFECEFE30
00000CFFA101DFD0
00005FFE10007FF3
0000AFFB00007FF4
0000CFFD0000DFF3
00009FFE1008FFE1
000019A3008FFF90
000000001AFFFD10
00000002DFFFD200
0000005EFFFB1000
000006FFFF800000
00005FFFE4000000
0001EFFC20000000
0008FFC100000000
000BFE1000000000
000AF40000000000
0004600000000000
0000000000000000
08EE910000000000
4FFFF80000000000
7FFFF80000000000
4FFFF30000000000
07ED500000000000
ENDCHAR
STARTCHAR at
ENCODING 64
SWIDTH 905 0
DWIDTH 29 0
BBX 28 26 1 -4
BITMAP
00000000000159CEFFDC95000000
00000000029EFFEDCDEFFFE60000
000000018FFC620000027DFFA000
0000003DFC400000000001AFFA00
000004EF900000000000000BFF40
00004EF70000000000000002FFC0
0002EF900000000000000000AFF1
000BFD0000004AEEA14EC2006FF4
006FF5000009FFEDFCDFF5004FF5
00DFD00001BFF800AFFFD0004FF5
05FF800009FF90003FFF60004FF4
0AFF30005FFE10004FFE00007FF1
0EFE0000CFF80000BFF70000CFC0
3FFC0003FFF20003FFF10003FF60
5FFB0006FFE0000BFFA0000AFD00
6FFA0008FFC0005FFF60006FF400
6FFB0008FFB002EDFF2005FF8000
5FFC0005FFE23DA7FF329FF80000
3FFF1000BFFFF904FFFFFD500000
0EFF500007BA40005BBA50000000
09FFC00000000000000000000000
01EFF80000000000000000000000
005FFF8000000000000000000000
0006FFFC510000048B0000000000
00003BFFFFDCCDFFE50000000000
00000038BDFFEB95000000000000
ENDCHAR
STARTCHAR A
ENCODING 65
SWIDTH 615 0
DWIDTH 20 0
BBX 24 24 -3 0
BITMAP
00000000000000000016BEF8
000000000000000007EFFFFB
0000000000000001BFFACFF6
000000000000002DFD32FFF1
00000000000002DFB109FFA0
0000000000001DFB101FFF40
000000000000BFD1008FFD00
000000000008FF3000DFF800
00000000004FF80005FFF200
0000000001DFD0000AFFC000
0000000008FF40001FFF6000
000000003FFD79BBDFFFDC80
00000028DFFFFFFFFFFFFFB0
000006FFFFFFFFFFFFFFEA20
0000068FFC000004FFF30000
0000008FF5000008FFD00000
000002FFC000000CFF900000
00000AFF4000000FFF600000
00004FFC0000002FFF300000
0001DFF30000004FFF100000
000AFF900000005FFF304000
01AFFD100000004FFFEEF300
5EFFE3000000000DFFFFA000
4DEA200000000003CED81000
ENDCHAR
STARTCHAR B
ENCODING 66
SWIDTH 551 0
DWIDTH 18 0
BBX 19 24 1 0
BITMAP
0000047ACEFFEB710000
0018EFFFFEDCEFFE6000
01DFFFE8300004EFF500
02EFF8100000006FFD00
002732EE7000002FFF20
00000BFFF400003FFF30
00006FFFD000006FFF20
0001DFFF400000CFFD00
0007FFFA000007FFF600
000EFFF200006FFFB000
006FFF900019FFFC1000
00BFFE1038EFFFB10000
02FFFEDEFFFFE6000000
06FFFFFFFFFF80000000
0BFFD85214CFFA000000
0EFF4000001EFF400000
3FFE0000000BFF800000
5FFA0000000CFF800000
7FF70000002FFF500000
8FF5000000BFFD000000
7FF600001BFFF4000000
3FFC2016DFFE40000000
0AFFFEFFFF9200000000
007DEEDA620000000000
ENDCHAR
STARTCHAR C
ENCODING 67
SWIDTH 533 0
DWIDTH 17 0
BBX 19 24 1 0
BITMAP
000000000039DEEB4000
000000002BFFFECFF500
00000005EFFB3007FE10
0000007FFF800004FF40
000006FFF7000007FF60
00004FFF9000001EFF50
0001EFFD100000BFFF10
0009FFF400000AFFFA00
003FFFA00001CFFFE200
00AFFF300004FFFF5000
02FFFB0000009FD40000
07FFF500000001000000
0BFFF100000000000000
0FFFB000000000000000
3FFF8000000000000000
5FFF5000000000000000
6FFF4000000000000000
7FFF4000000000000000
6FFF5000000000000000
3FFF7000000052000000
0DFFC000001AF8000000
05FFF70016EFF6000000
008FFFDDFFFF80000000
0003ADEFDB6100000000
ENDCHAR
STARTCHAR D
ENCODING 68
SWIDTH 630 0
DWIDTH 20 0
BBX 20 24 1 0
BITMAP
000037ACEFFDC8400000
003DFFFFFFFFFFFD5000
00BFFFFC74335BFFF800
004EFD400000005FFF60
0001410230000007FFE1
000000CFFD000001FFF6
000006FFFA000000CFF9
00001EFFE2000000BFFB
00007FFF70000000BFFA
0001EFFE10000000DFF9
0006FFF700000001FFF6
000DFFE100000006FFF2
004FFF900000000CFFD0
009FFF200000004FFF60
00EFFC00000000DFFD00
04FFF600000007FFF500
09FFF10000004FFFA000
0DFFB0000003EFFC1000
2FFF6000003EFFD20000
5FFF200004EFFD200000
7FFE00008FFFB1000000
5FFC006DFFF700000000
0CFFCEFFFA2000000000
017CFEC7200000000000
ENDCHAR
STARTCHAR E
ENCODING 69
SWIDTH 509 0
DWIDTH 16 0
BBX 18 24 1 0
BITMAP
0000000017BEFEC810
00000007EFFFECEFD1
000001BFFFB4000DF8
00001CFFF700000CFA
0000AFFF6000005FFA
0005FFFA000004EFF6
000CFFE100007FFFD0
002FFF80000BFFFF40
004FFF30000EFFF500
005FFF100003AA3000
002FFF100000000000
000BFF902300000000
0002DFFFFFC0000000
00007FFFFFE1000000
001CFFFF9200000000
01DFFFC20000000000
0AFFFB100000000000
3FFFD1000000000000
9FFF50000003500000
AFFF0000004EC00000
9FFE000004EFC00000
3FFF60029FFE400000
07FFFDDFFFC3000000
0039DEEC9400000000
ENDCHAR
STARTCHAR F
ENCODING 70
SWIDTH 518 0
DWIDTH 17 0
BBX 19 24 1 0
BITMAP
0028DFEDCA86421028B0
03DFFFFFFFFFFFFFFFA0
0DFFFFFFFFFFFFFFFF30
2FFFC4102EFE9BCCA300
2FFC00008FF800000000
0BF50001EFF300000000
00400007FFD000000000
0000000DFF9000000000
0000003FFF5000000000
0000008FFF1000000000
000000DFFB0000000000
000003FFFEDFE9100000
00017DFFFFFFFFA00000
001DFFFFFFFFEE900000
001ACFFF810000000000
00009FFF200000000000
0001EFFB000000000000
0006FFF4000000000000
000DFFB0000000000000
006FFF30000000000000
01EFF800000000000000
0BFFC000000000000000
BFFC1000000000000000
BE810000000000000000
ENDCHAR
STARTCHAR G
ENCODING 71
SWIDTH 598 0
DWIDTH 19 0
BBX 19 24 1 0
BITMAP
000000000028CEEB4000
000000001AFFFECFF600
00000004EFFC4005FE10
0000006FFFA00002FF60
000005FFFA000005FF80
00003FFFB000000CFF70
0001DFFE2000008FFF30
0008FFF6000007FFFD00
002FFFC000009FFFF400
009FFF500002FFFF8000
01EFFD0000009FF70000
05FFF700000002100000
0AFFF200000000000000
0EFFC000002652015600
2FFF900004EFFFFFFC00
4FFF60000BFFFFFFF500
5FFF4000004EFFEB4000
6FFF30000009FF100000
5FFF30000009FD000000
2FFF5000000EF6000000
0DFFA000009FB0000000
05FFF6001AFD10000000
008FFFDCFFB100000000
0004AEFEA40000000000
ENDCHAR
STARTCHAR H
ENCODING 72
SWIDTH 668 0
DWIDTH 21 0
BBX 24 24 -1 0
BITMAP
00004ADFFD80000000007EA1
0000EFFEEFF700000000DFF7
00004B60CFF900000001FFF6
00000000EFF800000005FFF3
00000002FFF600000009FFD0
00000005FFF30000000DFF90
00000009FFE00000003FFF30
0000000DFFB00000008FFD00
0000002FFF70000000DFF700
0000007FFF20000003FFF200
000000BFFE89ABBBCDFFE920
00005CFFFFFFFFFFFFFFFF20
0001EFFFF42100139FFFD500
00002DFFA0000000BFF90000
00003FFF40000001FFF30000
00009FFD00000006FFC00000
0001EFF60000000BFF600000
0007FFE00000002FFF100000
001EFF700000006FFA000000
008FFD00000000BFF6000000
03FFF400000000FFF5041000
1DFF7000000001FFFEEF1000
DFF90000000000DFFFF80000
CD6000000000003DEC500000
ENDCHAR
STARTCHAR I
ENCODING 73
SWIDTH 327 0
DWIDTH 10 0
BBX 13 24 -1 0
BITMAP
000017CEED8100
00008FFFDFFC00
000019A25FFF10
000000007FFF10
00000000AFFE00
00000000DFFC00
00000001FFF800
00000005FFF500
00000009FFF100
0000000DFFC000
0000003FFF7000
0000007FFF3000
000000CFFD0000
000002FFF70000
000008FFF20000
00000DFFB00000
00005FFF400000
0000BFFC000000
0003FFF5000000
000CFFB0000000
006FFE20000000
03EFF600000000
2EFF7000000000
2DD50000000000
ENDCHAR
STARTCHAR J
ENCODING 74
SWIDTH 393 0
DWIDTH 13 0
BBX 20 33 -6 -9
BITMAP
0000000000038CEED930
0000000005DFFFFDFFF3
000000009FFFF812FFF8
00000004FFFE4003FFF7
00000001CFD20005FFF5
0000000004100009FFF3
000000000000000CFFE0
000000000000001FFFB0
000000000000006FFF70
00000000000000AFFF30
00000000000000EFFE00
00000000000004FFF900
0000000000000AFFF400
0000000000000EFFE000
0000000000005FFF9000
000000000000BFFF3000
000000000002FFFC0000
000000000008FFF50000
00000000001EFFE00000
00000000007FFF700000
0000000000EFFE100000
0000000006FFF8000000
000000001EFFE1000000
000000007FFF70000000
00000002EFFC00000000
0000000AFFF300000000
0000005FFF8000000000
000002EFFB0000000000
00001DFFD10000000000
0001CFFE200000000000
003DFFD2000000000000
1AFFFA10000000000000
4EEA4000000000000000
ENDCHAR
STARTCHAR K
ENCODING 75
SWIDTH 616 0
DWIDTH 20 0
BBX 23 24 -2 0
BITMAP
000017BEFC700000004EE800
0000AFFFDFF90000002FFF60
00003CA26FFF0000000EFFA0
000000008FFF0000000FFFB0
00000000BFFD0000004FFF80
00000000EFFB000000AFFF20
00000003FFF8000004FFF900
00000006FFF400002EFFB000
0000000AFFF10001DFFC1000
0000000EFFC0002DFFA10000
0000004FFF8003EFF7000000
0000008FFF307FFD30000000
000000DFFD1AFF9100000000
000003FFFBDFE50000000000
000009FFFDFFE30000000000
00000EFFC1CFFE2000000000
00006FFF602EFFD100000000
0000CFFE1007FFF900000000
0004FFF70000DFFF40000000
000CFFD100005FFFE1000000
007FFF5000000BFFFB000000
03FFF900000002EFFFC42100
3EFFA0000000004EFFFFF500
3ED7000000000002AEFC6000
ENDCHAR
STARTCHAR L
ENCODING 76
SWIDTH 517 0
DWIDTH 17 0
BBX 19 24 -1 0
BITMAP
0000000000007CEEA100
00000000002DFFDDFD10
0000000002EFF800BF80
000000001DFF90008FD0
000000008FFE1000AFF0
00000002FFF70001EFE0
0000000AFFE1000AFFA0
0000002FFF80008FFF50
0000009FFF2009FFFC00
000001EFFC01CFFFF300
000006FFF604FFFF5000
00000CFFE1008ED40000
00002FFF900000000000
00007FFF300000000000
0000DFFC000000000000
0003FFF5000000000000
0009FFD0000000000000
000EFF60000000000000
006FFC00000000000000
00DFF300000000000000
09FF70369BDEEB500000
7FFEBFFFFFFFFFF50000
8FFFFFFFFEDEFFFB0000
1CEC9642000026CB0000
ENDCHAR
STARTCHAR M
ENCODING 77
SWIDTH 931 0
DWIDTH 30 0
BBX 34 24 -4 0
BITMAP
0000000000000000018DFB100000018DE8
00000000000000005EFFFF3000004EFFFE
0000000000000007FFDFFE000005FFEFF9
000000000000006FF5CFF800003FFACFF4
00000000000004FF63FFF20001EFD3FFE0
0000000000001EFA09FFC0000AFF38FF90
000000000000BFE10EFF70005FF80EFF40
000000000006FF604FFF2001EFD05FFD00
00000000001EFC009FFC0008FF40BFF800
00000000009FF400EFF7002FFB01FFF300
0000000003FFA003FFF3009FF306FFE000
000000000BFF2006FFE002FF900BFF9000
000000004FF9000AFFA00AFF201FFF4000
00000000CFE1000DFF703FF8005FFF1000
00000006FF70001FFF40AFE100AFFB0000
0000001EFE10004FFF23FF7000DFF70000
0000008FF600005FFE0AFE1002FFF40000
000003FFD000007FFD3FF60005FFF10000
00000CFF4000007FFCBFD00007FFE00000
00007FFA0000008FFEFF500008FFD00000
0004FFE20000007FFFFB000008FFF10320
004EFF500000006FFFF2000005FFFEDF60
2BFFF8000000003FFF60000000DFFFFE10
2CEC500000000009E8000000002BEEA200
ENDCHAR
STARTCHAR N
ENCODING 78
SWIDTH 708 0
DWIDTH 23 0
BBX 25 24 0 0
BITMAP
00000000007DE7000001AEC400
000000001BFFFA000004FFFF30
00000000AFFFF70000009FFF90
00000007FFFFF40000003FFFB0
0000002FF9FFF30000001FFFB0
000000BFD2FFF20000002FFF80
000004FF53FFF20000003FFF40
00000CFC03FFF30000007FFD00
00005FF503FFF3000000BFF700
0000CFE002FFF5000001FFE100
0003FF8002FFF6000007FF8000
0009FF2001FFF800000DFE1000
001EFC0000EFFB00005FF70000
005FF70000BFFD0000CFD00000
00AFF200009FFF2004FF500000
01FFD000006FFF500BFC000000
05FF9000002FFF903FF4000000
09FF5000000CFFD09FB0000000
0DFF20000008FFF4FF30000000
1FFD00000003FFFEFB00000000
4FFA00000000BFFFF400000000
6FF7000000003FFFE000000000
5FF50000000008FFB000000000
0BE200000000008E8000000000
ENDCHAR
STARTCHAR O
ENCODING 79
SWIDTH 655 0
DWIDTH 21 0
BBX 21 24 1 0
BITMAP
000000000017BEFDB40000
0000000008EFFECEFF9000
00000002CFFE6001BFF600
0000003EFFD200002FFD00
000002EFFE2000000EFF30
00001DFFF30000000DFF60
00009FFF700000000DFF70
0003FFFC000000000FFF60
000BFFF3000000003FFF50
003FFFA0000000006FFF30
00AFFF3000000000BFFE00
01FFFC0000000001FFFB00
05FFF60000000006FFF600
09FFF1000000000DFFE100
0CFFC0000000006FFF8000
0EFF8000000000DFFE2000
0FFF5000000006FFF80000
1FFF400000002EFFC00000
0FFF30000000BFFE300000
0CFF40000009FFF5000000
07FF9000009FFF50000000
01DFF4003BFFE400000000
003DFFDDFFFA2000000000
00018CEED9300000000000
ENDCHAR
STARTCHAR P
ENCODING 80
SWIDTH 553 0
DWIDTH 18 0
BBX 21 24 -1 0
BITMAP
000000037ADEFEDB710000
000005CFFFFFECDFFF8000
00006FFFFD720002BFFA00
00008FFE500000000DFF50
000018913EC2000009FFA0
00000000DFF8000009FFC0
00000006FFF400000BFFB0
0000000CFFD000002FFF80
0000003FFF700000BFFF30
0000009FFF200008FFFA00
000000EFFC00009FFFD100
000005FFF6004CFFFD2000
00000AFFF46CFFFFA10000
00001FFFFFFFFFB4000000
00006FFFFFDB7200000000
0000CFFD00000000000000
0003FFF700000000000000
0009FFE100000000000000
002FFF8000000000000000
009FFE1000000000000000
03FFF50000000000000000
1DFF800000000000000000
CFFA000000000000000000
CE80000000000000000000
ENDCHAR
STARTCHAR Q
ENCODING 81
SWIDTH 655 0
DWIDTH 21 0
BBX 21 29 2 -5
BITMAP
00000000039CEED9200000
00000002BFFFDDFFE40000
0000006FFFB3002DFE1000
000008FFF7000005FF8000
00007FFF60000002FFD000
0004FFF800000002FFF100
001DFFB000000002FFF200
008FFF2000000005FFF200
01EFF90000000008FFF100
06FFF2000000000CFFD000
0BFFB0000000002FFF9000
1FFF60000000009FFF4000
4FFF2000000002EFFC0000
6FFF0000000009FFF50000
8FFF000000003FFFA00000
8FFF10000001CFFE200000
6FFF60000009FFF5000000
2FFFD100006FFF70000000
09FFF80005FFF900000000
01BFD3006FFF9000000000
00020019FFF70000000000
000028EFFC300000000000
004CFFFFFD810000000000
009FFFFFFFFE8100000000
00000026CFFFFE70000000
0000000004DFFFFD710050
000000000019FFFFFFDEF0
0000000000004DFFFFFFA0
000000000000005AEFD810
ENDCHAR
STARTCHAR R
ENCODING 82
SWIDTH 623 0
DWIDTH 20 0
BBX 21 25 -1 -1
BITMAP
000000026ACEFFEB720000
000003BFFFFFDCDFFF8000
00004FFFFC6100017FFB00
00004FFD5000000009FF60
000004812EF5000005FFC0
00000000BFFB000005FFF0
00000003FFF7000008FFE0
0000000AFFF100000DFFC0
0000001FFFA000007FFF70
0000006FFF500004FFFD00
000000CFFE00006FFFE300
000002FFF9002AFFFD3000
000007FFF76BFFFFA10000
00000DFFFFFFFFC4000000
00003FFF9CFFC200000000
00009FFF11EFF500000000
0001EFFA006FFE20000000
0007FFF3000EFF90000000
000DFFA00007FFF3000000
006FFF200001EFFC000000
01EFF80000008FFF600000
0BFFC00000001DFFF50000
9FFD1000000003FFFFDE10
9E9100000000003DFFE600
0000000000000000341000
ENDCHAR
STARTCHAR S
ENCODING 83
SWIDTH 474 0
DWIDTH 15 0
BBX 18 24 0 0
BITMAP
0000000029DFEC7100
00000007FFFDDFFD20
000000AFFC3002DFB0
000008FFB000007FF3
00003FFF2000006FF7
0000AFFA0000009FF8
0001FFF6000001EFF7
0005FFF400000AFFF3
0006FFF40001AFFFC0
0006FFF70009FFFF30
0004FFFC0005FFE500
0001FFFF6000351000
00009FFFE100000000
00002EFFFB00000000
000006FFFF60000000
0000009FFFE0000000
0000000CFFF5000000
00780002FFF9000000
09FD00009FF9000000
1FFC00006FF7000000
3FFE00007FF2000000
1EFF8003EF70000000
06FFFEDFF700000000
004BEFD92000000000
ENDCHAR
STARTCHAR T
ENCODING 84
SWIDTH 471 0
DWIDTH 15 0
BBX 19 24 2 0
BITMAP
006CEEEDB97531016D10
1CFFFFFFFFFFFFFFFE00
8FFFFFFFFFFFFFFFF800
DFFE51019FFDBCDB6000
DFF30000EFF700000000
6FA00005FFF200000000
0320000BFFC000000000
0000001FFF8000000000
0000006FFF3000000000
000000BFFE0000000000
000001FFF90000000000
000005FFF50000000000
00000AFFE10000000000
00000EFFA00000000000
00004FFF500000000000
00008FFE000000000000
0000DFF9000000000000
0004FFF2000000000000
000AFFA0000000000000
002FFF30000000000000
00BFF900000000000000
06FFD100000000000000
7FFE2000000000000000
BEA20000000000000000
ENDCHAR
STARTCHAR U
ENCODING 85
SWIDTH 624 0
DWIDTH 20 0
BBX 23 24 0 0
BITMAP
0000007DFC300000000AE800
000001EFFFB00000005FFF10
0000002FFFB0000000CFFB00
0000001FFF70000006FFF400
0000005FFF2000000DFFC000
000000BFFC0000006FFF6000
000003FFF6000001EFFE1000
000009FFE1000007FFF90000
00001FFF8000001EFFF40000
00007FFF1000008FFFD00000
0000EFF9000002FFFF800000
0006FFF200000AFFFF300000
000CFFA000003FFFFD000000
004FFF300000CFFFF8000000
00AFFB000006FEFFF3000000
01FFF500001EF8FFE0000000
06FFE00000AF98FFA0000000
0BFF900005FD1CFF60000000
1FFF40003EF30FFF30000000
4FFF2002DF602FFF20000000
5FFF504DF8003FFF40220000
4FFFFDFF80001FFFFDF50000
0DFFFFF700000BFFFFC10000
02BEEA30000001AEE9100000
ENDCHAR
STARTCHAR V
ENCODING 86
SWIDTH 587 0
DWIDTH 19 0
BBX 22 25 2 0
BITMAP
00000000000000002CEA10
0027BEEB300000009FFF90
08FFFFFFF30000003FFFF0
0EFFFFFFFC0000000BFFF1
05ED722EFF10000009FFF0
000000AFFD0000000BFFC0
000004FFF80000003FFF70
00000CFFF1000000BFFE10
00005FFF90000005FFF700
0000CFFE1000001EFFD000
0004FFF8000000BFFF3000
000CFFE1000008FFF60000
003FFF8000005FFF800000
009FFF100004FFF9000000
01EFF900003EFFA0000000
05FFF20002EFFA00000000
09FFB0002DFF9000000000
0EFF6001DFF80000000000
2FFF101CFF700000000000
5FFD00BFF6000000000000
6FFC09FF60000000000000
4FFC6FF600000000000000
1FFEEF7000000000000000
09FFF80000000000000000
01BE900000000000000000
ENDCHAR
STARTCHAR W
ENCODING 87
SWIDTH 941 0
DWIDTH 30 0
BBX 30 24 2 0
BITMAP
0049DFE8100000000000000003BEA0
1CFFFFFFC0000000000000001EFFF5
5FFFFFFFF6000000000000000DFFFA
0AFB526FFA0000000000000007FFFC
001001EFF80000000000000002FFFD
000009FFF30000003BFB100000FFFD
00003FFFB0000007FFFE100000EFFC
0000AFFF4000009FFFF3000000FFFA
0003FFFB00000AFFFF60000001FFF8
000AFFF40000AFFFFB00000004FFF4
002FFFB00008FFFFF300000007FFE1
009FFF40007FFFFFB00000000BFFA0
01EFFC0004FFEFFF600000002FFF30
05FFF5001EFE7FFF100000007FFB00
0BFFD000BFF49FFC00000001EFF400
1FFF7007FF60DFF800000008FFB000
4FFF202FF901FFF50000001EFE2000
8FFC00CFC003FFF2000000AFF60000
AFF807FE2004FFF1000006FF900000
BFF72EF40003FFF000004FFB000000
BFF6AF800001FFF10004EFB1000000
7FFBFB000000CFF6017FF900000000
1EFFE20000004FFFDEFD5000000000
04DE5000000005CFEB600000000000
ENDCHAR
STARTCHAR X
ENCODING 88
SWIDTH 552 0
DWIDTH 18 0
BBX 25 24 -2 0
BITMAP
00000000006DB00000003AEE80
0000000007FFB0000007FFFE60
000000001EFF9000009FFFA100
000000003FFF700009FFF60000
000000004FFF60006FFF500000
000000003FFF5003FFF5000000
000000002FFF601DFF60000000
000000001FFF60AFF800000000
000000000FFF76FFA000000000
000000000DFFBFFC1000000000
000000000BFFFFE20000000000
0000000009FFFF500000000000
0000000006FFF9000000000000
0000000009FFF5000000000000
000000004FFFF8000000000000
00000001DFFFFD000000000000
0000000BFFAFFF200000000000
0000009FF73FFF800000000000
000008FFB00DFFE10000000000
00009FFC1008FFF80000000000
000AFFD10002FFFF5003000000
01BFFD2000008FFFFCDC000000
5EFFC20000000BFFFFF5000000
6EE810000000007DFC40000000
ENDCHAR
STARTCHAR Y
ENCODING 89
SWIDTH 580 0
DWIDTH 19 0
BBX 22 33 0 -9
BITMAP
0000008DFC200000000BE7
000002EFFFA00000006FFF
0000004FFF90000001DFFA
0000002FFF60000007FFF3
0000007FFF1000001EFFB0
000000DFFB0000008FFF50
000004FFF4000001EFFE00
00000BFFD0000009FFF900
00002FFF6000002FFFF300
00009FFE1000009FFFD000
0001EFF7000003FFFF7000
0007FFE100000BFFFF2000
000DFF8000004FFFFC0000
005FFF200000DFFFF60000
00BFFA000008FFFFF10000
02FFF300002FFBFFB00000
07FFD00000BF9DFF500000
0DFF700007FC4FFE100000
2FFF30004FE39FF9000000
5FFF1003EF52FFF3000000
7FFF305EF708FFC0000000
5FFFFEFF801EFF40000000
1DFFFFF6008FFC00000000
02BEE92001EFF400000000
0000000009FFA000000000
000000004FFE2000000000
00000001DFF70000000000
0000000BFFA00000000000
0000009FFD100000000000
000009FFE2000000000000
0002BFFD20000000000000
019FFFB100000000000000
04EEB50000000000000000
ENDCHAR
STARTCHAR Z
ENCODING 90
SWIDTH 501 0
DWIDTH 16 0
BBX 21 24 -1 0
BITMAP
00000DB52001257ADE9000
00000DFFFFFFFFFFFFF900
000009FFFFFFFFB6BFFF10
0000019DFFD95109FFFC00
000000000000008FFFF300
00000000000007FFFF6000
0000000000006FFFF80000
000000000005FFFFA00000
00000000004FFFFA000000
0000000003EFFFA0000000
000000002EFFFB00000000
00000001DFFFB000000000
0000001CFFFB1000000000
000000BFFFB10000000000
000009FFFC100000000000
00006FFFC1000000000000
0004FFFD10000000000000
001EFFE200000000000000
00BFFE3000000000000000
06FFF50000000000000000
1EFF90148ADEFD70000000
5FFE6BFFFFFFFFF6000000
4FFFFFFFFFFFFFFD000000
0AFDB863210025BD000000
ENDCHAR
STARTCHAR bracketleft
ENCODING 91
SWIDTH 396 0
DWIDTH 13 0
BBX 17 34 0 -5
BITMAP
000000000003777620
00000000003FFFFE80
00000000008FFF6000
0000000000EFF70000
0000000004FFF10000
0000000009FFA00000
000000000EFF500000
000000005FFE000000
00000000AFF9000000
00000001FFF4000000
00000006FFD0000000
0000000BFF80000000
0000001FFF30000000
0000006FFD00000000
000000CFF800000000
000002FFF200000000
000007FFC000000000
00000CFF7000000000
00003FFF2000000000
00008FFC0000000000
0000DFF70000000000
0003FFF20000000000
0009FFC00000000000
000EFF600000000000
004FFF100000000000
009FFB000000000000
00EFF6000000000000
05FFF1000000000000
0AFFB0000000000000
1EFF60000000000000
5FFF10000000000000
BFFC00000000000000
FFFFCA300000000000
AEFFEB400000000000
ENDCHAR
STARTCHAR backslash
ENCODING 92
SWIDTH 464 0
DWIDTH 15 0
BBX 12 34 1 -5
BITMAP
361000000000
7FE100000000
3FF600000000
0EFA00000000
0BFE00000000
07FF30000000
03FF70000000
00EFB0000000
00AFE0000000
007FF3000000
003FF7000000
000EFB000000
000AFE000000
0006FF400000
0002FF700000
0000DFB00000
0000AFF00000
00006FF40000
00002FF80000
00000DFC0000
000009FF1000
000005FF4000
000001FF8000
000000DFC000
0000009FF100
0000005FF400
0000001FF800
0000000CFC00
00000008FF10
00000004FF50
00000001FF90
00000000CFC0
000000007FF1
000000001BE1
ENDCHAR
STARTCHAR bracketright
ENCODING 93
SWIDTH 394 0
DWIDTH 13 0
BBX 17 34 -2 -5
BITMAP
000000000039BBCB50
00000000007EFFFFD0
0000000000000DFFA0
0000000000000EFF40
0000000000004FFE00
000000000000AFF900
000000000000EFF400
000000000005FFD000
00000000000AFF8000
00000000001EFF3000
00000000005FFD0000
0000000000AFF80000
0000000001FFF30000
0000000005FFC00000
000000000AFF700000
000000001FFF200000
000000006FFC000000
00000000BFF7000000
00000001FFF1000000
00000006FFB0000000
0000000BFF60000000
0000001FFF10000000
0000006FFB00000000
000000BFF500000000
000002FFE100000000
000007FFA000000000
00000CFF5000000000
00003FFE0000000000
00008FF90000000000
0000DFF40000000000
0004FFE00000000000
001CFF900000000000
38DFFF300000000000
9EFFE8000000000000
ENDCHAR
STARTCHAR asciicircum
ENCODING 94
SWIDTH 540 0
DWIDTH 17 0
BBX 14 13 3 11
BITMAP
000000BE400000
000005FFC00000
00000DFFF40000
00006FFFFB0000
0001EFFFFF3000
0007FFC7FFB000
001EFE20CFF300
009FF6004FFA00
02FFB0000AFF20
0AFE200001EF90
3FF60000007FF2
BFB00000000CF9
BE2000000004E8
ENDCHAR
STARTCHAR underscore
ENCODING 95
SWIDTH 530 0
DWIDTH 17 0
BBX 22 3 -6 -5
BITMAP
03CDDDDDDDDDDDDDDDDDD9
1EFFFFFFFFFFFFFFFFFFFC
1EFFFFFFFFFFFFFFFFFFD3
ENDCHAR
STARTCHAR grave
ENCODING 96
SWIDTH 219 0
DWIDTH 7 0
BBX 5 8 1 17
BITMAP
1AEA00
AFFC00
CFFB00
9FFA00
4FFB00
0AFE10
01CF70
000630
ENDCHAR
STARTCHAR a
ENCODING 97
SWIDTH 541 0
DWIDTH 17 0
BBX 17 17 1 -1
BITMAP
00000039DFC50AEB10
000008FFFCEFCFFF30
0001BFFB203FFFFB00
000BFFA0000CFFF400
008FFD10000EFFC000
04FFF500005FFF6000
0CFFD00000AFFE0000
3FFF600001FFF80000
8FFF200008FFF20000
CFFD00001EFFB00000
EFFA00009FFF700000
EFF90003FFFF400000
DFF8001DECFF300000
8FFB02CF4CFFA59300
1EFFDEF50BFFFFF200
02BEEA2004FFFF6000
000000000038820000
ENDCHAR
STARTCHAR b
ENCODING 98
SWIDTH 525 0
DWIDTH 17 0
BBX 15 26 1 0
BITMAP
000002ED30000000
000007FFA0000000
00000AFFA0000000
00000DFF70000000
00001FFF30000000
00005FFE00000000
00009FFA00000000
0000DFF500000000
0003FFE000000000
0007FF9000000000
000CFF417DFD8000
002FFD3DFDEFFA00
007FF9EE504FFF30
00CFFDF4001FFF70
02FFFF70000FFF90
07FFFB00001FFF90
0CFFF200003FFF80
1FFF8000007FFF50
5FFE100000BFFF10
8FFA000002FFFA00
AFF500000AFFF200
BFF200005FFF6000
9FF20004FFF90000
5FF8129FFFA00000
0AFFFFFFE6000000
007CFEC710000000
ENDCHAR
STARTCHAR c
ENCODING 99
SWIDTH 465 0
DWIDTH 15 0
BBX 14 16 1 0
BITMAP
00000039DFEA20
00001BFFFCEFE1
0003EFFB105FF7
002EFFA0006FF9
00CFFD1000BFF8
07FFF40007FFF4
0EFFC0002FFFC0
5FFF50000CFD20
AFFF1000002000
DFFC0000000000
EFFA0000000000
DFF90000003000
BFFC000005F300
5FFF50029FD000
0AFFFDDFFC2000
006BEFEA500000
ENDCHAR
STARTCHAR d
ENCODING 100
SWIDTH 557 0
DWIDTH 18 0
BBX 20 26 1 0
BITMAP
00000000000000002CE6
0000000000000000BFF9
0000000000000004FFF3
000000000000000AFFB0
000000000000001FFF60
000000000000007FFE10
00000000000000CFF900
00000000000002FFF400
00000000000007FFD000
0000000000000CFF8000
00000017CFE92FFF3000
000004DFFDDFEFFD0000
00006FFE500AFFF80000
0006FFE20005FFF30000
002EFF500008FFD00000
00CFFA00000CFF900000
07FFF200002FFF400000
0DFFA000008FFE000000
4FFF600001EFFB000000
7FFF100007FFF6000000
9FFE00001EFFF3000000
AFFD0000AEFFF0000000
9FFD0007F7FFE0040000
5FFF207F90FFFEEE0000
0DFFEEF900AFFFF80000
019EEB40001AFD600000
ENDCHAR
STARTCHAR e
ENCODING 101
SWIDTH 471 0
DWIDTH 15 0
BBX 14 16 1 0
BITMAP
00000029DFEA10
000008FFEDFFD0
0000AFFA10AFF6
000BFFB0008FF9
007FFE1000BFF8
03FFF80004FFF5
0AFFF1002EFFD0
2FFFA004EFFE30
6FFF75BFFFC300
9FFFFFFFB50000
BFFE7641000000
AFFC0000000000
7FFE000001B900
2FFF80016EFA00
05FFFDCFFFC200
003AEFED940000
ENDCHAR
STARTCHAR f
ENCODING 102
SWIDTH 393 0
DWIDTH 13 0
BBX 19 31 -1 -4
BITMAP
0000000000017AB93000
00000000003DFFFFF500
0000000001EFF51DFE00
000000000AFF800BFF20
000000002FFF101EFF20
000000008FFA01BFFE00
00000000DFF506FFF700
00000004FFF101CFA000
00000008FFB000000000
0000000CFF7000000000
0000002FFF2000000000
0000006FFD0000000000
000000AFFECDC7000000
00016CFFFFFFFF700000
002DFFFFFFFFFF700000
003EDEFFB21000000000
00000EFF600000000000
00003FFF200000000000
00008FFD000000000000
0000CFF8000000000000
0002FFF4000000000000
0006FFE0000000000000
000BFFA0000000000000
001FFF60000000000000
006FFF10000000000000
00CFFB00000000000000
02FFF500000000000000
09FFE000000000000000
1EFF8000000000000000
7FFE1000000000000000
6ED40000000000000000
ENDCHAR
STARTCHAR g
ENCODING 103
SWIDTH 526 0
DWIDTH 17 0
BBX 16 25 1 -9
BITMAP
00000029DFD70020
000008FFFDFF6AFB
0001BFFB202DFFFD
000BFFB00005FFF7
008FFE100008FFF2
03FFF700000DFFB0
0BFFE100003FFF60
2FFF900000AFFF20
7FFF400002FFFC00
AFFF100009FFF700
CFFC00003FFFF300
CFFB0000CFFFD000
AFFB0009FFFF8000
6FFE109FBEFF4000
0DFFEEFA4FFD0000
02AEEB508FF80000
00000000EFF20000
00000006FFA00000
0000000DFF300000
0000008FF9000000
000004FFE1000000
00004EFF40000000
0018FFF600000000
09EFFE5000000000
07DD810000000000
ENDCHAR
STARTCHAR h
ENCODING 104
SWIDTH 555 0
DWIDTH 18 0
BBX 17 26 0 0
BITMAP
00000003ED30000000
00000008FFB0000000
0000000BFFB0000000
0000000EFF90000000
0000002FFF60000000
0000005FFF20000000
0000009FFD00000000
000000CFF800000000
000002FFF300000000
000006FFD000000000
00000AFF8004BED600
00000EFF306FFFFF30
00004FFC05FFFFFF70
00009FF73EF51FFF50
0000EFF2DF403FFF20
0004FFABF500AFFC00
000AFFCF7002FFF500
001EFFFA0009FFD000
006FFFD1002FFF6000
00CFFE20008FFE0000
04FFF60000DFF80000
0BFFD00002FFF40000
3FFF600004FFF30400
AFFD000003FFFEEE00
EFF6000000DFFFF800
5DC00000003CFD6000
ENDCHAR
STARTCHAR i
ENCODING 105
SWIDTH 286 0
DWIDTH 9 0
BBX 11 24 0 0
BITMAP
0000007EE900
000005FFFF40
000006FFFF30
000002EFFB00
000000397000
000000000000
000000000000
000000000000
0002BEEA0000
0006FFFF1000
0000BFFE0000
0000BFF90000
0001EFF40000
0006FFC00000
000CFF500000
003FFD000000
00AFF7000000
01FFE1000000
07FF90000000
0CFF40000000
0FFF40000000
1FFFFFA00000
0DFFFF600000
03CFD7000000
ENDCHAR
STARTCHAR j
ENCODING 106
SWIDTH 281 0
DWIDTH 9 0
BBX 16 33 -6 -9
BITMAP
000000000006EFA1
00000000003FFFF6
00000000004FFFF5
00000000001DFFC0
0000000000028710
0000000000000000
0000000000000000
0000000000000000
0000000005DFE600
000000000CFFFB00
0000000002FFFA00
0000000000FFF900
0000000001FFF600
0000000003FFF400
0000000006FFF100
0000000009FFC000
000000000DFF8000
000000002FFF4000
000000007FFE0000
00000000CFF90000
00000001FFF40000
00000006FFE00000
0000000CFF700000
0000004FFF100000
000000BFF9000000
000002FFF2000000
00000AFF80000000
00003FFD10000000
0000CFF400000000
0009FF8000000000
008FF90000000000
3CFF800000000000
5EB4000000000000
ENDCHAR
STARTCHAR k
ENCODING 107
SWIDTH 497 0
DWIDTH 16 0
BBX 17 26 0 0
BITMAP
00000003EC20000000
00000008FF90000000
0000000BFF90000000
0000000EFF70000000
0000002FFF40000000
0000005FFF00000000
0000009FFB00000000
000000CFF700000000
000002FFF200000000
000006FFC000000000
00000AFF7002CFD500
00000EFF2002DFFF10
00004FFC00009FFF10
00009FF60001EFFD00
0000EFF1002CFFF400
0004FFA005EFFE5000
000AFF53BFFFA20000
001EFFCFFE92000000
006FFFFFE100000000
00CFFCFFF300000000
04FFF3CFFA00000000
0BFFB06FFF50000000
3FFF400DFFE4002000
AFFC0005FFFFCDE000
EFF500008FFFFF7000
6EA0000006DFC50000
ENDCHAR
STARTCHAR l
ENCODING 108
SWIDTH 279 0
DWIDTH 9 0
BBX 10 26 1 0
BITMAP
000000BE80
000002FFF3
000004FFF3
000006FFF1
00000AFFC0
00000DFF80
00002FFF40
00006FFE00
0000AFF900
0000EFF400
0004FFE000
0009FF8000
000EFF3000
004FFD0000
009FF80000
00EFF20000
05FFC00000
0AFF700000
0EFF300000
4FFD000000
9FF9000000
CFF6000000
EFF6051000
DFFFEF1000
8FFFF90000
19EE700000
ENDCHAR
STARTCHAR m
ENCODING 109
SWIDTH 814 0
DWIDTH 26 0
BBX 25 16 0 0
BITMAP
0002BFD40002AED400008EE800
0006FFFE004EFFFE001CFFFF80
0000CFFD03EFFFFF20CFFFFFC0
0000BFFA2EFA18FF0AFA1BFFB0
0000EFF5CF900AFB7FA00DFF70
0004FFD9F9001FF9FC105FFF20
0009FFCFA0007FFEE200DFFA00
001EFFFC1001EFFF4005FFF200
006FFFD10007FFF8000CFFA000
00CFFF30000EFFC0003FFF3000
03FFF700006FFF30009FFC0000
0AFFD00000DFFA0000CFF70000
2FFF600005FFF30000EFF60210
9FFE00000BFFB00000DFFECF20
EFF700000EFF4000008FFFFB00
5DC1000006EB00000019EE8000
ENDCHAR
STARTCHAR n
ENCODING 110
SWIDTH 561 0
DWIDTH 18 0
BBX 17 16 0 0
BITMAP
0002BFD40002AED700
0006FFFD005FFFFF50
0000CFFC04FFFFFFA0
0000BFF93EF60DFF90
0000EFF5DF601EFF60
0004FFDAF7007FFE10
0009FFCF9001EFF800
001EFFFB0006FFF200
006FFFD1000DFF9000
00CFFF30004FFF2000
03FFF700009FFB0000
0AFFD00000DFF60000
2FFF600001FFF40310
9FFE000000FFFEEF30
EFF7000000AFFFFB00
5DC10000001AEE8000
ENDCHAR
STARTCHAR o
ENCODING 111
SWIDTH 514 0
DWIDTH 16 0
BBX 15 16 1 0
BITMAP
0000004ADFD92000
00002BFFFDFFE300
0002DFFC207FFB00
001DFFC1003FFF20
00AFFF20003FFF40
05FFF800004FFF50
0DFFE100007FFF30
4FFF800000BFFF10
8FFF300001FFFB00
BFFD000008FFF500
CFFA00001EFFD000
CFF90000AFFF4000
AFF90005FFF80000
5FFD006FFF900000
0AFFDDFFE7000000
006CEFC820000000
ENDCHAR
STARTCHAR p
ENCODING 112
SWIDTH 550 0
DWIDTH 18 0
BBX 20 25 -3 -9
BITMAP
0000019EE80028DED700
000003FFFF25EFDFFF70
0000006FFF6FE405FFE1
0000005FFFFE3001FFF4
0000008FFFF50001FFF6
000000BFFF900002FFF6
000000EFFE100005FFF4
000004FFF6000009FFF1
000007FFE000000EFFB0
00000BFF8000006FFF40
00001FFF400001EFFB00
00005FFF10000AFFE100
00009FFF20008FFF4000
0000DFFF913AFFE50000
0002FFEDFFFFFC300000
0006FFA2BEEB60000000
000BFF50000000000000
001FFF10000000000000
005FFC00000000000000
00AFF700000000000000
01FFF300000000000000
06FFD000000000000000
0DFF7000000000000000
2FFF1000000000000000
0AE60000000000000000
ENDCHAR
STARTCHAR q
ENCODING 113
SWIDTH 533 0
DWIDTH 17 0
BBX 17 25 1 -9
BITMAP
00000017CFD8000000
000005EFFDDF97EB10
00008FFD400CFFFF40
0008FFD20007FFFE00
005FFF400009FFF800
01EFF900000DFFF200
09FFE100003FFFA000
1EFF9000009FFF4000
5FFF500001FFFC0000
8FFF100008FFF60000
AFFD00002FFFE10000
AFFC0000CFFF900000
8FFC0008FDFF300000
4FFE108FBBFD000000
0CFFEEFA3FF8000000
019EEB509FF3000000
00000001EFD0000000
00000005FF90000000
0000000AFF50000000
0000000EFF10000000
0000003FFE00000000
0000004FFC00000000
0000004FFD00000000
0000001EFE00000000
00000005DD10000000
ENDCHAR
STARTCHAR r
ENCODING 114
SWIDTH 407 0
DWIDTH 13 0
BBX 15 16 0 0
BITMAP
0006DFA1001BEB00
000CFFF701DFFF50
0002FFF70CFFFF60
0000FFF58FFFFF30
0002FFF3FD43C900
0006FFBAE2000000
000AFF9F40000000
000EFFE900000000
005FFFD100000000
00AFFF4000000000
01FFFB0000000000
07FFF40000000000
0DFFB00000000000
4FFF400000000000
7FFD000000000000
1AE6000000000000
ENDCHAR
STARTCHAR s
ENCODING 115
SWIDTH 423 0
DWIDTH 14 0
BBX 14 16 0 0
BITMAP
0000029DFEC810
00005EFECEFFD1
0003FFC102EFF7
000BFF7000AFF7
000DFF8000BFE2
000CFFD1004820
0008FFF8000000
0002FFFF500000
00008FFFE10000
00000CFFF90000
000002EFFE0000
0AE1007FFF2000
7FF4003FFE0000
8FFC109FF80000
2EFFFFFF900000
029DFEA4000000
ENDCHAR
STARTCHAR t
ENCODING 116
SWIDTH 358 0
DWIDTH 11 0
BBX 12 21 2 0
BITMAP
000000561000
000005FF9000
00000DFF8000
00007FFF2000
0000DFF90000
09FFFFFFFFF4
07AFFFDBA840
004FFF200000
009FFC000000
00EFF6000000
04FFF1000000
08FFC0000000
0CFF70000000
1FFF30000000
4FFE00000000
6FFB00000000
8FF900012000
8FFA004D9000
6FFFCDFF3000
1EFFFFF60000
03BED9200000
ENDCHAR
STARTCHAR u
ENCODING 117
SWIDTH 553 0
DWIDTH 18 0
BBX 18 16 0 0
BITMAP
0001AEE70000006EC3
0005FFFF200002EFF6
00009FFF10000AFFD0
0000AFFC00004FFF70
0001EFF70000DFFE10
0006FFF20007FFF700
000DFFB0001EFFE100
004FFF4000AFFF9000
00BFFC0006FFFF3000
03FFF6003EDEFC0000
09FFD001DE6FF70000
0EFF701CF68FF50000
2FFF42CF80CFF50300
3FFFEFFA00DFFEEF00
1EFFFF9000AFFFF900
04CFC500001BFD7000
ENDCHAR
STARTCHAR v
ENCODING 118
SWIDTH 510 0
DWIDTH 16 0
BBX 15 16 1 0
BITMAP
001AEE80002BEC10
004FFFF2006FFF90
0008FFF2000DFFD0
000AFFD00009FFE0
000EFF800008FFD0
005FFF200008FFA0
00BFFA00000BFF60
03FFF300001FFE10
0AFFC000006FF800
1FFF500001EFE100
7FFD000009FF4000
CFF800007FF70000
EFF70008FF800000
FFFC67DFF6000000
AFFFFFFB20000000
1AEED93000000000
ENDCHAR
STARTCHAR w
ENCODING 119
SWIDTH 750 0
DWIDTH 24 0
BBX 23 16 1 0
BITMAP
005DFD5000000000006DE800
00CFFFE000007A9100AFFF40
001CFFE00005FFF2003FFF70
0008FFB0000DFFC0000EFF80
000CFF60006FFF40000CFF70
002FFF1001EFFC00000BFF50
007FFA0008FFF500000DFF10
00DFF4004FFFE000001FFB00
04FFD001DFFF9000006FF400
09FF700AFEFF400000DFB000
1EFF207F9CFF200006FE2000
6FFB05FC1DFF10003EF60000
AFF77FD20DFF4003DF900000
DFFEFD200AFFD79FF9000000
CFFFC10004FFFFFF60000000
4ED70000006DFD9200000000
ENDCHAR
STARTCHAR x
ENCODING 120
SWIDTH 467 0
DWIDTH 15 0
BBX 18 16 -1 0
BITMAP
000002BE100005CFC3
00001DFF10009FFFA2
00006FFF101BFFD300
00007FFF20BFFB1000
00006FFF38FF900000
00004FFF8FF9000000
00001FFFFF90000000
00000BFFFB00000000
000006FFF300000000
000009FFF800000000
00006FFFFD00000000
0004FFAFFF40000000
005FFA0DFFD1031000
06FFC105FFFFEF3000
7FFD1000AFFFFB0000
6EA1000009ED810000
ENDCHAR
STARTCHAR y
ENCODING 121
SWIDTH 549 0
DWIDTH 18 0
BBX 18 25 0 -9
BITMAP
00019EE90000004ED4
0003EFFF400001DFF8
00007FFF300007FFF2
00008FFE00002EFFC0
0000DFFA00009FFF70
0004FFF40003FFFF20
000AFFD0000BFFFB00
002FFF60005FFFF600
009FFE1002EFFFF100
01EFF8000CFDFFA000
06FFE1009F8DFF5000
0CFF9008FB3FFE0000
0FFF61AFD18FF80000
1FFFEEFE20DFF20000
0CFFFFD204FFB00000
02CFD7100AFF400000
000000002FFC000000
00000000AFF4000000
00000005FFA0000000
0000002EFE20000000
000001DFF500000000
00002DFF8000000000
0017EFF90000000000
00EFFE700000000000
003861000000000000
ENDCHAR
STARTCHAR z
ENCODING 122
SWIDTH 430 0
DWIDTH 14 0
BBX 15 16 0 0
BITMAP
0002EA620015CD20
0003FFFFFFFFFF90
00009FFFFD9FFF80
0000013202CFFE10
000000003EFFE300
00000005EFFE3000
0000007FFFD20000
000009FFFB100000
0000AFFF90000000
000AFFF600000000
009FFF5000000000
06FFF40000000000
2FFF614676100000
AFFFCFFFFFE20000
CFFFFFDEFFF90000
2CD8300027D90000
ENDCHAR
STARTCHAR braceleft
ENCODING 123
SWIDTH 424 0
DWIDTH 14 0
BBX 17 34 1 -5
BITMAP
0000000000018BBA40
00000000001DFFFF60
0000000000AFFE4000
0000000003FFF50000
0000000008FFD00000
000000000DFF800000
000000002FFF300000
000000006FFE000000
00000000AFFA000000
00000000EFF6000000
00000004FFF2000000
0000000AFFC0000000
0000002FFF60000000
000000BFFD00000000
00001AFFF400000000
004CFFFF7000000000
00CFFEB40000000000
005EFA000000000000
0007FF700000000000
0005FFC00000000000
0005FFD00000000000
0008FFB00000000000
000CFF800000000000
002FFF300000000000
008FFD000000000000
00DFF7000000000000
04FFF2000000000000
09FFB0000000000000
0EFF70000000000000
2FFF30000000000000
5FFF10000000000000
5FFF20000000000000
2FFFEA000000000000
05CFEA000000000000
ENDCHAR
STARTCHAR bar
ENCODING 124
SWIDTH 306 0
DWIDTH 10 0
BBX 3 34 4 -5
BITMAP
3D90
CFD0
FFD0
FFD0
FFD0
FFD0
FFD0
FFD0
FFD0
FFD0
FFD0
FFD0
FFD0
FFD0
FFD0
FFD0
FFD0
FFD0
FFD0
FFD0
FFD0
FFD0
FFD0
FFD0
FFD0
FFD0
FFD0
FFD0
FFD0
FFD0
FFD0
FFD0
FFA0
CC20
ENDCHAR
STARTCHAR braceright
ENCODING 125
SWIDTH 424 0
DWIDTH 14 0
BBX 16 34 -2 -5
BITMAP
00000000002ABB70
00000000005FFFF8
000000000000AFFD
0000000000007FFE
0000000000009FFB
000000000000CFF8
000000000002FFF3
000000000007FFD0
00000000000DFF80
00000000004FFF20
00000000009FFB00
0000000000EFF600
0000000002FFF200
0000000004FFE000
0000000003FFD000
0000000000EFF100
00000000004DFB20
0000000007DFFF60
00000001CFFFEA10
0000000AFFF60000
0000005FFF600000
000000CFFB000000
000003FFF4000000
000008FFD0000000
00000CFF80000000
00001FFF40000000
00005FFE00000000
00009FFB00000000
0000DFF700000000
0003FFF200000000
000AFFC000000000
005FFF5000000000
9CFFFA0000000000
BEFE800000000000
ENDCHAR
STARTCHAR asciitilde
ENCODING 126
SWIDTH 624 0
DWIDTH 20 0
BBX 18 7 2 8
BITMAP
00029CD920000001C2
005EFFFFE4000008F4
05FFFFFFFE30003FE1
2FF812CFFFE303DF70
9F90001DFFFFEFFB00
EE100002EFFFFFA100
C600000019EFC50000
ENDCHAR
STARTCHAR nonbreakingspace
ENCODING 160
SWIDTH 293 0
DWIDTH 9 0
BBX 1 1 0 0
BITMAP
00
ENDCHAR
STARTCHAR exclamdown
ENCODING 161
SWIDTH 417 0
DWIDTH 13 0
BBX 13 26 0 -7
BITMAP
000000009ED400
00000007FFFE10
0000000CFFFF30
0000000BFFFF10
00000002BEE600
00000000000000
00000002200000
0000003EA00000
000001EF600000
00000AFE100000
00003FFA000000
0000BFF4000000
0004FFE0000000
000BFFA0000000
002FFF50000000
008FFF10000000
00EFFC00000000
04FFF800000000
08FFF400000000
0CFFF100000000
0EFFD000000000
1FFFA000000000
1FFF8000000000
0DFF6000000000
04FF4000000000
00360000000000
ENDCHAR
STARTCHAR cent
ENCODING 162
SWIDTH 487 0
DWIDTH 16 0
BBX 14 24 2 0
BITMAP
00000000002CF5
0000000001DFE2
0000000006FF70
000000000DFD00
000000048FF600
000005DFFFFB10
0000AFFFECFFA0
000BFFF910AFF1
008FFF9000BFF3
03FFFC0002EFF2
0AFFF3001BFFD0
1FFFC0005FFF60
5FFF60000AE800
7FFF2000000000
8FFF1000000000
8FFF0000000000
6FFF200003B200
1EFFA0017EF400
04FFFECEFF7000
002DFFEC820000
000DF700000000
003FF100000000
006FB000000000
005E5000000000
ENDCHAR
STARTCHAR sterling
ENCODING 163
SWIDTH 665 0
DWIDTH 21 0
BBX 23 24 -1 0
BITMAP
00000000000000029DFE9100
000000000000006FFFDEFC00
00000000000006FFF403FF40
0000000000003FFF6000DF80
000000000000CFFC0000EF90
000000000006FFF40006FF80
00000000001EFFC0002EFF50
00000000006FFF5002DFFD00
0000000000DFFE004EFFF600
0000000004FFF900EFFFA000
000000000AFFF3007FFA1000
000000001FFFC00002300000
0000027BEFFFFFEA20000000
00000DFFFFFECCDE80000000
00000344FFF8000000000000
00000006FFF3000000000000
0000000BFFD0000000000000
0000001FFF80000000000000
018DFECFFF20000000000000
1CFECEFFFE60000000020000
8FB006FFFFFD831014BE0000
BF803EFF69FFFFFFFFFF1000
7FFCFFF7004DFFFFFFF80000
07DFD93000005ADFEC500000
ENDCHAR
STARTCHAR currency
ENCODING 164
SWIDTH 572 0
DWIDTH 18 0
BBX 19 21 1 1
BITMAP
00000017100000000000
000000BF600000016600
000002FF8000003EFF40
000003FFA00003EFF700
000001FFECEEADFF5000
000000CFFFDEFFF40000
000007FFE403FFD00000
00006FFF5000EFF40000
0002FFF80000EFF60000
000AFFE10001FFF60000
002FFF800005FFF40000
006FFF20000AFFF10000
008FFE00002FFF900000
008FFC0000AFFE200000
006FFB0006FFF6000000
002FFE106FFF70000000
006FFFEDFFFF30000000
03FF8BEEC8BF80000000
0CF70000004FD0000000
1EA00000000BF2000000
01000000000260000000
ENDCHAR
STARTCHAR yen
ENCODING 165
SWIDTH 583 0
DWIDTH 19 0
BBX 22 24 1 0
BITMAP
018EE7000000000001AED5
0BFFFF80000000003DFFF9
2DAFFFF300000003EFFFA0
0004FFF90000002DFFF900
00008FFE000000CFFF9000
00001EFF400008FFF90000
000008FF90004FFFA00000
000002FFC000DFFC100000
000000AFF107FFE2000000
0000005FF32EFF50000000
0000001FF59FF900000000
0000000CFAFFE100000000
0000000AFFFF6000000000
00002339FFFD3320000000
000AFFFFFFFFFF70000000
000ADEFFFFFEB600000000
0000000DFF700000000000
0000002FFF100000000000
008FFFFFFFFFF700000000
01EFFFFFFFFFA100000000
000234FFF4200000000000
000005FFB0000000000000
000008FF60000000000000
000007FC10000000000000
ENDCHAR
STARTCHAR brokenbar
ENCODING 166
SWIDTH 292 0
DWIDTH 9 0
BBX 4 34 3 -5
BITMAP
08E3
4FF6
7FF6
7FF6
7FF6
7FF6
7FF6
7FF6
7FF6
7FF6
7FF6
7FF6
7FF6
7FF3
4E70
0000
0000
0000
0000
08E3
4FF6
7FF6
7FF6
7FF6
7FF6
7FF6
7FF6
7FF6
7FF6
7FF6
7FF6
7FF6
7FF3
4E70
ENDCHAR
STARTCHAR section
ENCODING 167
SWIDTH 583 0
DWIDTH 19 0
BBX 20 33 0 -7
BITMAP
0000000000059BB94000
0000000002CFFFFFFA00
000000002EFFA216FF80
00000000BFFC0000AFE1
00000003FFF500009FF4
00000007FFF20001DFF4
00000009FFF1001BFFF2
00000009FFF301CFFFB0
00000007FFF805FFFE20
00000003FFFE009DA200
00000000DFFF60000000
00000028DFFFD0000000
000007FFFFFFF6000000
00008FFD35FFFD000000
0004FFF200CFFF600000
000BFFA0004FFFD00000
000EFF80000BFFF30000
000FFFA00005FFF80000
000EFFD00000EFFA0000
000BFFF50000BFFB0000
0006FFFD0000CFF80000
0001EFFF7002FFE20000
00006FFFE56DFF500000
00000CFFFFFFD4000000
000002FFFFA500000000
0000007FFF6000000000
0394001EFFA000000000
3FF70008FFB000000000
AFF60006FFA000000000
CFF80008FF5000000000
BFFD102EFC0000000000
3EFFECFFC10000000000
029DFEB6000000000000
ENDCHAR
STARTCHAR dieresis
ENCODING 168
SWIDTH 412 0
DWIDTH 13 0
BBX 13 5 1 19
BITMAP
1AFE60008EE800
9FFFF006FFFF30
AFFFE007FFFF20
5FFF7002FFFA00
05950000396000
ENDCHAR
STARTCHAR copyright
ENCODING 169
SWIDTH 871 0
DWIDTH 28 0
BBX 25 24 2 0
BITMAP
00000000016ADEFEC840000000
000000029FFFFFFFFFFC400000
0000006EFFE953346BFFF70000
000009FFE6000000004DFF7000
00009FFB10028DFE9102DFF300
0007FFA0006EFFDDFC003FFB00
003FFC0008FFE500DF400AFF20
00CFF2005FFF4000DF6005FF60
04FF8001EFF70005FF5002FF90
0AFF1008FFD0004EFF2000FFA0
1FFB000EFF7006FFF90000FFA0
4FF7003FFF2008FFC10001FF90
6FF4006FFD000077100004FF60
7FF3007FFB000000000008FF30
8FF3007FFB00000000000DFD00
6FF4004FFE00001810005FF700
4FF8000CFF9116DF2001DFE100
0EFD0002DFFFFFF7000AFF6000
09FF600006ABB820008FFA0000
01EFE3000000000019FFC10000
005FFE5000000005DFFB100000
0005EFFC743358DFFF80000000
00003BFFFFFFFFFFB300000000
00000038CDFEDB720000000000
ENDCHAR
STARTCHAR ordfeminine
ENCODING 170
SWIDTH 564 0
DWIDTH 18 0
BBX 15 14 3 9
BITMAP
0000006CED70AE80
00002CFFDEFCFFB0
0003EFE601EFFF30
001EFF4000CFFB00
00BFF70002FFF300
05FFD00008FFB000
0CFF60001EFF5000
2FFF10009FFD0000
5FFC0003FFF80000
7FFB001DFFF50000
6FFC02CFAFF60200
3FFFEFFB5FFFEF00
0BFFFFD12FFFF900
019EE91006EE8000
ENDCHAR
STARTCHAR guillemotleft
ENCODING 171
SWIDTH 662 0
DWIDTH 21 0
BBX 18 13 2 3
BITMAP
000000019A0000019A
0000006EF700006EF7
00003CFF90003CFF80
0019FFE50019FFE500
06EFFD3006EFFD2000
7FFFA1008FFFA10000
BFFD0000BFFC000000
2EFF90003EFF900000
03EFF80003EFF80000
003EFF70004EFF6000
0004EFF60004FFF500
00004FFE00004FFE00
000003730000037300
ENDCHAR
STARTCHAR logicalnot
ENCODING 172
SWIDTH 729 0
DWIDTH 23 0
BBX 19 10 2 2
BITMAP
19CCCCCCCCCCCCCCCB20
6FFFFFFFFFFFFFFFFF70
0000000000000004FF70
0000000000000005FF60
0000000000000006FF60
0000000000000007FF50
0000000000000008FF40
0000000000000009FF40
000000000000000AFF20
0000000000000007E800
ENDCHAR
STARTCHAR uni00AD
ENCODING 173
SWIDTH 833 0
DWIDTH 27 0
BBX 1 1 0 0
BITMAP
00
ENDCHAR
STARTCHAR registered
ENCODING 174
SWIDTH 742 0
DWIDTH 24 0
BBX 20 20 3 4
BITMAP
000000049CEFEB720000
000003CFFFDCDFFF8000
00007FFB5100017EFA00
0009FE5014541003EF80
007FE32AFFFFF9104FF2
03FF40EFE868FF800CF7
0BF900675500AFC007FB
3FE10007F900BFB005FD
8FA0000EF405FF5004FE
CF60004FF9CFF70005FD
EF40009FFFFB400008FA
FF3000DF9BF800000DF6
FF4004FF34FF20004FF1
DF700AFB00CFC201DF90
9FC02FD1004FFC09FE20
3FF514100002408FF600
0AFE400000001AFF8000
01CFFA410149EFF70000
0019FFFFFFFFFB300000
000028CEFEC930000000
ENDCHAR
STARTCHAR macron
ENCODING 175
SWIDTH 392 0
DWIDTH 13 0
BBX 12 3 2 18
BITMAP
09DDDDDDDDC3
8FFFFFFFFFF2
AFFFFFFFFE50
ENDCHAR
STARTCHAR degree
ENCODING 176
SWIDTH 405 0
DWIDTH 13 0
BBX 11 10 3 14
BITMAP
00018DEEB400
004EFFCEFF40
03FFE405FFB0
0CFF5002FFD0
4FFD0004FFC0
6FF90009FF90
7FF7002FFF20
4FFB13DFF700
0BFFFFFF7000
006ABB720000
ENDCHAR
STARTCHAR plusminus
ENCODING 177
SWIDTH 617 0
DWIDTH 20 0
BBX 16 21 2 0
BITMAP
00000008E1000000
0000001FF2000000
0000002FF2000000
0000002FF2000000
0000002FF2000000
0000002FF2000000
0000002FF2000000
3BCCCCCFFCCCCCCA
AFFFFFFFFFFFFFE9
0000002FF2000000
0000002FF2000000
0000002FF2000000
0000002FF2000000
0000002FF2000000
0000002FF2000000
0000000D80000000
0000000000000000
0000000000000000
0000000000000000
3BCCCCCCCCCCCCCA
AFFFFFFFFFFFFFE9
ENDCHAR
STARTCHAR twosuperior
ENCODING 178
SWIDTH 458 0
DWIDTH 15 0
BBX 14 17 2 7
BITMAP
0000029DFEA300
00005EFFCEFF50
0002FFD202EFE0
0009FF6000CFF2
000CFF5000EFF2
000AFFB005FFF1
0003EFA01EFFA0
00001301CFFE20
0000001CFFF500
000002CFFE4000
00003EFFC20000
0005FFF7000000
007FFC30000000
06FFB10026C000
3FFFCFFFFFD000
7FFFFFFFFF8000
1B94358BC80000
ENDCHAR
STARTCHAR threesuperior
ENCODING 179
SWIDTH 430 0
DWIDTH 14 0
BBX 14 17 2 7
BITMAP
0000018DFEB400
00002DFFDFFF50
0000CFD205FFD0
0004FF6001FFF1
0006FF7002FFF1
0003FFC009FFC0
000057107FFF50
0000004BFFF700
00000BFFFD5000
00004FFFF70000
0000145EFF4000
0385000AFF8000
3EFB000BFF8000
8FF6002FFF3000
6FF601BFF80000
1DFD9DFF800000
02AEFDA3000000
ENDCHAR
STARTCHAR acute
ENCODING 180
SWIDTH 322 0
DWIDTH 10 0
BBX 7 8 3 17
BITMAP
00006710
0002FFA0
0008FFE0
001EFFA0
009FFE20
05FFD300
4FFC2000
EC500000
ENDCHAR
STARTCHAR mu
ENCODING 181
SWIDTH 618 0
DWIDTH 20 0
BBX 20 25 -1 -9
BITMAP
00000002DD3000001CE7
0000001DFF800000AFFC
0000008FFE100004FFF5
000002FFF700000CFFD0
00000AFFE100006FFF60
00002FFF800001EFFE00
00009FFE100009FFF700
0001FFF900003FFFF100
0007FFF30000CFFFA000
000DFFD00007FFFF4000
003FFF90004FEFFE0000
009FFF6002EE6FFD0000
00EFFF604EF46FFE0020
03FFFFEDFF604FFFDEB0
08FFFFFFF6001EFFFF40
0CFF6DEB300004DFC400
1FFC0000000000000000
3FFA0000000000000000
7FF70000000000000000
9FF50000000000000000
BFF30000000000000000
DFF10000000000000000
FFE00000000000000000
EFD00000000000000000
7E700000000000000000
ENDCHAR
STARTCHAR paragraph
ENCODING 182
SWIDTH 739 0
DWIDTH 24 0
BBX 28 28 0 -2
BITMAP
00000000000000269BDEFFFFFFF1
0000000000017DFFFFFFFFFFFFC0
00000000018EFFFFFFFFDFFFEA10
000000002DFFFFFFFF710CFF7000
00000002EFFFFFFFF9003FFF4000
0000000DFFFFFFFFF1006FFF1000
0000006FFFFFFFFFB000AFFC0000
000000BFFFFFFFFF7000DFF80000
000000DFFFFFFFFF3002FFF40000
000000EFFFFFFFFE0006FFE00000
000000CFFFFFFFFA000AFFA00000
0000005FFFFFFFF7000EFF500000
0000000AFFFFFFF3002FFF100000
000000009FFFFFE0007FFB000000
00000000039FFFB000BFF6000000
00000000006FFF7001FFF1000000
0000000000AFFF2005FFA0000000
0000000000EFFD000AFF50000000
0000000004FFF8000EFE10000000
0000000008FFF2004FF900000000
000021000DFFB0009FF300000000
005EFF403FFF4000EFD000000000
05FFFD209FFC0005FF6000000000
0DFFD101EFF3000BFE1000000000
1FFF5008FF80002FF80000000000
0EFF406FFB00009FE10000000000
08FFEDFFA00002FF500000000000
006CEEB5000006E5000000000000
ENDCHAR
STARTCHAR periodcentered
ENCODING 183
SWIDTH 353 0
DWIDTH 11 0
BBX 6 5 3 8
BITMAP
05EEB3
1EFFFD
2FFFFD
0CFFF6
029B60
ENDCHAR
STARTCHAR cedilla
ENCODING 184
SWIDTH 301 0
DWIDTH 10 0
BBX 6 8 2 -7
BITMAP
00BC10
004FB0
000DF4
000EF8
007FF7
39FFF4
AFFFA0
2DE910
ENDCHAR
STARTCHAR onesuperior
ENCODING 185
SWIDTH 403 0
DWIDTH 13 0
BBX 9 17 4 7
BITMAP
000006EC30
00008FFFC0
001AFFFFC0
04DFFFFF80
CFFF9FFF40
8A726FFE00
0000BFF800
0002FFF200
0007FFB000
000DFF4000
005FFC0000
00CFF50000
04FFC00000
0CFF300000
5FF7000000
CF90000000
5500000000
ENDCHAR
STARTCHAR ordmasculine
ENCODING 186
SWIDTH 498 0
DWIDTH 16 0
BBX 13 14 3 9
BITMAP
0000029DFD9200
00007FFFDFFE20
0008FFD307FFA0
007FFE2003FFE0
02EFF60003FFF0
0AFFD00005FFF0
1FFF600009FFC0
5FFF10000EFF70
8FFC00006FFF20
9FFA0001DFF800
8FF9000AFFD100
4FFC009FFE2000
0AFFDEFFC20000
007CEEC6000000
ENDCHAR
STARTCHAR guillemotright
ENCODING 187
SWIDTH 665 0
DWIDTH 21 0
BBX 19 13 1 3
BITMAP
003DD500003ED4000000
004FFF40004FFF400000
0006FFF40007FFE40000
00008FFE40008FFE3000
00000AFFE3000AFFE300
000000BFFE1000BFFE10
0000006FFF40007FFF40
000019FFF8001AFFF800
0002CFFC4003DFFC3000
005EFE70006EFE600000
08FFA10008FF91000000
1FC400002FC300000000
16000000150000000000
ENDCHAR
STARTCHAR onequarter
ENCODING 188
SWIDTH 988 0
DWIDTH 32 0
BBX 26 26 3 0
BITMAP
00000000000000000056000000
00000000000000000AFE000000
000002CE700000007FF8000000
00004EFFF2000002EFE1000000
0007FFFFF300000AFF50000000
03BFFFFFE000004FFB00000000
8FFF9CFFA00000DFF300000000
28611FFF400007FF9000000000
00006FFE00001EFE1032000000
0000CFF800009FF600EF800000
0002FFF20003FFC001FFF10000
0009FF90000BFF4005FFF00000
001EFF20005FFA000AFFB00000
007FFA0001DFE2002FFF501EA1
01EFE20007FF70008FFE005FFA
08FF70002EFD0001EFF6009FF9
1EFB0000AFF50009FFD000EFF5
7FC10003FFB0002FFF4004FFE1
1500000CFF20007FFB0009FFB0
0000006FF800003FFFFFFFFFF9
000001EFE1000005EFFFFFFFFF
000008FF600000000111DFF401
00002FFC000000000005FF9000
0000BFF300000000000DFD1000
0004FF9000000000007FE30000
0007E9000000000000AC200000
ENDCHAR
STARTCHAR onehalf
ENCODING 189
SWIDTH 988 0
DWIDTH 32 0
BBX 27 26 3 0
BITMAP
000000000000000004CE00000000
00000000000000002EFC00000000
000002CE70000000BFF500000000
00002DFFF2000005FFA000000000
0003EFFFF200001DFE2000000000
005EFFFFE000008FF80000000000
3BFFFEFF900002FFD10000000000
9FFB3EFF40000AFF500000000000
03104FFD00003FFC000000000000
0000AFF70000CFF3000000000000
0001FFE10005FFA00018DEEC7100
0008FF80001DFE2003EFFDDFFC00
001EFE10007FF7001EFF5009FF60
007FF80001EFD1004FFC0005FF90
01EFD10009FF50003FFE2008FF90
09FF50003FFC000008EC301EFF60
2FF80000BFF30000000000BFFE10
7F800005FF90000000000BFFF400
0000000DFE2000000001BFFE5000
0000007FF7000000003DFFD30000
000001EFD000000005EFF9100000
000009FF500000008FFD30000000
00002FFB00000009FF9100184000
0000BFF30000008FFDBDDDFF5000
0004FF90000000FFFFFFFFFE2000
0007E9000000009FFFFFFFD50000
ENDCHAR
STARTCHAR threequarters
ENCODING 190
SWIDTH 1007 0
DWIDTH 32 0
BBX 29 26 1 0
BITMAP
000000000000000000000273000000
000000000000000000003EF8000000
0000029EFEA300000001DFF2000000
00004EFEDFFF30000008FF80000000
0001EFB107FFB000002FFD10000000
0007FF3004FFE00000BFF500000000
0009FF5006FFD00005FFB000000000
0005FF701DFF80000DFF2000000000
00003302CFFD10007FF80000000000
0000029EFFD20001EFE103C6000000
00003FFFF8100009FF6007FF300000
00006EFFF900003FFC000AFF500000
0000001EFF3000CFF3001EFF100000
1AE7000DFF6005FF90006FFA009810
8FF6001FFF301DFE1000DFF401FF80
BFF2009FFC008FF70006FFB005FF80
7FF617FFD202EFD0001EFF300AFF50
0AFFFFFA100AFF40008FF9001EFE10
00477620004FFB0000DFD1006FF900
0000000000CFF200009FFEEFFFFF40
0000000006FF80000009EFEEFFCB70
000000001EFE10000000000AFE1000
000000008FF500000000002FF60000
00000002FFC00000000000AFB00000
0000000BFF300000000004FD100000
0000000ED5000000000009B2000000
ENDCHAR
STARTCHAR questiondown
ENCODING 191
SWIDTH 516 0
DWIDTH 17 0
BBX 15 24 0 -6
BITMAP
00000000001BEB10
0000000000BFFFA0
0000000002FFFFD0
0000000001FFFFB0
00000000005DFC20
0000000000000000
0000000000270000
0000000001DF2000
0000000009FF2000
000000007FFE0000
00000008FFF60000
000001AFFFB00000
00003DFFFC100000
0007FFFFA1000000
009FFFF600000000
08FFFD3000000000
2FFFC2018B500000
8FFD1009FFE10000
CFF40007FFF30000
DFE00005FFF10000
CFD00008FFC00000
6FF5005FFF300000
0BFFDDFFE5000000
006CFED820000000
ENDCHAR
STARTCHAR Agrave
ENCODING 192
SWIDTH 615 0
DWIDTH 20 0
BBX 24 31 -3 0
BITMAP
000000000000000002BD1000
00000000000000000CFF5000
00000000000000000DFFC000
000000000000000005FFF800
0000000000000000004CFF80
000000000000000000003650
000000000000000000000000
00000000000000000016BEF8
000000000000000007EFFFFB
0000000000000001BFFACFF6
000000000000002DFD32FFF1
00000000000002DFB109FFA0
0000000000001DFB101FFF40
000000000000BFD1008FFD00
000000000008FF3000DFF800
00000000004FF80005FFF200
0000000001DFD0000AFFC000
0000000008FF40001FFF6000
000000003FFD79BBDFFFDC80
00000028DFFFFFFFFFFFFFB0
000006FFFFFFFFFFFFFFEA20
0000068FFC000004FFF30000
0000008FF5000008FFD00000
000002FFC000000CFF900000
00000AFF4000000FFF600000
00004FFC0000002FFF300000
0001DFF30000004FFF100000
000AFF900000005FFF304000
01AFFD100000004FFFEEF300
5EFFE3000000000DFFFFA000
4DEA200000000003CED81000
ENDCHAR
STARTCHAR Aacute
ENCODING 193
SWIDTH 615 0
DWIDTH 20 0
BBX 26 32 -3 0
BITMAP
00000000000000000000000310
00000000000000000000005FE3
0000000000000000000000CFF9
0000000000000000000006FFF5
000000000000000000004FFF70
00000000000000000003EFC400
00000000000000000003740000
00000000000000000000000000
00000000000000000016BEF800
000000000000000007EFFFFB00
0000000000000001BFFACFF600
000000000000002DFD32FFF100
00000000000002DFB109FFA000
0000000000001DFB101FFF4000
000000000000BFD1008FFD0000
000000000008FF3000DFF80000
00000000004FF80005FFF20000
0000000001DFD0000AFFC00000
0000000008FF40001FFF600000
000000003FFD79BBDFFFDC8000
00000028DFFFFFFFFFFFFFB000
000006FFFFFFFFFFFFFFEA2000
0000068FFC000004FFF3000000
0000008FF5000008FFD0000000
000002FFC000000CFF90000000
00000AFF4000000FFF60000000
00004FFC0000002FFF30000000
0001DFF30000004FFF10000000
000AFF900000005FFF30400000
01AFFD100000004FFFEEF30000
5EFFE3000000000DFFFFA00000
4DEA200000000003CED8100000
ENDCHAR
STARTCHAR Acircumflex
ENCODING 194
SWIDTH 615 0
DWIDTH 20 0
BBX 26 32 -3 0
BITMAP
00000000000000000000001000
000000000000000000000AF600
00000000000000000002CFFE00
0000000000000000005EFFFF60
00000000000000004BFFB7FFE1
0000000000000006FFE600BFFA
00000000000000016610000573
00000000000000000000000000
00000000000000000016BEF800
000000000000000007EFFFFB00
0000000000000001BFFACFF600
000000000000002DFD32FFF100
00000000000002DFB109FFA000
0000000000001DFB101FFF4000
000000000000BFD1008FFD0000
000000000008FF3000DFF80000
00000000004FF80005FFF20000
0000000001DFD0000AFFC00000
0000000008FF40001FFF600000
000000003FFD79BBDFFFDC8000
00000028DFFFFFFFFFFFFFB000
000006FFFFFFFFFFFFFFEA2000
0000068FFC000004FFF3000000
0000008FF5000008FFD0000000
000002FFC000000CFF90000000
00000AFF4000000FFF60000000
00004FFC0000002FFF30000000
0001DFF30000004FFF10000000
000AFF900000005FFF30400000
01AFFD100000004FFFEEF30000
5EFFE3000000000DFFFFA00000
4DEA200000000003CED8100000
ENDCHAR
STARTCHAR Atilde
ENCODING 195
SWIDTH 615 0
DWIDTH 20 0
BBX 28 31 -3 0
BITMAP
000000000000000003ADB40002C1
00000000000000006FFFFF602CF2
0000000000000004FFFFFFFEFFA0
000000000000000CF617FFFFFB10
000000000000000C60004CFC6000
0000000000000000000000000000
0000000000000000000000000000
00000000000000000016BEF80000
000000000000000007EFFFFB0000
0000000000000001BFFACFF60000
000000000000002DFD32FFF10000
00000000000002DFB109FFA00000
0000000000001DFB101FFF400000
000000000000BFD1008FFD000000
000000000008FF3000DFF8000000
00000000004FF80005FFF2000000
0000000001DFD0000AFFC0000000
0000000008FF40001FFF60000000
000000003FFD79BBDFFFDC800000
00000028DFFFFFFFFFFFFFB00000
000006FFFFFFFFFFFFFFEA200000
0000068FFC000004FFF300000000
0000008FF5000008FFD000000000
000002FFC000000CFF9000000000
00000AFF4000000FFF6000000000
00004FFC0000002FFF3000000000
0001DFF30000004FFF1000000000
000AFF900000005FFF3040000000
01AFFD100000004FFFEEF3000000
5EFFE3000000000DFFFFA0000000
4DEA200000000003CED810000000
ENDCHAR
STARTCHAR Adieresis
ENCODING 196
SWIDTH 615 0
DWIDTH 20 0
BBX 28 31 -3 0
BITMAP
0000000000000000375000027610
0000000000000006FFFA004FFFD0
000000000000000CFFFD00AFFFF1
000000000000000AFFF9008FFFC0
0000000000000002DFB1001CFD20
0000000000000000010000001000
0000000000000000000000000000
00000000000000000016BEF80000
000000000000000007EFFFFB0000
0000000000000001BFFACFF60000
000000000000002DFD32FFF10000
00000000000002DFB109FFA00000
0000000000001DFB101FFF400000
000000000000BFD1008FFD000000
000000000008FF3000DFF8000000
00000000003FF80005FFF2000000
0000000001DFD0000AFFC0000000
0000000008FF40001FFF60000000
000000003FFD79BBDFFFDC800000
00000028DFFFFFFFFFFFFFB00000
000005EFFFFFFFFFFFFFEA200000
0000068FFC000004FFF300000000
0000008FF5000008FFD000000000
000002EFC000000CFF9000000000
00000AFF4000000FFF6000000000
00004FFC0000002FFF3000000000
0001DFF30000004FFF1000000000
000AFF900000005FFF2020000000
01AFFD100000004FFFDCF3000000
5EFFE3000000000DFFFFB0000000
4DEA200000000003CED810000000
ENDCHAR
STARTCHAR Aring
ENCODING 197
SWIDTH 615 0
DWIDTH 20 0
BBX 26 31 -3 0
BITMAP
00000000000000000005BEEC40
0000000000000000008FFDEFF3
000000000000000006FF904FF8
00000000000000000CFE102FF9
00000000000000000FFB003FF6
00000000000000000EFB008FE1
000000000000000009FE24FE40
0000000000000000008FFFFA00
000000000000000007EFFFFB00
0000000000000001BFFACFF600
000000000000002DFC32FFF100
00000000000002DFB109FFA000
0000000000001DFB101FFF4000
000000000000BFD1008FFD0000
000000000008FF3000EFF80000
00000000004FF80005FFF20000
0000000001DFD0000BFFC00000
0000000008FF40001FFF600000
000000003FFD79BCDFFFDC9000
00000028DFFFFFFFFFFFFFB000
000006FFFFFFFFFFFFFFEA2000
0000068FFC000004FFF3000000
0000008FF5000008FFD0000000
000002FFC000000CFF90000000
00000AFF4000000FFF60000000
00004FFC0000002FFF30000000
0001DFF30000004FFF10000000
000AFF900000005FFF30400000
01AFFD100000004FFFEEF30000
5EFFE3000000000DFFFFA00000
4DEA200000000003CED8100000
ENDCHAR
STARTCHAR AE
ENCODING 198
SWIDTH 878 0
DWIDTH 28 0
BBX 34 24 -3 0
BITMAP
0000000000000000003ADFD849CEFEB700
000000000000000019FFFFFFFFFFECEFC0
0000000000000001CFFFDEFFFFA3001EF5
000000000000001CFFC32DFFF500000EF8
00000000000000BFFB10CFFF5000007FF7
00000000000008FFB107FFF9000006FFF3
0000000000005FFD100EFFD000019FFFB0
000000000001EFF3004FFF70001CFFFE20
00000000000AFF70007FFF20002FFFE300
00000000005FFB00007FFE000004B92000
0000000001EFE200005FFD000000000000
000000000AFF7000000DFF300000000000
000000005FFE8ADEFFFFFFEBEE70000000
00000017EFFFFFFFFFFFFFFFFFE0000000
000003EFFFFFFFFFFFFFFFFFB520000000
000003AFFE10000000BFFFC30000000000
000000CFF600000009FFFA100000000000
000007FFC00000003FFFB0000000000000
00002FFF30000000AFFF20000005300000
0000BFF800000000CFFC0000005FA00000
0007FFD100000000CFFC000006FF900000
006FFF30000000006FFF4003AFFE200000
2BFFF600000000000AFFFDDFFFB2000000
1CFC400000000000005ADFEC9300000000
ENDCHAR
STARTCHAR Ccedilla
ENCODING 199
SWIDTH 533 0
DWIDTH 17 0
BBX 19 31 1 -7
BITMAP
000000000028CEEB4000
000000001AFFFECFF600
00000004EFFC4005FF10
0000005FFF900003FF60
000005FFF9000006FF70
00003EFFB000001DFF60
0000DFFE100000AFFF30
0008FFF5000009FFFC00
002FFFC00001BFFFF300
008FFF400002FFFF6000
00EFFD0000008FE50000
05FFF700000000000000
0AFFF200000000000000
0DFFC000000000000000
1FFF9000000000000000
3FFF7000000000000000
5FFF6000000000000000
5FFF5000000000000000
4FFF6000000000000000
2FFF9000000052000000
0CFFD0000019F9000000
04FFF80005DFF8000000
007FFFDDFFFF91000000
0003DFFEDB7200000000
00002FD0000000000000
00000DF5000000000000
00001FF8000000000000
00009FF7000000000000
004AFFF3000000000000
009FFFA0000000000000
002DE910000000000000
ENDCHAR
STARTCHAR Egrave
ENCODING 200
SWIDTH 509 0
DWIDTH 16 0
BBX 18 31 1 0
BITMAP
00000000008E700000
0000000005FFC00000
0000000006FFF40000
0000000001CFFD2000
000000000018EFD100
000000000000157100
000000000000000000
0000000017BEFEC810
00000007EFFFECEFD1
000001BFFFB4000DF8
00001CFFF700000CFA
0000AFFF6000005FFA
0005FFFA000004EFF6
000CFFE100007FFFD0
002FFF80000BFFFF40
004FFF30000EFFF500
005FFF100003AA3000
002FFF100000000000
000BFF902300000000
0002DFFFFFC0000000
00007FFFFFE1000000
001CFFFF9200000000
01DFFFC20000000000
0AFFFB100000000000
3FFFD1000000000000
9FFF50000003500000
AFFF0000004EC00000
9FFE000004EFC00000
3FFF60029FFE400000
07FFFDDFFFC3000000
0039DEEC9400000000
ENDCHAR
STARTCHAR Eacute
ENCODING 201
SWIDTH 509 0
DWIDTH 16 0
BBX 19 32 1 0
BITMAP
00000000000000013000
000000000000000DF900
000000000000005FFF10
00000000000001DFFC00
0000000000000BFFC200
000000000000AFF81000
00000000000066100000
00000000000000000000
0000000017BEFEC81000
00000007EFFFECEFD100
000001BFFFB4000DF800
00001CFFF700000CFA00
0000AFFF6000005FFA00
0005FFFA000004EFF600
000CFFE100007FFFD000
002FFF80000BFFFF4000
004FFF30000EFFF50000
005FFF100003AA300000
002FFF10000000000000
000BFF90230000000000
0002DFFFFFC000000000
00007FFFFFE100000000
001CFFFF920000000000
01DFFFC2000000000000
0AFFFB10000000000000
3FFFD100000000000000
9FFF5000000350000000
AFFF0000004EC0000000
9FFE000004EFC0000000
3FFF60029FFE40000000
07FFFDDFFFC300000000
0039DEEC940000000000
ENDCHAR
STARTCHAR Ecircumflex
ENCODING 202
SWIDTH 509 0
DWIDTH 16 0
BBX 19 32 1 0
BITMAP
00000000000000100000
00000000000004EC1000
0000000000006FFF7000
00000000001AFFFFD000
0000000017EFE5DFF700
00000000EFFB205FFF20
00000000373000027600
00000000000000000000
0000000017BEFEC81000
00000007EFFFECEFD100
000001BFFFB4000DF800
00001CFFF700000CFA00
0000AFFF6000005FFA00
0005FFFA000004EFF600
000CFFE100007FFFD000
002FFF80000BFFFF4000
004FFF30000EFFF50000
005FFF100003AA300000
002FFF10000000000000
000BFF90230000000000
0002DFFFFFC000000000
00007FFFFFE100000000
001CFFFF920000000000
01DFFFC2000000000000
0AFFFB10000000000000
3FFFD100000000000000
9FFF5000000350000000
AFFF0000004EC0000000
9FFE000004EFC0000000
3FFF60029FFE40000000
07FFFDDFFFC300000000
0039DEEC940000000000
ENDCHAR
STARTCHAR Edieresis
ENCODING 203
SWIDTH 509 0
DWIDTH 16 0
BBX 20 31 1 0
BITMAP
00000000167200005740
00000001DFFF300BFFF5
00000005FFFF502FFFF8
00000003FFFF201FFFF4
000000008FE50006FF80
00000000010000001100
00000000000000000000
0000000017BEFEC81000
00000007EFFFECEFD100
000001BFFFB4000DF800
00001CFFF700000CFA00
0000AFFF6000005FFA00
0005FFFA000004EFF600
000CFFE100007FFFD000
002FFF80000BFFFF4000
004FFF30000EFFF50000
005FFF100003AA300000
002FFF10000000000000
000BFF90230000000000
0002DFFFFFC000000000
00007FFFFFE100000000
001CFFFF920000000000
01DFFFC2000000000000
0AFFFB10000000000000
3FFFD100000000000000
9FFF5000000350000000
AFFF0000004EC0000000
9FFE000004EFC0000000
3FFF60029FFE40000000
07FFFDDFFFC300000000
0039DEEC940000000000
ENDCHAR
STARTCHAR Igrave
ENCODING 204
SWIDTH 327 0
DWIDTH 10 0
BBX 13 31 -1 0
BITMAP
00000001AE2000
0000000AFF7000
0000000BFFE100
00000003EFFA00
000000003BFFA0
00000000003660
00000000000000
000017CEED8100
00008FFFDFFC00
000019A25FFF10
000000007FFF10
00000000AFFE00
00000000DFFC00
00000001FFF800
00000005FFF500
00000009FFF100
0000000DFFC000
0000003FFF7000
0000007FFF3000
000000CFFD0000
000002FFF70000
000008FFF20000
00000DFFB00000
00005FFF400000
0000BFFC000000
0003FFF5000000
000CFFB0000000
006FFE20000000
03EFF600000000
2EFF7000000000
2DD50000000000
ENDCHAR
STARTCHAR Iacute
ENCODING 205
SWIDTH 327 0
DWIDTH 10 0
BBX 16 32 -1 0
BITMAP
0000000000000320
0000000000003FF5
000000000000AFFB
000000000004FFF7
00000000002EFF90
0000000002DFD600
0000000002750000
0000000000000000
000017CEED810000
00008FFFDFFC0000
000019A25FFF1000
000000007FFF1000
00000000AFFE0000
00000000DFFC0000
00000001FFF80000
00000005FFF50000
00000009FFF10000
0000000DFFC00000
0000003FFF700000
0000007FFF300000
000000CFFD000000
000002FFF7000000
000008FFF2000000
00000DFFB0000000
00005FFF40000000
0000BFFC00000000
0003FFF500000000
000CFFB000000000
006FFE2000000000
03EFF60000000000
2EFF700000000000
2DD5000000000000
ENDCHAR
STARTCHAR Icircumflex
ENCODING 206
SWIDTH 327 0
DWIDTH 10 0
BBX 16 32 -1 0
BITMAP
0000000000001000
000000000008F800
0000000001AFFF20
000000004DFFFF80
0000003AFFC6FFF3
000004FFE8009FFC
0000006610000474
0000000000000000
000017CEED810000
00008FFFDFFC0000
000019A25FFF1000
000000007FFF1000
00000000AFFE0000
00000000DFFC0000
00000001FFF80000
00000005FFF50000
00000009FFF10000
0000000DFFC00000
0000003FFF700000
0000007FFF300000
000000CFFD000000
000002FFF7000000
000008FFF2000000
00000DFFB0000000
00005FFF40000000
0000BFFC00000000
0003FFF500000000
000CFFB000000000
006FFE2000000000
03EFF60000000000
2EFF700000000000
2DD5000000000000
ENDCHAR
STARTCHAR Idieresis
ENCODING 207
SWIDTH 327 0
DWIDTH 10 0
BBX 18 31 -1 0
BITMAP
000000376100027720
000005FFFC002EFFE1
00000AFFFF007FFFF3
000008FFFB005FFFE0
000001CFC2000AFD40
000000010000001000
000000000000000000
000017CEED81000000
00008FFFDFFC000000
000019A25FFF100000
000000007FFF100000
00000000AFFE000000
00000000DFFC000000
00000001FFF8000000
00000005FFF5000000
00000009FFF1000000
0000000DFFC0000000
0000003FFF70000000
0000007FFF30000000
000000CFFD00000000
000002FFF700000000
000008FFF200000000
00000DFFB000000000
00005FFF4000000000
0000BFFC0000000000
0003FFF50000000000
000CFFB00000000000
006FFE200000000000
03EFF6000000000000
2EFF70000000000000
2DD500000000000000
ENDCHAR
STARTCHAR Eth
ENCODING 208
SWIDTH 630 0
DWIDTH 20 0
BBX 21 24 0 0
BITMAP
0000148BDEFEDB83000000
0006EFFFFFFFFFFFB30000
000EFFFFA63336DFFF5000
0006FFA100000008FFF300
0000120244000000BFFC00
0000002EFFB000004FFF20
000000BFFF5000001FFF60
000004FFFB0000000EFF70
00000CFFF20000000FFF70
01ABBFFFEBBB90002FFF50
0CFFFFFFFFFFD0005FFF30
1EFFFFFFFFFD30009FFE00
0007FFF400000001EFF900
000DFFD000000008FFF300
003FFF700000002FFFA000
008FFF20000000BFFE2000
00DFFB00000008FFF60000
02FFF70000005FFF900000
05FFF2000006FFFB000000
08FFE000007FFFB0000000
0BFFB0001BFFF900000000
0AFF9018EFFE5000000000
02EFECFFFE810000000000
0019DFEB61000000000000
ENDCHAR
STARTCHAR Ntilde
ENCODING 209
SWIDTH 708 0
DWIDTH 23 0
BBX 26 31 0 0
BITMAP
00000000000000007CC5000086
000000000000001BFFFF5002F8
000000000000009FFFFFE32CF3
00000000000003FC24FFFFFF90
00000000000008F2007FFFFA00
00000000000005700006CB5000
00000000000000000000000000
00000000007DE7000001AEC400
000000001BFFFA000004FFFF30
00000000AFFFF70000009FFF90
00000007FFFFF40000003FFFB0
0000002FF9FFF30000001FFFB0
000000BFD2FFF20000002FFF80
000004FF53FFF20000003FFF40
00000CFC03FFF30000007FFD00
00005FF503FFF3000000BFF700
0000CFE002FFF5000001FFE100
0003FF8002FFF6000007FF8000
0009FF2001FFF800000DFE1000
001EFC0000EFFB00005FF70000
005FF70000BFFD0000CFD00000
00AFF200009FFF2004FF500000
01FFD000006FFF500BFC000000
05FF9000002FFF903FF4000000
09FF5000000CFFD09FB0000000
0DFF20000008FFF4FF30000000
1FFD00000003FFFEFB00000000
4FFA00000000BFFFF400000000
6FF7000000003FFFE000000000
5FF50000000008FFB000000000
0BE200000000008E8000000000
ENDCHAR
STARTCHAR Ograve
ENCODING 210
SWIDTH 655 0
DWIDTH 21 0
BBX 21 31 1 0
BITMAP
00000000000009E5000000
0000000000006FFB000000
0000000000007FFF300000
0000000000001DFFD10000
000000000000019FFC1000
0000000000000002570000
0000000000000000000000
000000000017BEFDB40000
0000000008EFFECEFF9000
00000002CFFE6001BFF600
0000003EFFD200002FFD00
000002EFFE2000000EFF30
00001DFFF30000000DFF60
00009FFF700000000DFF70
0003FFFC000000000FFF60
000BFFF3000000003FFF50
003FFFA0000000006FFF30
00AFFF3000000000BFFE00
01FFFC0000000001FFFB00
05FFF60000000006FFF600
09FFF1000000000DFFE100
0CFFC0000000006FFF8000
0EFF8000000000DFFE2000
0FFF5000000006FFF80000
1FFF400000002EFFC00000
0FFF30000000BFFE300000
0CFF40000009FFF5000000
07FF9000009FFF50000000
01DFF4003BFFE400000000
003DFFDDFFFA2000000000
00018CEED9300000000000
ENDCHAR
STARTCHAR Oacute
ENCODING 211
SWIDTH 655 0
DWIDTH 21 0
BBX 21 32 1 0
BITMAP
0000000000000000002200
000000000000000001EF80
000000000000000007FFE0
00000000000000001EFFA0
0000000000000001CFFB10
000000000000000CFE8000
0000000000000007610000
0000000000000000000000
000000000017BEFDB40000
0000000008EFFECEFF9000
00000002CFFE6001BFF600
0000003EFFD200002FFD00
000002EFFE2000000EFF30
00001DFFF30000000DFF60
00009FFF700000000DFF70
0003FFFC000000000FFF60
000BFFF3000000003FFF50
003FFFA0000000006FFF30
00AFFF3000000000BFFE00
01FFFC0000000001FFFB00
05FFF60000000006FFF600
09FFF1000000000DFFE100
0CFFC0000000006FFF8000
0EFF8000000000DFFE2000
0FFF5000000006FFF80000
1FFF400000002EFFC00000
0FFF30000000BFFE300000
0CFF40000009FFF5000000
07FF9000009FFF50000000
01DFF4003BFFE400000000
003DFFDDFFFA2000000000
00018CEED9300000000000
ENDCHAR
STARTCHAR Ocircumflex
ENCODING 212
SWIDTH 655 0
DWIDTH 21 0
BBX 22 32 1 0
BITMAP
0000000000000000010000
00000000000000005FB000
0000000000000008FFF500
00000000000002BFFFFB00
0000000000028FFE5EFF60
00000000001FFFA106FFE1
0000000000047200003760
0000000000000000000000
000000000017BEFDB40000
0000000008EFFECEFF9000
00000002CFFE6001BFF600
0000003EFFD200002FFD00
000002EFFE2000000EFF30
00001DFFF30000000DFF60
00009FFF700000000DFF70
0003FFFC000000000FFF60
000BFFF3000000003FFF50
003FFFA0000000006FFF30
00AFFF3000000000BFFE00
01FFFC0000000001FFFB00
05FFF60000000006FFF600
09FFF1000000000DFFE100
0CFFC0000000006FFF8000
0EFF8000000000DFFE2000
0FFF5000000006FFF80000
1FFF400000002EFFC00000
0FFF30000000BFFE300000
0CFF40000009FFF5000000
07FF9000009FFF50000000
01DFF4003BFFE400000000
003DFFDDFFFA2000000000
00018CEED9300000000000
ENDCHAR
STARTCHAR Otilde
ENCODING 213
SWIDTH 655 0
DWIDTH 21 0
BBX 23 31 1 0
BITMAP
00000000000018CD80000950
000000000002DFFFFB108F70
00000000001DFFFFFFEEFE10
00000000006FA13DFFFFE300
00000000007B0001AEE91000
000000000000000000000000
000000000000000000000000
000000000017BEFDB4000000
0000000008EFFECEFF900000
00000002CFFE6001BFF60000
0000003EFFD200002FFD0000
000002EFFE2000000EFF3000
00001DFFF30000000DFF6000
00009FFF700000000DFF7000
0003FFFC000000000FFF6000
000BFFF3000000003FFF5000
003FFFA0000000006FFF3000
00AFFF3000000000BFFE0000
01FFFC0000000001FFFB0000
05FFF60000000006FFF60000
09FFF1000000000DFFE10000
0CFFC0000000006FFF800000
0EFF8000000000DFFE200000
0FFF5000000006FFF8000000
1FFF400000002EFFC0000000
0FFF30000000BFFE30000000
0CFF40000009FFF500000000
07FF9000009FFF5000000000
01DFF4003BFFE40000000000
003DFFDDFFFA200000000000
00018CEED930000000000000
ENDCHAR
STARTCHAR Odieresis
ENCODING 214
SWIDTH 655 0
DWIDTH 21 0
BBX 23 31 1 0
BITMAP
000000000001772000167300
00000000002EFFE101DFFF40
00000000007FFFF304FFFF60
00000000005FFFE102FFFF30
00000000000AFE40007FE600
000000000000100000010000
000000000000000000000000
000000000017BEFDB4000000
0000000008EFFECEFF900000
00000002CFFE6001BFF60000
0000003EFFD200002FFD0000
000002EFFE2000000EFF3000
00001DFFF30000000DFF6000
00009FFF700000000DFF7000
0003FFFC000000000FFF6000
000BFFF3000000003FFF5000
003FFFA0000000006FFF3000
00AFFF3000000000BFFE0000
01FFFC0000000001FFFB0000
05FFF60000000006FFF60000
09FFF1000000000DFFE10000
0CFFC0000000006FFF800000
0EFF8000000000DFFE200000
0FFF5000000006FFF8000000
1FFF400000002EFFC0000000
0FFF30000000BFFE30000000
0CFF40000009FFF500000000
07FF9000009FFF5000000000
01DFF4003BFFE40000000000
003DFFDDFFFA200000000000
00018CEED930000000000000
ENDCHAR
STARTCHAR multiply
ENCODING 215
SWIDTH 573 0
DWIDTH 18 0
BBX 14 13 3 5
BITMAP
7E900000001AE6
5FFA000001BFF4
07FF90000BFF50
008FF700BFF500
0009FF6BFF6000
0000AFFFF60000
00001EFF900000
0000AFFFE30000
000AFF8DFE2000
009FF702DFD200
09FF70002EFD10
8FF8000003EFC0
9E700000004DD1
ENDCHAR
STARTCHAR Oslash
ENCODING 216
SWIDTH 655 0
DWIDTH 21 0
BBX 22 30 2 -3
BITMAP
000000000000000001BEC1
00000000000000000CFFC1
00000000000000008FFD10
000000000017BDFEFFE300
0000000007EFFECFFFC000
00000002CFFE605FFFF800
0000002DFFD200DFAFFE10
000002EFFE2007FD1EFF40
00000CFFF3001EF40DFF60
00008FFF70009FA00EFF70
0003FFFC0003FE100FFF60
000BFFF3000CF6003FFF50
003FFFA0005FB0006FFF30
009FFF3001DF2000BFFE00
00EFFC0008F70001FFFA00
04FFF6002FC00006FFF600
08FFF100AF40000DFFE100
0CFFC004FA00006FFF8000
0EFF800CF20000DFFE1000
1FFF606F800006FFF70000
1FFF41EE10002EFFC00000
0FFF3AF60000BFFE200000
0DFF9FD00009FFF4000000
09FFFF50009FFF50000000
02EFFC003BFFE400000000
008FFFDDFFFA1000000000
01EFCCEED9300000000000
08FD100000000000000000
0EF5000000000000000000
0450000000000000000000
ENDCHAR
STARTCHAR Ugrave
ENCODING 217
SWIDTH 624 0
DWIDTH 20 0
BBX 23 31 0 0
BITMAP
0000000000007E8000000000
000000000004FFD000000000
000000000005FFF600000000
000000000000BFFE20000000
00000000000008EFE2000000
000000000000001571000000
000000000000000000000000
0000007DFC300000000AE800
000001EFFFB00000005FFF10
0000002FFFB0000000CFFB00
0000001FFF70000006FFF400
0000005FFF2000000DFFC000
000000BFFC0000006FFF6000
000003FFF6000001EFFE1000
000009FFE1000007FFF90000
00001FFF8000001EFFF40000
00007FFF1000008FFFD00000
0000EFF9000002FFFF800000
0006FFF200000AFFFF300000
000CFFA000003FFFFD000000
004FFF300000CFFFF8000000
00AFFB000006FEFFF3000000
01FFF500001EF8FFE0000000
06FFE00000AF98FFA0000000
0BFF900005FD1CFF60000000
1FFF40003EF30FFF30000000
4FFF2002DF602FFF20000000
5FFF504DF8003FFF40220000
4FFFFDFF80001FFFFDF50000
0DFFFFF700000BFFFFC10000
02BEEA30000001AEE9100000
ENDCHAR
STARTCHAR Uacute
ENCODING 218
SWIDTH 624 0
DWIDTH 20 0
BBX 23 32 0 0
BITMAP
000000000000000001300000
00000000000000000CFA0000
00000000000000004FFF2000
0000000000000000CFFD0000
000000000000000AFFD20000
000000000000009FF9100000
000000000000006620000000
000000000000000000000000
0000007DFC300000000AE800
000001EFFFB00000005FFF10
0000002FFFB0000000CFFB00
0000001FFF70000006FFF400
0000005FFF2000000DFFC000
000000BFFC0000006FFF6000
000003FFF6000001EFFE1000
000009FFE1000007FFF90000
00001FFF8000001EFFF40000
00007FFF1000008FFFD00000
0000EFF9000002FFFF800000
0006FFF200000AFFFF300000
000CFFA000003FFFFD000000
004FFF300000CFFFF8000000
00AFFB000006FEFFF3000000
01FFF500001EF8FFE0000000
06FFE00000AF98FFA0000000
0BFF900005FD1CFF60000000
1FFF40003EF30FFF30000000
4FFF2002DF602FFF20000000
5FFF504DF8003FFF40220000
4FFFFDFF80001FFFFDF50000
0DFFFFF700000BFFFFC10000
02BEEA30000001AEE9100000
ENDCHAR
STARTCHAR Ucircumflex
ENCODING 219
SWIDTH 624 0
DWIDTH 20 0
BBX 23 32 0 0
BITMAP
000000000000000010000000
0000000000000003EC200000
000000000000005FFF800000
0000000000001AFFFFE10000
000000000017EFF6CFF80000
0000000000DFFB204EFF3000
000000000037300002761000
000000000000000000000000
0000007DFC300000000AE800
000001EFFFB00000005FFF10
0000002FFFB0000000CFFB00
0000001FFF70000006FFF400
0000005FFF2000000DFFC000
000000BFFC0000006FFF6000
000003FFF6000001EFFE1000
000009FFE1000007FFF90000
00001FFF8000001EFFF40000
00007FFF1000008FFFD00000
0000EFF9000002FFFF800000
0006FFF200000AFFFF300000
000CFFA000003FFFFD000000
004FFF300000CFFFF8000000
00AFFB000006FEFFF3000000
01FFF500001EF8FFE0000000
06FFE00000AF98FFA0000000
0BFF900005FD1CFF60000000
1FFF40003EF30FFF30000000
4FFF2002DF602FFF20000000
5FFF504DF8003FFF40220000
4FFFFDFF80001FFFFDF50000
0DFFFFF700000BFFFFC10000
02BEEA30000001AEE9100000
ENDCHAR
STARTCHAR Udieresis
ENCODING 220
SWIDTH 624 0
DWIDTH 20 0
BBX 23 31 0 0
BITMAP
000000000016730000574000
0000000001DFFF400AFFF600
0000000004FFFF601FFFF900
0000000002FFFF300EFFF500
00000000007FE60005EF9000
000000000001000000010000
000000000000000000000000
0000007DFC300000000AE800
000001EFFFB00000005FFF10
0000002FFFB0000000CFFB00
0000001FFF70000006FFF400
0000005FFF2000000DFFC000
000000BFFC0000006FFF6000
000003FFF6000001EFFE1000
000009FFE1000007FFF90000
00001FFF8000001EFFF40000
00007FFF1000008FFFD00000
0000EFF9000002FFFF800000
0006FFF200000AFFFF300000
000CFFA000003FFFFD000000
004FFF300000CFFFF8000000
00AFFB000006FEFFF3000000
01FFF500001EF8FFE0000000
06FFE00000AF98FFA0000000
0BFF900005FD1CFF60000000
1FFF40003EF30FFF30000000
4FFF2002DF602FFF20000000
5FFF504DF8003FFF40220000
4FFFFDFF80001FFFFDF50000
0DFFFFF700000BFFFFC10000
02BEEA30000001AEE9100000
ENDCHAR
STARTCHAR Yacute
ENCODING 221
SWIDTH 580 0
DWIDTH 19 0
BBX 22 40 0 -9
BITMAP
000000000000000009A200
00000000000000004FFC00
0000000000000000BFFD00
0000000000000007FFF500
000000000000006FFE4000
00000000000001ED710000
0000000000000000000000
0000008DFC200000000BE7
000002EFFFA00000006FFF
0000004FFF90000001DFFA
0000002FFF60000007FFF3
0000007FFF1000001EFFB0
000000DFFB0000008FFF50
000004FFF4000001EFFE00
00000BFFD0000009FFF900
00002FFF6000002FFFF300
00009FFE1000009FFFD000
0001EFF7000003FFFF7000
0007FFE100000BFFFF2000
000DFF8000004FFFFC0000
005FFF200000DFFFF60000
00BFFA000008FFFFF10000
02FFF300002FFBFFB00000
07FFD00000BF9DFF500000
0DFF700007FC4FFE100000
2FFF30004FE39FF9000000
5FFF1003EF52FFF3000000
7FFF305EF708FFC0000000
5FFFFEFF801EFF40000000
1DFFFFF6008FFC00000000
02BEE92001EFF400000000
0000000009FFA000000000
000000004FFE2000000000
00000001DFF70000000000
0000000BFFA00000000000
0000009FFD100000000000
000009FFE2000000000000
0002BFFD20000000000000
019FFFB100000000000000
04EEB50000000000000000
ENDCHAR
STARTCHAR Thorn
ENCODING 222
SWIDTH 527 0
DWIDTH 17 0
BBX 20 24 -2 0
BITMAP
000028CFFEA200000000
0000BFFFEFFB00000000
00002A918FFE00000000
00000000AFFD00000000
00000000DFFB00000000
00000001FFF800000000
00000004FFFFEDA61000
00000007FFFECDFFE500
0000000CFFC0001CFF50
0000001FFF700004FFE0
0000005FFF300002FFF3
000000AFFD000003FFF2
000000EFF8000009FFF0
000005FFF300005FFFA0
00000AFFC00007FFFE20
00001FFF6037DFFFE300
00007FFFDFFFFFF91000
0000DFFFFFFEB7200000
0006FFE2221000000000
001DFF80000000000000
009FFD10000000000000
05FFE300000000000000
4FFF4000000000000000
4EC30000000000000000
ENDCHAR
STARTCHAR germandbls
ENCODING 223
SWIDTH 520 0
DWIDTH 17 0
BBX 20 30 -2 -4
BITMAP
000000000003AEFD9200
00000000007FFFDEFE30
0000000006FFD301EFC0
000000002FFE3000AFF1
00000000BFF80000BFF3
00000003FFE10000EFF2
0000000AFF900006FFE0
0000001FFF30001DFF80
0000006FFD0000AFFE10
000000BFF80007FFE300
000001FFF4004FFE4000
000005FFF001EFF40000
000009FFB009FF600000
00000DFF701EFD000000
00002FFF404FFC000000
00006FFE004FFF100000
0000AFFB002FFF900000
0000DFF7000BFFF50000
0002FFF40003FFFE2000
0006FFE000007FFFB000
000AFFB000000AFFF300
000EFF706E7001DFF600
003FFF31FFA0008FF500
008FFD02FFF701CFD100
00DFF900BFFFFFFD2000
03FFF40007CEEC710000
08FFD000000000000000
1EFF7000000000000000
6FFE1000000000000000
6ED40000000000000000
ENDCHAR
STARTCHAR agrave
ENCODING 224
SWIDTH 541 0
DWIDTH 17 0
BBX 17 26 1 -1
BITMAP
000000003CE7000000
00000000DFF9000000
00000000FFF8000000
00000000CFF8000000
000000007FF9000000
000000001DFC000000
0000000003EF300000
000000000029300000
000000000000000000
00000039DFC50AEB10
000008FFFCEFCFFF30
0001BFFB203FFFFB00
000BFFA0000CFFF400
008FFD10000EFFC000
04FFF500005FFF6000
0CFFD00000AFFE0000
3FFF600001FFF80000
8FFF200008FFF20000
CFFD00001EFFB00000
EFFA00009FFF700000
EFF90003FFFF400000
DFF8001DECFF300000
8FFB02CF4CFFA59300
1EFFDEF50BFFFFF200
02BEEA2004FFFF6000
000000000038820000
ENDCHAR
STARTCHAR aacute
ENCODING 225
SWIDTH 541 0
DWIDTH 17 0
BBX 17 27 1 -1
BITMAP
000000000000100000
000000000003FD2000
000000000009FF8000
00000000001EFF8000
00000000008FFE2000
0000000003FFF50000
000000002EFE400000
00000002DFA2000000
000000017300000000
000000000000000000
00000039DFC50AEB10
000008FFFCEFCFFF30
0001BFFB203FFFFB00
000BFFA0000CFFF400
008FFD10000EFFC000
04FFF500005FFF6000
0CFFD00000AFFE0000
3FFF600001FFF80000
8FFF200008FFF20000
CFFD00001EFFB00000
EFFA00009FFF700000
EFF90003FFFF400000
DFF8001DECFF300000
8FFB02CF4CFFA59300
1EFFDEF50BFFFFF200
02BEEA2004FFFF6000
000000000038820000
ENDCHAR
STARTCHAR acircumflex
ENCODING 226
SWIDTH 541 0
DWIDTH 17 0
BBX 17 26 1 -1
BITMAP
000000000000791000
000000000009FF9000
0000000001AFFFC000
000000003DFEEFF100
00000018FFD2AFF500
000007EFF9104FFC00
000008EB400008ED10
000000000000000000
000000000000000000
00000039DFC50AEB10
000008FFFCEFCFFF30
0001BFFB203FFFFB00
000BFFA0000CFFF400
008FFD10000EFFC000
04FFF500005FFF6000
0CFFD00000AFFE0000
3FFF600001FFF80000
8FFF200008FFF20000
CFFD00001EFFB00000
EFFA00009FFF700000
EFF90003FFFF400000
DFF8001DECFF300000
8FFB02CF4CFFA59300
1EFFDEF50BFFFFF200
02BEEA2004FFFF6000
000000000038820000
ENDCHAR
STARTCHAR atilde
ENCODING 227
SWIDTH 541 0
DWIDTH 17 0
BBX 18 25 1 -1
BITMAP
00000002AEE80000C5
0000004EFFFFA01AF5
000002EFEFFFFEEFC0
000008F703EFFFFD20
00000890002BFD8100
000000000000000000
000000000000000000
000000000000000000
00000039DFC50AEB10
000008FFFCEFCFFF30
0001BFFB203FFFFB00
000BFFA0000CFFF400
008FFD10000EFFC000
04FFF500005FFF6000
0CFFD00000AFFE0000
3FFF600001FFF80000
8FFF200008FFF20000
CFFD00001EFFB00000
EFFA00009FFF700000
EFF90003FFFF400000
DFF8001DECFF300000
8FFB02CF4CFFA59300
1EFFDEF50BFFFFF200
02BEEA2004FFFF6000
000000000038820000
ENDCHAR
STARTCHAR adieresis
ENCODING 228
SWIDTH 541 0
DWIDTH 17 0
BBX 18 25 1 -1
BITMAP
0000019EE70007EE90
000008FFFF105FFFF4
000009FFFF006FFFF3
000004FFF8002EFFB0
000000495000039700
000000000000000000
000000000000000000
000000000000000000
00000039DFC50AEB10
000008FFFCEFCFFF30
0001BFFB203FFFFB00
000BFFA0000CFFF400
008FFD10000EFFC000
04FFF500005FFF6000
0CFFD00000AFFE0000
3FFF600001FFF80000
8FFF200008FFF20000
CFFD00001EFFB00000
EFFA00009FFF700000
EFF90003FFFF400000
DFF8001DECFF300000
8FFB02CF4CFFA59300
1EFFDEF50BFFFFF200
02BEEA2004FFFF6000
000000000038820000
ENDCHAR
STARTCHAR aring
ENCODING 229
SWIDTH 541 0
DWIDTH 17 0
BBX 17 26 1 -1
BITMAP
0000000005BEFC6000
00000000AFFDEFF500
00000007FF702FFA00
0000000DFD002FF900
0000000EFD00AFF400
0000000AFFDEFF7000
000000018DFEB40000
000000000000000000
000000000000000000
00000039DFC50AEB10
000008FFFCEFCFFF30
0001BFFB203FFFFB00
000BFFA0000CFFF400
008FFD10000EFFC000
04FFF500005FFF6000
0CFFD00000AFFE0000
3FFF600001FFF80000
8FFF200008FFF20000
CFFD00001EFFB00000
EFFA00009FFF700000
EFF90003FFFF400000
DFF8001DECFF300000
8FFB02CF4CFFA59300
1EFFDEF50BFFFFF200
02BEEA2004FFFF6000
000000000038820000
ENDCHAR
STARTCHAR ae
ENCODING 230
SWIDTH 769 0
DWIDTH 25 0
BBX 24 16 1 0
BITMAP
00000039DFC50AEB6BEFC600
000008FFFCEFCFFFFEDFFF70
0001BFFB202EFFFFA109FFE0
000BFFA0000CFFFA0008FFF1
008FFD10001FFFE1000CFFF1
04FFF400005FFF70006FFFB0
0CFFB00000BFFE1005FFFF30
3FFF500002FFF9029FFFE500
8FFE100009FFFBBFFFF92000
CFFB00001EFFFFEDA6200000
EFF900009FFFF50000000000
EFF80004FCFFF50000004000
DFF9001DE2FFF8000008F300
8FFD02CF409FFE2004BFF200
1EFFDEE4001DFFECEFFE5000
02BEE92000018CEFDB710000
ENDCHAR
STARTCHAR ccedilla
ENCODING 231
SWIDTH 465 0
DWIDTH 15 0
BBX 14 23 1 -7
BITMAP
00000049DFEA20
00002BFFFCEFD1
0003EFFA105FF7
002EFFA0006FF9
00CFFC1000BFF8
07FFF40007FFF4
0EFFB0002FFFB0
5FFF50000CFD20
AFFF1000002000
DFFB0000000000
EFF90000000000
EFF90000003000
CFFB000006F200
6FFF50029FD000
0AFFFDDFFD3000
006DFFEB600000
0002EE10000000
0000CF60000000
0000EF90000000
0008FF80000000
03AFFF40000000
09FFFB00000000
02DE9100000000
ENDCHAR
STARTCHAR egrave
ENCODING 232
SWIDTH 471 0
DWIDTH 15 0
BBX 14 25 1 0
BITMAP
00000005DE4000
0000001FFF5000
0000003FFF5000
0000001FFF4000
0000000AFF5000
00000002FF8000
000000005FE100
00000000049100
00000000000000
00000029DFEA10
000008FFEDFFD0
0000AFFA10AFF6
000BFFB0008FF9
007FFE1000BFF8
03FFF80004FFF5
0AFFF1002EFFD0
2FFFA004EFFE30
6FFF75BFFFC300
9FFFFFFFB50000
BFFE7641000000
AFFC0000000000
7FFE000001B900
2FFF80016EFA00
05FFFDCFFFC200
003AEFED940000
ENDCHAR
STARTCHAR eacute
ENCODING 233
SWIDTH 471 0
DWIDTH 15 0
BBX 14 26 1 0
BITMAP
00000000000100
00000000007FA0
0000000000CFF5
0000000004FFF5
000000000BFFD0
000000007FFE30
00000005FFD200
0000004FF81000
00000036200000
00000000000000
00000029DFEA10
000008FFEDFFD0
0000AFFA10AFF6
000BFFB0008FF9
007FFE1000BFF8
03FFF80004FFF5
0AFFF1002EFFD0
2FFFA004EFFE30
6FFF75BFFFC300
9FFFFFFFB50000
BFFE7641000000
AFFC0000000000
7FFE000001B900
2FFF80016EFA00
05FFFDCFFFC200
003AEFED940000
ENDCHAR
STARTCHAR ecircumflex
ENCODING 234
SWIDTH 471 0
DWIDTH 15 0
BBX 15 25 1 0
BITMAP
0000000000197000
0000000001BFF500
000000002CFFF900
00000005EFDFFC00
000002AFFB1DFF20
00009FFE7008FF80
0000BEA20001AFB0
0000000000000000
0000000000000000
00000029DFEA1000
000008FFEDFFD000
0000AFFA10AFF600
000BFFB0008FF900
007FFE1000BFF800
03FFF80004FFF500
0AFFF1002EFFD000
2FFFA004EFFE3000
6FFF75BFFFC30000
9FFFFFFFB5000000
BFFE764100000000
AFFC000000000000
7FFE000001B90000
2FFF80016EFA0000
05FFFDCFFFC20000
003AEFED94000000
ENDCHAR
STARTCHAR edieresis
ENCODING 235
SWIDTH 471 0
DWIDTH 15 0
BBX 17 24 1 0
BITMAP
00002BFD4001AEE600
0000BFFFD008FFFF10
0000DFFFB00AFFFE00
00007FFF5004FFF700
000006940000595000
000000000000000000
000000000000000000
000000000000000000
00000029DFEA200000
000008FFEDFFD10000
0000AFF910AFF60000
000BFFA0008FF90000
007FFE1000CFF80000
03FFF60006FFF40000
0AFFE0006FFFA00000
2FFF8029FFFA100000
6FFFABFFFD60000000
9FFFEDB84000000000
BFFC00000000000000
AFFD00000022000000
7FFF100003DA000000
2FFF80017EF9000000
05FFFDDFFFA1000000
003AEFEC9300000000
ENDCHAR
STARTCHAR igrave
ENCODING 236
SWIDTH 286 0
DWIDTH 9 0
BBX 9 25 0 0
BITMAP
000008ED10
00006FFF10
00007FFF00
00005FFF00
00001EFF10
000006FF40
000000AFA0
0000000680
0000000000
0002BEEA00
0006FFFF10
0000BFFE00
0000BFF900
0001EFF400
0006FFC000
000CFF5000
003FFD0000
00AFF70000
01FFE10000
07FF900000
0CFF400000
0FFF400000
1FFFFFA000
0DFFFF6000
03CFD70000
ENDCHAR
STARTCHAR iacute
ENCODING 237
SWIDTH 286 0
DWIDTH 9 0
BBX 12 25 0 0
BITMAP
00000000BF70
00000002FFF1
00000008FFF1
0000002EFF90
000000BFFB00
000009FFA000
00008FE60000
000055100000
000000000000
0002BEEA0000
0006FFFF1000
0000BFFE0000
0000BFF90000
0001EFF40000
0006FFC00000
000CFF500000
003FFD000000
00AFF7000000
01FFE1000000
07FF90000000
0CFF40000000
0FFF40000000
1FFFFFA00000
0DFFFF600000
03CFD7000000
ENDCHAR
STARTCHAR icircumflex
ENCODING 238
SWIDTH 286 0
DWIDTH 9 0
BBX 13 25 0 0
BITMAP
000000002B4000
00000003EFF100
0000005EFFF400
000009FFDFF800
0004DFF73FFC00
02BFFD400CFF40
03DD710003DF60
00000000000000
00000000000000
0002BEEA000000
0006FFFF100000
0000BFFE000000
0000BFF9000000
0001EFF4000000
0006FFC0000000
000CFF50000000
003FFD00000000
00AFF700000000
01FFE100000000
07FF9000000000
0CFF4000000000
0FFF4000000000
1FFFFFA0000000
0DFFFF60000000
03CFD700000000
ENDCHAR
STARTCHAR idieresis
ENCODING 239
SWIDTH 286 0
DWIDTH 9 0
BBX 14 24 0 0
BITMAP
004DFB1003CFC3
01FFFF800DFFFB
02FFFF700EFFFA
00CFFE1009FFF3
00188200007830
00000000000000
00000000000000
00000000000000
0002BEEA000000
0006FFFF100000
0000BFFE000000
0000BFF9000000
0001EFF4000000
0006FFC0000000
000CFF50000000
003FFD00000000
00AFF700000000
01FFE100000000
07FF9000000000
0CFF4000000000
0FFF4000000000
1FFFFFA0000000
0DFFFF60000000
03CFD700000000
ENDCHAR
STARTCHAR eth
ENCODING 240
SWIDTH 524 0
DWIDTH 17 0
BBX 19 27 1 0
BITMAP
00000000000550000000
00000000000CF6000000
000000000004FE100000
000000000000BF800000
0000000000006FECED50
000000000004CFFFFFE0
0000000001BFFFFD7530
000000002DFD8EFB0000
000000008B400EFD0000
0000000000000EFE0000
0000000000000FFD0000
00000029DFD73FFC0000
000008FFFCEFCFFA0000
0000AFFA102EFFF70000
000AFFB00009FFF40000
006FFE100008FFF10000
02EFF500000DFFB00000
0AFFD000004FFF600000
1FFF700000AFFE100000
6FFF300002FFF8000000
AFFE000009FFE1000000
BFFC00002FFF60000000
CFFA0000CFFB00000000
AFFB0007FFD100000000
5FFE107FFD2000000000
0CFFEDFFA10000000000
019EFDA4000000000000
ENDCHAR
STARTCHAR ntilde
ENCODING 241
SWIDTH 561 0
DWIDTH 18 0
BBX 19 24 0 0
BITMAP
000000002AEE80000C50
00000004EFFFFA01AF50
0000002EFEFFFFEEFD00
0000008F703EFFFFD200
0000008A0002BFD81000
00000000000000000000
00000000000000000000
00000000000000000000
0002BFD40002AED70000
0006FFFD005FFFFF5000
0000CFFC04FFFFFFA000
0000BFF93EF60DFF9000
0000EFF5DF601EFF6000
0004FFDAF7007FFE1000
0009FFCF9001EFF80000
001EFFFB0006FFF20000
006FFFD1000DFF900000
00CFFF30004FFF200000
03FFF700009FFB000000
0AFFD00000DFF6000000
2FFF600001FFF4031000
9FFE000000FFFEEF3000
EFF7000000AFFFFB0000
5DC10000001AEE800000
ENDCHAR
STARTCHAR ograve
ENCODING 242
SWIDTH 514 0
DWIDTH 16 0
BBX 15 25 1 0
BITMAP
000000001AEB0000
000000008FFD0000
00000000AFFC0000
000000008FFC0000
000000003FFD0000
0000000009FF1000
0000000001CF8000
0000000000176000
0000000000000000
0000004ADFD92000
00002BFFFDFFE300
0002DFFC207FFB00
001DFFC1003FFF20
00AFFF20003FFF40
05FFF800004FFF50
0DFFE100007FFF30
4FFF800000BFFF10
8FFF300001FFFB00
BFFD000008FFF500
CFFA00001EFFD000
CFF90000AFFF4000
AFF90005FFF80000
5FFD006FFF900000
0AFFDDFFE7000000
006CEFC820000000
ENDCHAR
STARTCHAR oacute
ENCODING 243
SWIDTH 514 0
DWIDTH 16 0
BBX 15 25 1 0
BITMAP
000000000000DE40
000000000005FFD0
00000000000BFFC0
00000000004FFF60
0000000001DFF900
000000000BFF8000
00000000BFC40000
0000000075000000
0000000000000000
0000004ADFD92000
00002BFFFDFFE300
0002DFFC207FFB00
001DFFC1003FFF20
00AFFF20003FFF40
05FFF800004FFF50
0DFFE100007FFF30
4FFF800000BFFF10
8FFF300001FFFB00
BFFD000008FFF500
CFFA00001EFFD000
CFF90000AFFF4000
AFF90005FFF80000
5FFD006FFF900000
0AFFDDFFE7000000
006CEFC820000000
ENDCHAR
STARTCHAR ocircumflex
ENCODING 244
SWIDTH 514 0
DWIDTH 16 0
BBX 17 25 1 0
BITMAP
0000000000004A3000
000000000005FFD000
00000000007FFFF100
000000001BFFDFF500
00000005EFE55FFA00
000004CFFC201EFE10
000005ED600005EE40
000000000000000000
000000000000000000
0000004ADFD9200000
00002BFFFDFFE30000
0002DFFC207FFB0000
001DFFC1003FFF2000
00AFFF20003FFF4000
05FFF800004FFF5000
0DFFE100007FFF3000
4FFF800000BFFF1000
8FFF300001FFFB0000
BFFD000008FFF50000
CFFA00001EFFD00000
CFF90000AFFF400000
AFF90005FFF8000000
5FFD006FFF90000000
0AFFDDFFE700000000
006CEFC82000000000
ENDCHAR
STARTCHAR otilde
ENCODING 245
SWIDTH 514 0
DWIDTH 16 0
BBX 18 24 1 0
BITMAP
000000018EEA100099
0000001DFFFFD206F9
000000CFFFFFFFEFF2
000004FB11BFFFFE40
000004C10019EEA200
000000000000000000
000000000000000000
000000000000000000
0000004ADFD9200000
00002BFFFDFFE30000
0002DFFC207FFB0000
001DFFC1003FFF2000
00AFFF20003FFF4000
05FFF800004FFF5000
0DFFE100007FFF3000
4FFF800000BFFF1000
8FFF300001FFFB0000
BFFD000008FFF50000
CFFA00001EFFD00000
CFF90000AFFF400000
AFF90005FFF8000000
5FFD006FFF90000000
0AFFDDFFE700000000
006CEFC82000000000
ENDCHAR
STARTCHAR odieresis
ENCODING 246
SWIDTH 514 0
DWIDTH 16 0
BBX 18 24 1 0
BITMAP
0000006EEA0004DFB1
000004FFFF501FFFF8
000005FFFF402FFFF7
000001EFFC000CFFE1
000000287100018820
000000000000000000
000000000000000000
000000000000000000
0000004ADFD9200000
00002BFFFDFFE30000
0002DFFC207FFB0000
001DFFC1003FFF2000
00AFFF20003FFF4000
05FFF800004FFF5000
0DFFE100007FFF3000
4FFF800000BFFF1000
8FFF300001FFFB0000
BFFD000008FFF50000
CFFA00001EFFD00000
CFF90000AFFF400000
AFF90005FFF8000000
5FFD006FFF90000000
0AFFDDFFE700000000
006CEFC82000000000
ENDCHAR
STARTCHAR divide
ENCODING 247
SWIDTH 617 0
DWIDTH 20 0
BBX 17 16 2 4
BITMAP
000000047400000000
0000005FFF80000000
0000009FFFA0000000
0000005FFF40000000
000000058400000000
000000000000000000
000000000000000000
19CCCCCCCCCCCCCB30
6FFFFFFFFFFFFFFC10
000000000000000000
000000000000000000
000000167200000000
000000BFFF30000000
000000EFFF40000000
000000AFFD10000000
000000178200000000
ENDCHAR
STARTCHAR oslash
ENCODING 248
SWIDTH 514 0
DWIDTH 16 0
BBX 16 22 1 -3
BITMAP
0000000000000562
000000000000BFFB
000000000009FFE2
0000004ADFDFFE30
00001BFFFCFFF600
0002DFFC23FFFB00
001DFFC10BDFFF10
00AFFE205F4FFF40
05FFF701D91FFF50
0DFFE108D14FFF40
3FFF702F508FFF10
8FFF10BB00EFFC00
BFFC05F306FFF600
CFF91D900DFFD000
CFF78E108FFF4000
AFF9F604FFF80000
4FFFD05EFFA00000
0AFFEDFFE7000000
09FFEFD810000000
1FF8000000000000
5FD1000000000000
0630000000000000
ENDCHAR
STARTCHAR ugrave
ENCODING 249
SWIDTH 553 0
DWIDTH 18 0
BBX 18 25 0 0
BITMAP
00000000003CE70000
0000000000DFF80000
0000000000FFF80000
0000000000DFF70000
00000000007FF80000
00000000001DFC0000
000000000003EF3000
000000000000293000
000000000000000000
0001AEE70000006EC3
0005FFFF200002EFF6
00009FFF10000AFFD0
0000AFFC00004FFF70
0001EFF70000DFFE10
0006FFF20007FFF800
000DFFB0001EFFF100
004FFF4000AFFF9000
00BFFD0005FFFF3000
03FFF6002EDEFC0000
09FFD001DE6FF80000
0EFF700BF68FF50000
2FFF41BF80CFF50200
3FFFEEFA00DFFEDF00
1EFFFF9000AFFFF900
04CFC500001BFD7000
ENDCHAR
STARTCHAR uacute
ENCODING 250
SWIDTH 553 0
DWIDTH 18 0
BBX 18 26 0 0
BITMAP
000000000000001000
00000000000004FC10
00000000000009FF80
0000000000001EFF80
0000000000009FFE20
000000000004FFF500
00000000002EFE4000
0000000002EFA20000
000000000273000000
000000000000000000
0001AEE70000006EC3
0005FFFF200002EFF6
00009FFF10000AFFD0
0000AFFC00004FFF70
0001EFF70000DFFE10
0006FFF20007FFF700
000DFFB0001EFFE100
004FFF4000AFFF9000
00BFFC0006FFFF3000
03FFF6003EDEFC0000
09FFD001DE6FF70000
0EFF701CF68FF50000
2FFF42CF80CFF50300
3FFFEFFA00DFFEEF00
1EFFFF9000AFFFF900
04CFC500001BFD7000
ENDCHAR
STARTCHAR ucircumflex
ENCODING 251
SWIDTH 553 0
DWIDTH 18 0
BBX 19 25 0 0
BITMAP
00000000000000891000
00000000000009FF9000
000000000001BFFFC000
00000000003DFEEFF100
0000000018FFC2AFF500
00000007EFF9105FFB00
00000009EB300008ED10
00000000000000000000
00000000000000000000
0001AEE70000006EC300
0005FFFF200002EFF600
00009FFF10000AFFD000
0000AFFC00004FFF7000
0001EFF70000DFFE1000
0006FFF20007FFF70000
000DFFB0001EFFE10000
004FFF4000AFFF900000
00BFFC0006FFFF300000
03FFF6003EDEFC000000
09FFD001DE6FF7000000
0EFF701CF68FF5000000
2FFF42CF80CFF5030000
3FFFEFFA00DFFEEF0000
1EFFFF9000AFFFF90000
04CFC500001BFD700000
ENDCHAR
STARTCHAR udieresis
ENCODING 252
SWIDTH 553 0
DWIDTH 18 0
BBX 20 24 0 0
BITMAP
00000001AEE60008EE80
00000008FFFF105FFFF3
0000000AFFFE007FFFF2
00000004FFF7002EFFA0
00000000495000039600
00000000000000000000
00000000000000000000
00000000000000000000
0001AEE70000006EC300
0005FFFF200002EFF600
00009FFF10000AFFD000
0000AFFC00004FFF7000
0001EFF70000DFFE1000
0006FFF20007FFF70000
000DFFB0001EFFE10000
004FFF4000AFFF900000
00BFFC0006FFFF300000
03FFF6003EDEFC000000
09FFD001DE6FF7000000
0EFF701CF68FF5000000
2FFF42CF80CFF5030000
3FFFEFFA00DFFEEF0000
1EFFFF9000AFFFF90000
04CFC500001BFD700000
ENDCHAR
STARTCHAR yacute
ENCODING 253
SWIDTH 549 0
DWIDTH 18 0
BBX 18 34 0 -9
BITMAP
0000000000001EE300
0000000000007FFB00
000000000000DFFB00
000000000006FFF400
00000000002EFF7000
0000000001CFF60000
000000001CFC300000
000000001740000000
000000000000000000
00019EE90000004ED4
0003EFFF400001DFF8
00007FFF300007FFF2
00008FFE00002EFFC0
0000DFFA00009FFF70
0004FFF40003FFFF20
000AFFD0000BFFFB00
002FFF60005FFFF600
009FFE1002EFFFF100
01EFF8000CFDFFA000
06FFE1009F8DFF5000
0CFF9008FB3FFE0000
0FFF61AFD18FF80000
1FFFEEFE20DFF20000
0CFFFFD204FFB00000
02CFD7100AFF400000
000000002FFC000000
00000000AFF4000000
00000005FFA0000000
0000002EFE20000000
000001DFF500000000
00002DFF8000000000
0017EFF90000000000
00EFFE700000000000
003861000000000000
ENDCHAR
STARTCHAR thorn
ENCODING 254
SWIDTH 552 0
DWIDTH 18 0
BBX 20 35 -3 -9
BITMAP
00000000001DD4000000
00000000005FFB000000
00000000007FFA000000
0000000000BFF7000000
0000000000EFF3000000
0000000003FFE0000000
0000000008FF90000000
000000000CFF40000000
000000002FFE00000000
000000007FF900000000
00000000CFF318DFD700
00000001FFC4EFDEFF80
00000006FFAEE505FFF1
0000000BFFFF3001FFF5
0000001FFFF60001FFF6
0000006FFFA00002FFF7
000000AFFE100004FFF5
000001EFF7000009FFF2
000005FFE100000EFFC0
000009FF9000006FFF50
00000EFF400001EFFC00
00003FFF20000AFFE200
00008FFF20008FFF5000
0000DFFFA13AFFE50000
0003FFEDFFFFFC300000
0008FF92AEEB60000000
000DFF30000000000000
004FFD00000000000000
009FF800000000000000
01EFF300000000000000
07FFD000000000000000
0DFF7000000000000000
5FFF1000000000000000
AFF90000000000000000
5EC10000000000000000
ENDCHAR
STARTCHAR ydieresis
ENCODING 255
SWIDTH 549 0
DWIDTH 18 0
BBX 19 33 0 -9
BITMAP
00000008EE80006DFA10
0000005FFFF303FFFF60
0000007FFFF204FFFF50
0000002EFFA001DFFD00
00000003960000287100
00000000000000000000
00000000000000000000
00000000000000000000
00019EE90000004ED400
0003EFFF400001DFF800
00007FFF300007FFF200
00008FFE00002EFFC000
0000DFFA00009FFF7000
0004FFF40003FFFF2000
000AFFD0000BFFFB0000
002FFF60005FFFF60000
009FFE1002EFFFF10000
01EFF8000CFDFFA00000
06FFE1009F8DFF500000
0CFF9008FB3FFE000000
0FFF61AFD18FF8000000
1FFFEEFE20DFF2000000
0CFFFFD204FFB0000000
02CFD7100AFF40000000
000000002FFC00000000
00000000AFF400000000
00000005FFA000000000
0000002EFE2000000000
000001DFF50000000000
00002DFF800000000000
0017EFF9000000000000
00EFFE70000000000000
00386100000000000000
ENDCHAR
STARTCHAR Amacron
ENCODING 256
SWIDTH 615 0
DWIDTH 20 0
BBX 27 29 -3 0
BITMAP
00000000000000009FFFFFFFFF60
0000000000000007FFFFFFFFFF40
0000000000000006CDDDDDDDC500
0000000000000000000000000000
0000000000000000000000000000
00000000000000000016BEF80000
000000000000000007EFFFFB0000
0000000000000001BFFACFF60000
000000000000002DFD32FFF10000
00000000000002DFB109FFA00000
0000000000001DFB101FFF400000
000000000000BFD1008FFD000000
000000000008FF3000DFF8000000
00000000004FF80005FFF2000000
0000000001DFD0000AFFC0000000
0000000008FF40001FFF60000000
000000003FFD79BBDFFFDC800000
00000028DFFFFFFFFFFFFFB00000
000006FFFFFFFFFFFFFFEA200000
0000068FFC000004FFF300000000
0000008FF5000008FFD000000000
000002FFC000000CFF9000000000
00000AFF4000000FFF6000000000
00004FFC0000002FFF3000000000
0001DFF30000004FFF1000000000
000AFF900000005FFF3040000000
01AFFD100000004FFFEEF3000000
5EFFE3000000000DFFFFA0000000
4DEA200000000003CED810000000
ENDCHAR
STARTCHAR amacron
ENCODING 257
SWIDTH 543 0
DWIDTH 17 0
BBX 17 22 1 -1
BITMAP
0000009FFFFFFFFF60
000007FFFFFFFFFF40
000006CDDDDDDDC500
000000000000000000
000000000000000000
00000039DFC509EB10
000008FFFCEFCFFF30
0001AFFB202FFFFC00
000BFFB0000BFFF500
008FFD10000EFFD000
03FFF500004FFF6000
0BFFD000009FFE1000
3FFF700001FFF80000
8FFF200007FFF20000
BFFD00001EFFC00000
DFFB00008FFF700000
EFF90003FFFF400000
CFF9001DECFF400000
8FFC01CF5CFFA59300
1EFFDEF50AFFFFF200
02BEEA3003FFFF6000
000000000038830000
ENDCHAR
STARTCHAR Abreve
ENCODING 258
SWIDTH 615 0
DWIDTH 20 0
BBX 27 31 -3 0
BITMAP
000000000000000003D900000880
00000000000000000DFD00006FA0
00000000000000000FFF7129FF30
00000000000000000DFFFFFFF700
000000000000000005FFFFFF7000
0000000000000000003ACB820000
0000000000000000000000000000
00000000000000000016BEF80000
000000000000000007EFFFFB0000
0000000000000001BFFACFF60000
000000000000002DFD32FFF10000
00000000000002DFB109FFA00000
0000000000001DFB101FFF400000
000000000000BFD1008FFD000000
000000000008FF3000DFF8000000
00000000003FF80005FFF2000000
0000000001DFD0000AFFC0000000
0000000008FF40001FFF60000000
000000003FFD79BBDFFFDC800000
00000028DFFFFFFFFFFFFFB00000
000005EFFFFFFFFFFFFFEA200000
0000068FFC000004FFF300000000
0000008FF5000008FFD000000000
000002EFC000000CFF9000000000
00000AFF4000000FFF6000000000
00004FFC0000002FFF3000000000
0001DFF30000004FFF1000000000
000AFF900000005FFF2020000000
01AFFD100000004FFFDCF3000000
5EFFE3000000000DFFFFB0000000
4DEA200000000003CED810000000
ENDCHAR
STARTCHAR abreve
ENCODING 259
SWIDTH 543 0
DWIDTH 17 0
BBX 17 25 1 -1
BITMAP
00000003DA00000790
0000000CFD00004FB0
0000000FFF6007FF50
0000000DFFFDEFF900
00000005FFFFFF9000
000000004CEDA40000
000000000000000000
000000000000000000
00000039DFC509EB10
000008FFFCEFCFFF30
0001AFFB202FFFFC00
000BFFB0000BFFF500
008FFD10000EFFD000
03FFF500004FFF6000
0BFFD000009FFE1000
3FFF700001FFF80000
8FFF200007FFF20000
BFFD00001EFFC00000
DFFB00008FFF700000
EFF90003FFFF400000
CFF9001DECFF400000
8FFC01CF5CFFA59300
1EFFDEF50AFFFFF200
02BEEA3003FFFF6000
000000000038830000
ENDCHAR
STARTCHAR Aogonek
ENCODING 260
SWIDTH 615 0
DWIDTH 20 0
BBX 24 32 -3 -8
BITMAP
00000000000000000016BEF8
000000000000000007EFFFFB
0000000000000001BFFACFF6
000000000000002DFD32FFF1
00000000000002DFB109FFA0
0000000000001DFB101FFF40
000000000000BFD1008FFD00
000000000008FF3000DFF800
00000000003FF80005FFF200
0000000001DFD0000AFFC000
0000000008FF40001FFF6000
000000003FFD79BBDFFFDC80
00000028DFFFFFFFFFFFFFB0
000005EFFFFFFFFFFFFFEA20
0000068FFC000004FFF30000
0000008FF5000008FFD00000
000002EFC000000CFF900000
00000AFF4000000FFF600000
00004FFC0000002FFF300000
0001DFF30000004FFF100000
000AFF900000005FFF202000
01AFFD100000004FFFDCF200
5EFFE3000000000DFFFFB000
4DEA200000000003DFE80000
0000000000000006FD200000
000000000000006FE2000000
00000000000003FF50000000
0000000000000CFE00000000
0000000000004FFE15300000
0000000000006FFFFF400000
0000000000004FFFFA000000
00000000000007CB60000000
ENDCHAR
STARTCHAR aogonek
ENCODING 261
SWIDTH 541 0
DWIDTH 17 0
BBX 17 24 1 -8
BITMAP
00000039DFC50AEB10
000008FFFCEFCFFF30
0001BFFB203FFFFB00
000BFFA0000CFFF400
008FFD10000EFFC000
04FFF500005FFF6000
0CFFD00000AFFE0000
3FFF600001FFF80000
8FFF200008FFF20000
CFFD00001EFFB00000
EFFA00009FFF700000
EFF90003FFFF400000
DFF8001DECFF300000
8FFB02CF4CFFA59300
1EFFDEF509FFFFE100
02BEEA2001BFFE3000
0000000001AFC10000
000000000BFB000000
000000009FE1000000
00000003FF90000000
0000000AFF92700000
0000000CFFFFD00000
0000000AFFFF400000
00000002AC93000000
ENDCHAR
STARTCHAR Cacute
ENCODING 262
SWIDTH 533 0
DWIDTH 17 0
BBX 21 32 1 0
BITMAP
0000000000000000003100
000000000000000006FE30
00000000000000000CFF80
00000000000000006FFF40
0000000000000004FFF700
000000000000003EFC4000
0000000000000037400000
0000000000000000000000
000000000039DEEB400000
000000002BFFFECFF50000
00000005EFFB3007FE1000
0000007FFF800004FF4000
000006FFF7000007FF6000
00004FFF9000001EFF5000
0001EFFD100000BFFF1000
0009FFF400000AFFFA0000
003FFFA00001CFFFE20000
00AFFF300004FFFF500000
02FFFB0000009FD4000000
07FFF50000000100000000
0BFFF10000000000000000
0FFFB00000000000000000
3FFF800000000000000000
5FFF500000000000000000
6FFF400000000000000000
7FFF400000000000000000
6FFF500000000000000000
3FFF700000005200000000
0DFFC000001AF800000000
05FFF70016EFF600000000
008FFFDDFFFF8000000000
0003ADEFDB610000000000
ENDCHAR
STARTCHAR cacute
ENCODING 263
SWIDTH 468 0
DWIDTH 15 0
BBX 17 26 1 0
BITMAP
000000000000001000
0000000000000AF800
0000000000001FFF20
0000000000007FFF20
000000000001EFFA00
00000000000AFFC100
00000000007FFB1000
0000000007FE700000
000000000561000000
000000000000000000
00000039DFEB300000
00001AFFFCEFE20000
0002DFFB204FF80000
002EFFB0005FFA0000
00BFFD1000AFF90000
06FFF50006FFF50000
0DFFC0001FFFC00000
4FFF60000BFD200000
9FFF10000020000000
CFFD00000000000000
DFFA00000000000000
DFFA00000020000000
AFFC000005F3000000
5FFF60018FD1000000
09FFFDDFFC20000000
005BEFEB5000000000
ENDCHAR
STARTCHAR Ccircumflex
ENCODING 264
SWIDTH 533 0
DWIDTH 17 0
BBX 21 32 1 0
BITMAP
0000000000000000010000
0000000000000000AF6000
000000000000002CFFE000
00000000000005EFFFF600
000000000004BFFB7FFE10
00000000007FFE600BFFA0
0000000000166100005730
0000000000000000000000
000000000039DEEB400000
000000002BFFFECFF50000
00000005EFFB3007FE1000
0000007FFF800004FF4000
000006FFF7000007FF6000
00004FFF9000001EFF5000
0001EFFD100000BFFF1000
0009FFF400000AFFFA0000
003FFFA00001CFFFE20000
00AFFF300004FFFF500000
02FFFB0000009FD4000000
07FFF50000000100000000
0BFFF10000000000000000
0FFFB00000000000000000
3FFF800000000000000000
5FFF500000000000000000
6FFF400000000000000000
7FFF400000000000000000
6FFF500000000000000000
3FFF700000005200000000
0DFFC000001AF800000000
05FFF70016EFF600000000
008FFFDDFFFF8000000000
0003ADEFDB610000000000
ENDCHAR
STARTCHAR ccircumflex
ENCODING 265
SWIDTH 468 0
DWIDTH 15 0
BBX 17 25 1 0
BITMAP
000000000000791000
000000000009FF9000
0000000001AFFFC000
000000003DFEEFF100
00000018FFD2AFF500
000007EFF9104FFC00
000008EB400008ED10
000000000000000000
000000000000000000
00000039DFEB300000
00001AFFFCEFE20000
0002DFFB204FF80000
002EFFB0005FFA0000
00BFFD1000AFF90000
06FFF50006FFF50000
0DFFC0001FFFC00000
4FFF60000BFD200000
9FFF10000020000000
CFFD00000000000000
DFFA00000000000000
DFFA00000020000000
AFFC000005F3000000
5FFF60018FD1000000
09FFFDDFFC20000000
005BEFEB5000000000
ENDCHAR
STARTCHAR Cdotaccent
ENCODING 266
SWIDTH 533 0
DWIDTH 17 0
BBX 19 31 1 0
BITMAP
00000000000001672000
0000000000002EFFE200
0000000000006FFFF400
0000000000004FFFE100
00000000000009FE5000
00000000000000100000
00000000000000000000
000000000039DEEB4000
000000002BFFFECFF500
00000005EFFB3007FE10
0000007FFF800004FF40
000006FFF7000007FF60
00004FFF9000001EFF50
0001EFFD100000BFFF10
0009FFF400000AFFFA00
003FFFA00001CFFFE200
00AFFF300004FFFF5000
02FFFB0000009FD40000
07FFF500000001000000
0BFFF100000000000000
0FFFB000000000000000
3FFF8000000000000000
5FFF5000000000000000
6FFF4000000000000000
7FFF4000000000000000
6FFF5000000000000000
3FFF7000000052000000
0DFFC000001AF8000000
05FFF70016EFF6000000
008FFFDDFFFF80000000
0003ADEFDB6100000000
ENDCHAR
STARTCHAR cdotaccent
ENCODING 267
SWIDTH 468 0
DWIDTH 15 0
BBX 14 24 1 0
BITMAP
0000000003CFC3
000000000DFFFB
000000000EFFF9
0000000009FFF3
00000000007830
00000000000000
00000000000000
00000000000000
00000039DFEB30
00001AFFFCEFE2
0002DFFB204FF8
002EFFB0005FFA
00BFFD1000AFF9
06FFF50006FFF5
0DFFC0001FFFC0
4FFF60000BFD20
9FFF1000002000
CFFD0000000000
DFFA0000000000
DFFA0000002000
AFFC000005F300
5FFF60018FD100
09FFFDDFFC2000
005BEFEB500000
ENDCHAR
STARTCHAR Ccaron
ENCODING 268
SWIDTH 533 0
DWIDTH 17 0
BBX 22 31 1 0
BITMAP
0000000000015510000033
00000000000CFFD20007FC
000000000002EFFB04CFF9
0000000000005FFFCFFE70
0000000000000DFFFB5100
00000000000003B8200000
0000000000000000000000
000000000039DEEB400000
000000002BFFFECFF50000
00000005EFFB3007FE1000
0000007FFF800004FF4000
000006FFF7000007FF6000
00004FFF9000001EFF5000
0001EFFD100000BFFF1000
0009FFF400000AFFFA0000
003FFFA00001CFFFE20000
00AFFF300004FFFF500000
02FFFB0000009FD4000000
07FFF50000000100000000
0BFFF10000000000000000
0FFFB00000000000000000
3FFF800000000000000000
5FFF500000000000000000
6FFF400000000000000000
7FFF400000000000000000
6FFF500000000000000000
3FFF700000005200000000
0DFFC000001AF800000000
05FFF70016EFF600000000
008FFFDDFFFF8000000000
0003ADEFDB610000000000
ENDCHAR
STARTCHAR ccaron
ENCODING 269
SWIDTH 468 0
DWIDTH 15 0
BBX 19 24 1 0
BITMAP
000000039A2000006D10
00000004FFD00008FF20
00000000CFF402CFF900
000000007FF78FFE6000
000000002FFFFE810000
000000000DFE71000000
00000000025000000000
00000000000000000000
00000039DFEB30000000
00001AFFFCEFE2000000
0002DFFB204FF8000000
002EFFB0005FFA000000
00BFFD1000AFF9000000
06FFF50006FFF5000000
0DFFC0001FFFC0000000
4FFF60000BFD20000000
9FFF1000002000000000
CFFD0000000000000000
DFFA0000000000000000
DFFA0000002000000000
AFFC000005F300000000
5FFF60018FD100000000
09FFFDDFFC2000000000
005BEFEB500000000000
ENDCHAR
STARTCHAR Dcaron
ENCODING 270
SWIDTH 630 0
DWIDTH 20 0
BBX 21 31 1 0
BITMAP
0000000000363000001600
0000000006FFF70003CF30
00000000009FFF319FFE10
00000000001DFFDEFFB200
000000000007FFFD820000
0000000000009A40000000
0000000000000000000000
000037ACEFFDC840000000
003DFFFFFFFFFFFD500000
00BFFFFC74335BFFF80000
004EFD400000005FFF6000
0001410230000007FFE100
000000CFFD000001FFF600
000006FFFA000000CFF900
00001EFFE2000000BFFB00
00007FFF70000000BFFA00
0001EFFE10000000DFF900
0006FFF700000001FFF600
000DFFE100000006FFF200
004FFF900000000CFFD000
009FFF200000004FFF6000
00EFFC00000000DFFD0000
04FFF600000007FFF50000
09FFF10000004FFFA00000
0DFFB0000003EFFC100000
2FFF6000003EFFD2000000
5FFF200004EFFD20000000
7FFE00008FFFB100000000
5FFC006DFFF70000000000
0CFFCEFFFA200000000000
017CFEC720000000000000
ENDCHAR
STARTCHAR dcaron
ENCODING 271
SWIDTH 557 0
DWIDTH 18 0
BBX 26 26 1 0
BITMAP
00000000000000002CE601BFA0
0000000000000000BFF907FFF2
0000000000000004FFF303FFF1
000000000000000AFFB001FFE0
000000000000001FFF6003FF70
000000000000007FFE1009FD10
00000000000000CFF9004FE300
00000000000002FFF401ED3000
00000000000007FFD000200000
0000000000000CFF8000000000
00000017CFE92FFF3000000000
000004DFFDDFEFFD0000000000
00006FFE500AFFF80000000000
0006FFE20005FFF30000000000
002EFF500008FFD00000000000
00CFFA00000CFF900000000000
07FFF200002FFF400000000000
0DFFA000008FFE000000000000
4FFF600001EFFB000000000000
7FFF100007FFF6000000000000
9FFE00001EFFF3000000000000
AFFD0000AEFFF0000000000000
9FFD0007F7FFE0040000000000
5FFF207F90FFFEEE0000000000
0DFFEEF900AFFFF80000000000
019EEB40001AFD600000000000
ENDCHAR
STARTCHAR Dcroat
ENCODING 272
SWIDTH 630 0
DWIDTH 20 0
BBX 21 24 0 0
BITMAP
0000048ADEFEDB83000000
0006EFFFFFFFFFFFB30000
000EFFFFA63336DFFF5000
0006FFA200000008FFF300
0000230133000000BFFC00
0000002EFFA000004FFF20
0000009FFF6000001FFF60
000003FFFC0000000EFF70
00000BFFF40000000FFF70
019ADFFFFAAA80002FFF50
0CFFFFFFFFFFD0005FFF30
1EFFFFFFFFFD30009FFE00
0007FFF500000001EFF900
000DFFD000000008FFF300
003FFF800000002FFFA000
008FFF20000000BFFE2000
00CFFC00000008FFF60000
02FFF70000005FFF900000
06FFF2000006FFFB000000
09FFE000007FFFB0000000
0BFFB0001BFFF900000000
09FF9018EFFE5000000000
02EFECFFFE810000000000
0019DFEB61000000000000
ENDCHAR
STARTCHAR dcroat
ENCODING 273
SWIDTH 557 0
DWIDTH 18 0
BBX 21 26 1 0
BITMAP
00000000000000002CE600
0000000000000000BFFA00
0000000000000003FFF400
0000000000022229FFD200
0000000002DFFFFFFFFF70
0000000008FFFFFFFFE900
00000000000000BFF90000
00000000000002FFF40000
00000000000007FFD00000
0000000000000BFF800000
00000017CFE92FFF300000
000004DFFDDFEFFD000000
00006FFE500AFFF8000000
0006FFE20005FFF3000000
002EFF500008FFE0000000
00CFFA00000CFF90000000
07FFF200002FFF50000000
0DFFA000008FFF10000000
4FFF600001EFFB00000000
7FFF100007FFF700000000
9FFE00001EFFF300000000
AFFD0000AEFFF000000000
9FFD0007F7FFF104000000
5FFF207F90FFFEEE000000
0DFFEEF900AFFFF8000000
019EEB40001AFD60000000
ENDCHAR
STARTCHAR Emacron
ENCODING 274
SWIDTH 509 0
DWIDTH 16 0
BBX 19 29 1 0
BITMAP
000000006EFFFFFFFFB0
00000002FFFFFFFFFF80
00000003CCDDDDDDD800
00000000000000000000
00000000000000000000
0000000017BEFEC81000
00000007EFFFECEFD100
000001BFFFB4000DF800
00001CFFF700000CFA00
0000AFFF6000005FFA00
0005FFFA000004EFF600
000CFFE100007FFFD000
002FFF80000BFFFF4000
004FFF30000EFFF50000
005FFF100003AA300000
002FFF10000000000000
000BFF90230000000000
0002DFFFFFC000000000
00007FFFFFE100000000
001CFFFF920000000000
01DFFFC2000000000000
0AFFFB10000000000000
3FFFD100000000000000
9FFF5000000350000000
AFFF0000004EC0000000
9FFE000004EFC0000000
3FFF60029FFE40000000
07FFFDDFFFC300000000
0039DEEC940000000000
ENDCHAR
STARTCHAR emacron
ENCODING 275
SWIDTH 471 0
DWIDTH 15 0
BBX 16 21 1 0
BITMAP
00001BFFFFFFFFE3
0000BFFFFFFFFFE1
00009CDDDDDDDB30
0000000000000000
0000000000000000
00000029DFEA1000
000008FFEDFFD000
0000AFFA10AFF600
000BFFB0008FF900
007FFE1000BFF800
03FFF80004FFF500
0AFFF1002EFFD000
2FFFA004EFFE3000
6FFF75BFFFC30000
9FFFFFFFB5000000
BFFE764100000000
AFFC000000000000
7FFE000001B90000
2FFF80016EFA0000
05FFFDCFFFC20000
003AEFED94000000
ENDCHAR
STARTCHAR Ebreve
ENCODING 276
SWIDTH 509 0
DWIDTH 16 0
BBX 19 31 1 0
BITMAP
0000000001BE000004D0
0000000008FF30002DE0
000000000BFFB117EF80
0000000008FFFFFFFC00
0000000001DFFFFFA100
000000000018BC940000
00000000000000000000
0000000017BEFEC81000
00000007EFFFECEFD100
000001BFFFB4000DF800
00001CFFF700000CFA00
0000AFFF6000005FFA00
0005FFFA000004EFF600
000CFFE100007FFFD000
002FFF80000BFFFF4000
004FFF30000EFFF50000
005FFF100003AA300000
002FFF10000000000000
000BFF90230000000000
0002DFFFFFC000000000
00007FFFFFE100000000
001CFFFF920000000000
01DFFFC2000000000000
0AFFFB10000000000000
3FFFD100000000000000
9FFF5000000350000000
AFFF0000004EC0000000
9FFE000004EFC0000000
3FFF60029FFE40000000
07FFFDDFFFC300000000
0039DEEC940000000000
ENDCHAR
STARTCHAR ebreve
ENCODING 277
SWIDTH 471 0
DWIDTH 15 0
BBX 16 24 1 0
BITMAP
0000005E600000B5
000001FF900008F7
000004FFE301AFE1
000002FFFFDFFF50
0000009FFFFFF600
00000007DED92000
0000000000000000
0000000000000000
00000029DFEA1000
000008FFEDFFD000
0000AFFA10AFF600
000BFFB0008FF900
007FFE1000BFF800
03FFF80004FFF500
0AFFF1002EFFD000
2FFFA004EFFE3000
6FFF75BFFFC30000
9FFFFFFFB5000000
BFFE764100000000
AFFC000000000000
7FFE000001B90000
2FFF80016EFA0000
05FFFDCFFFC20000
003AEFED94000000
ENDCHAR
STARTCHAR Edotaccent
ENCODING 278
SWIDTH 509 0
DWIDTH 16 0
BBX 18 31 1 0
BITMAP
000000000004750000
00000000008FFF8000
0000000000EFFFB000
0000000000CFFF8000
00000000003EFA1000
000000000000100000
000000000000000000
0000000017BEFEC810
00000007EFFFECEFD1
000001BFFFB4000DF8
00001CFFF700000CFA
0000AFFF6000005FFA
0005FFFA000004EFF6
000CFFE100007FFFD0
002FFF80000BFFFF40
004FFF30000EFFF500
005FFF100003AA3000
002FFF100000000000
000BFF902300000000
0002DFFFFFC0000000
00007FFFFFE1000000
001CFFFF9200000000
01DFFFC20000000000
0AFFFB100000000000
3FFFD1000000000000
9FFF50000003500000
AFFF0000004EC00000
9FFE000004EFC00000
3FFF60029FFE400000
07FFFDDFFFC3000000
0039DEEC9400000000
ENDCHAR
STARTCHAR edotaccent
ENCODING 279
SWIDTH 471 0
DWIDTH 15 0
BBX 14 24 1 0
BITMAP
000000005DFB10
00000002FFFF70
00000003FFFF60
00000000CFFD10
00000000188100
00000000000000
00000000000000
00000000000000
00000029DFEA10
000008FFEDFFD0
0000AFFA10AFF6
000BFFB0008FF9
007FFE1000BFF8
03FFF80004FFF5
0AFFF1002EFFD0
2FFFA004EFFE30
6FFF75BFFFC300
9FFFFFFFB50000
BFFE7641000000
AFFC0000000000
7FFE000001B900
2FFF80016EFA00
05FFFDCFFFC200
003AEFED940000
ENDCHAR
STARTCHAR Eogonek
ENCODING 280
SWIDTH 509 0
DWIDTH 16 0
BBX 18 32 1 -8
BITMAP
0000000017BEFEC810
00000007EFFFECEFD1
000001BFFFB4000DF8
00001CFFF700000CFA
0000AFFF6000005FFA
0005FFFA000004EFF6
000CFFE100007FFFD0
002FFF80000BFFFF40
004FFF30000EFFF500
005FFF100003AA3000
002FFF100000000000
000BFF902300000000
0002DFFFFFC0000000
00007FFFFFE1000000
001CFFFF9200000000
01DFFFC20000000000
0BFFFB100000000000
4FFFD1000000000000
8FFF50000003500000
AFFF0000004EC00000
9FFE000004EFC00000
4FFF60029FFF400000
07FFFDDFFFD3000000
003ADFFFD500000000
000009FB1000000000
0000AFC10000000000
0007FF200000000000
001EFB000000000000
007FFC161000000000
00AFFFFE1000000000
007FFFF60000000000
0019CA400000000000
ENDCHAR
STARTCHAR eogonek
ENCODING 281
SWIDTH 471 0
DWIDTH 15 0
BBX 14 24 1 -8
BITMAP
00000028DFEA20
000008FFEDFFD1
0001BFFA10AFF6
000AFFB0008FF9
007FFF2000BFF8
02FFF80004FFF5
0AFFF1002EFFD0
2FFFB004EFFE30
6FFF75BFFFC200
9FFFFFFFC60000
AFFE8741000000
AFFC0000000000
7FFE100001B900
1EFF80016DFA00
05FFFDCFFFD200
003AEFFFF90000
000005EF500000
00005FF4000000
0002EF80000000
000AFF20000000
002FFF34400000
004FFFFF600000
002FFFFB000000
0006CB70000000
ENDCHAR
STARTCHAR Ecaron
ENCODING 282
SWIDTH 509 0
DWIDTH 16 0
BBX 20 31 1 0
BITMAP
00000000036300000160
000000005FFF80002CF4
0000000008FFF418FFF2
0000000000DFFDEFFB30
00000000006FFFE82000
000000000008B5000000
00000000000000000000
0000000017BEFEC81000
00000007EFFFECEFD100
000001BFFFB4000DF800
00001CFFF700000CFA00
0000AFFF6000005FFA00
0005FFFA000004EFF600
000CFFE100007FFFD000
002FFF80000BFFFF4000
004FFF30000EFFF50000
005FFF100003AA300000
002FFF10000000000000
000BFF90230000000000
0002DFFFFFC000000000
00007FFFFFE100000000
001CFFFF920000000000
01DFFFC2000000000000
0AFFFB10000000000000
3FFFD100000000000000
9FFF5000000350000000
AFFF0000004EC0000000
9FFE000004EFC0000000
3FFF60029FFE40000000
07FFFDDFFFC300000000
0039DEEC940000000000
ENDCHAR
STARTCHAR ecaron
ENCODING 283
SWIDTH 471 0
DWIDTH 15 0
BBX 17 24 1 0
BITMAP
0000005A91000009B0
0000008FF90001BFE0
0000001FFF104DFF60
0000000AFF5AFFD400
00000006FFFFD60000
00000002FFC6000000
000000004400000000
000000000000000000
00000029DFEA100000
000008FFEDFFD00000
0000AFFA10AFF60000
000BFFB0008FF90000
007FFE1000BFF80000
03FFF80004FFF50000
0AFFF1002EFFD00000
2FFFA004EFFE300000
6FFF75BFFFC3000000
9FFFFFFFB500000000
BFFE76410000000000
AFFC00000000000000
7FFE000001B9000000
2FFF80016EFA000000
05FFFDCFFFC2000000
003AEFED9400000000
ENDCHAR
STARTCHAR Gcircumflex
ENCODING 284
SWIDTH 598 0
DWIDTH 19 0
BBX 21 32 1 0
BITMAP
0000000000000000010000
0000000000000001BE5000
000000000000002CFFD000
00000000000006EFFFF500
000000000004CFFA8FFD10
00000000008FFE601CFF90
0000000000175000006730
0000000000000000000000
000000000028CEEB400000
000000001AFFFECFF60000
00000004EFFC4005FE1000
0000006FFFA00002FF6000
000005FFFA000005FF8000
00003FFFB000000CFF7000
0001DFFE2000008FFF3000
0008FFF6000007FFFD0000
002FFFC000009FFFF40000
009FFF500002FFFF800000
01EFFD0000009FF7000000
05FFF70000000210000000
0AFFF20000000000000000
0EFFC00000265201560000
2FFF900004EFFFFFFC0000
4FFF60000BFFFFFFF50000
5FFF4000004EFFEB400000
6FFF30000009FF10000000
5FFF30000009FD00000000
2FFF5000000EF600000000
0DFFA000009FB000000000
05FFF6001AFD1000000000
008FFFDCFFB10000000000
0004AEFEA4000000000000
ENDCHAR
STARTCHAR gcircumflex
ENCODING 285
SWIDTH 526 0
DWIDTH 17 0
BBX 17 34 1 -9
BITMAP
0000000000005A2000
000000000006FFC000
00000000008FFFF100
000000002BFFDFF400
00000006EFE46FF900
000005DFFB201FFE10
000006EC500005EE30
000000000000000000
000000000000000000
00000029DFD7002000
000008FFFDFF6AFB00
0001BFFB202DFFFD00
000BFFB00005FFF700
008FFE100008FFF200
03FFF700000DFFB000
0BFFE100003FFF6000
2FFF900000AFFF2000
7FFF400002FFFC0000
AFFF100009FFF70000
CFFC00003FFFF30000
CFFB0000CFFFD00000
AFFB0009FFFF800000
6FFE109FBEFF400000
0DFFEEFA4FFD000000
02AEEB508FF8000000
00000000EFF2000000
00000006FFA0000000
0000000DFF30000000
0000008FF900000000
000004FFE100000000
00004EFF4000000000
0018FFF60000000000
09EFFE500000000000
07DD81000000000000
ENDCHAR
STARTCHAR Gbreve
ENCODING 286
SWIDTH 598 0
DWIDTH 19 0
BBX 22 31 1 0
BITMAP
0000000000006E600000C5
000000000002FF900009F6
000000000004FFF403CFE1
000000000002FFFFFFFF40
0000000000008FFFFFE400
00000000000005ACA71000
0000000000000000000000
000000000028CEEB400000
000000001AFFFECFF60000
00000004EFFC4005FE1000
0000006FFFA00002FF6000
000005FFFA000005FF8000
00003FFFB000000CFF7000
0001DFFE2000008FFF3000
0008FFF6000007FFFD0000
002FFFC000009FFFF40000
009FFF500002FFFF800000
01EFFD0000009FF7000000
05FFF70000000210000000
0AFFF20000000000000000
0EFFC00000265201560000
2FFF900004EFFFFFFC0000
4FFF60000BFFFFFFF50000
5FFF4000004EFFEB400000
6FFF30000009FF10000000
5FFF30000009FD00000000
2FFF5000000EF600000000
0DFFA000009FB000000000
05FFF6001AFD1000000000
008FFFDCFFB10000000000
0004AEFEA4000000000000
ENDCHAR
STARTCHAR gbreve
ENCODING 287
SWIDTH 526 0
DWIDTH 17 0
BBX 17 33 1 -9
BITMAP
00000001CD000005C0
00000009FF10002ED0
0000000CFF9005EF70
0000000AFFFEEFFC00
00000003EFFFFFB100
000000003BEEB60000
000000000000000000
000000000000000000
00000029DFD7002000
000008FFFDFF6AFB00
0001BFFB202DFFFD00
000BFFB00005FFF700
008FFE100008FFF200
03FFF700000DFFB000
0BFFE100003FFF6000
2FFF900000AFFF2000
7FFF400002FFFC0000
AFFF100009FFF70000
CFFC00003FFFF30000
CFFB0000CFFFD00000
AFFB0009FFFF800000
6FFE109FBEFF400000
0DFFEEFA4FFD000000
02AEEB508FF8000000
00000000EFF2000000
00000006FFA0000000
0000000DFF30000000
0000008FF900000000
000004FFE100000000
00004EFF4000000000
0018FFF60000000000
09EFFE500000000000
07DD81000000000000
ENDCHAR
STARTCHAR Gdotaccent
ENCODING 288
SWIDTH 598 0
DWIDTH 19 0
BBX 19 31 1 0
BITMAP
00000000000002772000
0000000000002EFFE100
0000000000007FFFF300
0000000000005FFFE000
0000000000000AFD4000
00000000000000100000
00000000000000000000
000000000028CEEB4000
000000001AFFFECFF600
00000004EFFC4005FE10
0000006FFFA00002FF60
000005FFFA000005FF80
00003FFFB000000CFF70
0001DFFE2000008FFF30
0008FFF6000007FFFD00
002FFFC000009FFFF400
009FFF500002FFFF8000
01EFFD0000009FF70000
05FFF700000002100000
0AFFF200000000000000
0EFFC000002652015600
2FFF900004EFFFFFFC00
4FFF60000BFFFFFFF500
5FFF4000004EFFEB4000
6FFF30000009FF100000
5FFF30000009FD000000
2FFF5000000EF6000000
0DFFA000009FB0000000
05FFF6001AFD10000000
008FFFDCFFB100000000
0004AEFEA40000000000
ENDCHAR
STARTCHAR gdotaccent
ENCODING 289
SWIDTH 526 0
DWIDTH 17 0
BBX 16 33 1 -9
BITMAP
0000000001BFD500
000000000AFFFE00
000000000BFFFD00
0000000006FFF600
0000000000594000
0000000000000000
0000000000000000
0000000000000000
00000029DFD70020
000008FFFDFF6AFB
0001BFFB202DFFFD
000BFFB00005FFF7
008FFE100008FFF2
03FFF700000DFFB0
0BFFE100003FFF60
2FFF900000AFFF20
7FFF400002FFFC00
AFFF100009FFF700
CFFC00003FFFF300
CFFB0000CFFFD000
AFFB0009FFFF8000
6FFE109FBEFF4000
0DFFEEFA4FFD0000
02AEEB508FF80000
00000000EFF20000
00000006FFA00000
0000000DFF300000
0000008FF9000000
000004FFE1000000
00004EFF40000000
0018FFF600000000
09EFFE5000000000
07DD810000000000
ENDCHAR
STARTCHAR Gcommaaccent
ENCODING 290
SWIDTH 598 0
DWIDTH 19 0
BBX 19 33 1 -9
BITMAP
000000000028CEEB4000
000000001AFFFECFF500
00000004EFFC4005FE10
0000006FFFA00002FF50
000005FFFA000004FF70
00003FFFB000000AFF70
0001DFFE2000004FFF50
0008FFF6000002EFFF10
002FFFC000002DFFF900
009FFF500001EFFFE100
01EFFD000002FFFF4000
05FFF70000005ED30000
0AFFF200000000000000
0EFFC000000000000000
2FFF9000003752015600
4FFF600006FFFFFFFC00
5FFF400008DFFFFFF500
6FFF3000000CFFEB4000
5FFF30000008FF100000
2FFF5000000CFB000000
0DFFA000006FF3000000
05FFF60019FF50000000
008FFFDCFFD400000000
0004AEFEB61000000000
00000000000000000000
00037400000000000000
004FFF40000000000000
006FFF80000000000000
000CFF50000000000000
000CFE10000000000000
003FF600000000000000
01DF8000000000000000
08D50000000000000000
ENDCHAR
STARTCHAR gcommaaccent
ENCODING 291
SWIDTH 526 0
DWIDTH 17 0
BBX 16 34 1 -9
BITMAP
0000000000006D80
00000000000BFC10
0000000000AFE100
0000000003FFC000
0000000007FFF400
0000000004FFF500
0000000000362000
0000000000000000
0000000000000000
00000029DFD70020
000008FFFDFF6AFB
0001BFFB202DFFFD
000BFFB00005FFF7
008FFE100008FFF2
03FFF700000DFFB0
0BFFE100003FFF60
2FFF900000AFFF20
7FFF400002FFFC00
AFFF100009FFF700
CFFC00003FFFF300
CFFB0000CFFFD000
AFFB0009FFFF8000
6FFE109FBEFF4000
0DFFEEFA4FFD0000
02AEEB508FF80000
00000000EFF20000
00000006FFA00000
0000000DFF300000
0000008FF9000000
000004FFE1000000
00004EFF40000000
0018FFF600000000
09EFFE5000000000
07DD810000000000
ENDCHAR
STARTCHAR Hcircumflex
ENCODING 292
SWIDTH 668 0
DWIDTH 21 0
BBX 24 32 -1 0
BITMAP
000000000000000001000000
00000000000000007F900000
0000000000000019FFF30000
00000000000003DFFFF90000
0000000000029FFD5FFF4000
00000000003FFF8108FFD000
000000000005610000475000
000000000000000000000000
00004ADFFD80000000007EA1
0000EFFEEFF700000000DFF7
00004B60CFF900000001FFF6
00000000EFF800000005FFF3
00000002FFF600000009FFD0
00000005FFF30000000DFF90
00000009FFE00000003FFF30
0000000DFFB00000008FFD00
0000002FFF70000000DFF700
0000007FFF20000003FFF200
000000BFFE89ABBBCDFFE920
00005CFFFFFFFFFFFFFFFF20
0001EFFFF42100139FFFD500
00002DFFA0000000BFF90000
00003FFF40000001FFF30000
00009FFD00000006FFC00000
0001EFF60000000BFF600000
0007FFE00000002FFF100000
001EFF700000006FFA000000
008FFD00000000BFF6000000
03FFF400000000FFF5041000
1DFF7000000001FFFEEF1000
DFF90000000000DFFFF80000
CD6000000000003DEC500000
ENDCHAR
STARTCHAR hcircumflex
ENCODING 293
SWIDTH 555 0
DWIDTH 18 0
BBX 17 31 0 0
BITMAP
000000000069100000
0000000008FFA00000
000000019FFFD00000
0000003CFEEFF20000
000007FFD39FF70000
0006DFFA103FFD0000
0007EB400007ED2000
0000000AE800000000
0000001FFF30000000
0000004FFF40000000
0000007FFF10000000
000000AFFD00000000
000000DFF900000000
000002FFF400000000
000006FFE000000000
00000BFF9004CED600
00001EFF406FFFFF30
00005FFD05FFFFFF70
0000AFF83EF51FFF50
0001FFF3DF404FFF20
0005FFBBF600AFFC00
000BFFCF8003FFF500
002FFFFB000AFFD000
008FFFD1002FFF6000
00EFFE20008FFE0000
05FFF60000DFF80000
0CFFD00002FFF40000
4FFF500004FFF30400
BFFD000003FFFEEE00
EFF6000000DFFFF700
5EC00000003CFD6000
ENDCHAR
STARTCHAR Hbar
ENCODING 294
SWIDTH 668 0
DWIDTH 21 0
BBX 27 24 -2 0
BITMAP
000004ADFFD80000000007EB1000
00000EFFEEFF700000000DFF7000
000004B60CFF900000001FFF6000
000000000EFF800000005FFF2000
000000002FFF600000009FFD0000
000000148FFFCCDDEEFFFFFFFE80
00006CFFFFFFFFFFFFFFFFFFFF60
0000BFFFFFFEDDDDDDDEFFECC700
00000311FFF70000000CFF700000
00000005FFF20000003FFF200000
0000000AFFE89ABBBCDFFE920000
0000028EFFFFFFFFFFFFFFD10000
00001EFFFF42100128FFD6100000
000005DFFA0000000BFF60000000
000002FFF40000002FFF10000000
000008FFD00000007FFA00000000
00000EFF60000000CFF500000000
00006FFE00000002FFE000000000
0000DFF700000007FFA000000000
0007FFD00000000BFF6000000000
002EFF400000000FFF5041000000
01CFF7000000001FFFEEF1000000
0CFF90000000000DFFFF80000000
1CD6000000000003DEC500000000
ENDCHAR
STARTCHAR hbar
ENCODING 295
SWIDTH 555 0
DWIDTH 18 0
BBX 17 26 0 0
BITMAP
00000003ED20000000
00000008FFB0000000
0000000AFFC0000000
0000000DFFA0000000
00009EFFFFFFFFA000
0003BCDFFFCCB81000
0000009FFC00000000
000000DFF700000000
000002FFF200000000
000006FFC000000000
00000BFF7004BED600
00001FFF206FFFFF30
00005FFC05FFFFFF70
0000AFF73EF51FFF50
0000EFF2DF403FFF20
0005FFABF500AFFC00
000AFFCF7002FFF500
001FFFFA0009FFD000
007FFFD1002FFF6000
00DFFE20008FFE0000
04FFF60000DFF80000
0BFFD00002FFF40000
3FFF600004FFF30400
AFFD000003FFFEEE00
EFF6000000DFFFF800
5DC00000003CFD6000
ENDCHAR
STARTCHAR Itilde
ENCODING 296
SWIDTH 327 0
DWIDTH 10 0
BBX 18 31 -1 0
BITMAP
000000029DC60001B3
0000004EFFFF801AF4
000003EFFFFFFEFFC0
00000AF715FFFFFC10
00000A80003BED7000
000000000000000000
000000000000000000
000017CEED81000000
00008FFFDFFC000000
000019A25FFF100000
000000007FFF100000
00000000AFFE000000
00000000DFFC000000
00000001FFF8000000
00000005FFF5000000
00000009FFF1000000
0000000DFFC0000000
0000003FFF70000000
0000007FFF30000000
000000CFFD00000000
000002FFF700000000
000008FFF200000000
00000DFFB000000000
00005FFF4000000000
0000BFFC0000000000
0003FFF50000000000
000CFFB00000000000
006FFE200000000000
03EFF6000000000000
2EFF70000000000000
2DD500000000000000
ENDCHAR
STARTCHAR itilde
ENCODING 297
SWIDTH 286 0
DWIDTH 9 0
BBX 14 24 0 0
BITMAP
00007DFB30006C
000BFFFFE304EC
009FFEFFFFEFF5
01FD209FFFFF70
02D30007EEB400
00000000000000
00000000000000
00000000000000
0002BEEA000000
0006FFFF100000
0000BFFE000000
0000BFF9000000
0001EFF4000000
0006FFC0000000
000CFF50000000
003FFD00000000
00AFF700000000
01FFE100000000
07FF9000000000
0CFF4000000000
0FFF4000000000
1FFFFFA0000000
0DFFFF60000000
03CFD700000000
ENDCHAR
STARTCHAR Imacron
ENCODING 298
SWIDTH 327 0
DWIDTH 10 0
BBX 17 29 -1 0
BITMAP
0000009FFFFFFFFF60
000007FFFFFFFFFF30
000006CDDDDDDDC500
000000000000000000
000000000000000000
000017CEED81000000
00008FFFDFFC000000
000019A25FFF100000
000000007FFF100000
00000000AFFE000000
00000000DFFC000000
00000001FFF8000000
00000005FFF5000000
00000009FFF1000000
0000000DFFC0000000
0000003FFF70000000
0000007FFF30000000
000000CFFD00000000
000002FFF700000000
000008FFF200000000
00000DFFB000000000
00005FFF4000000000
0000BFFC0000000000
0003FFF50000000000
000CFFB00000000000
006FFE200000000000
03EFF6000000000000
2EFF70000000000000
2DD500000000000000
ENDCHAR
STARTCHAR imacron
ENCODING 299
SWIDTH 286 0
DWIDTH 9 0
BBX 13 21 0 0
BITMAP
008EFFFFFFFF80
05FFFFFFFFFF60
05CDDDDDDDD600
00000000000000
00000000000000
0002BEEA000000
0006FFFF100000
0000BFFE000000
0000BFF9000000
0001EFF4000000
0006FFC0000000
000CFF50000000
003FFD00000000
00AFF700000000
01FFE100000000
07FF9000000000
0CFF4000000000
0FFF4000000000
1FFFFFA0000000
0DFFFF60000000
03CFD700000000
ENDCHAR
STARTCHAR Ibreve
ENCODING 300
SWIDTH 327 0
DWIDTH 10 0
BBX 17 31 -1 0
BITMAP
00000003D900000980
0000000DFD00006FA0
0000001FFF7129FF30
0000000DFFFFFFF700
00000005FFFFFF7000
000000003ACB820000
000000000000000000
000017CEED81000000
00008FFFDFFC000000
000019A25FFF100000
000000007FFF100000
00000000AFFE000000
00000000DFFC000000
00000001FFF8000000
00000005FFF5000000
00000009FFF1000000
0000000DFFC0000000
0000003FFF70000000
0000007FFF30000000
000000CFFD00000000
000002FFF700000000
000008FFF200000000
00000DFFB000000000
00005FFF4000000000
0000BFFC0000000000
0003FFF50000000000
000CFFB00000000000
006FFE200000000000
03EFF6000000000000
2EFF70000000000000
2DD500000000000000
ENDCHAR
STARTCHAR ibreve
ENCODING 301
SWIDTH 286 0
DWIDTH 9 0
BBX 14 24 0 0
BITMAP
00009E200002D1
0005FF50001CF2
0008FFC103CFB0
0006FFFEEFFE20
0001DFFFFFD300
000019DEC71000
00000000000000
00000000000000
0002BEEA000000
0006FFFF100000
0000BFFE000000
0000BFF9000000
0001EFF4000000
0006FFC0000000
000CFF50000000
003FFD00000000
00AFF700000000
01FFE100000000
07FF9000000000
0CFF4000000000
0FFF4000000000
1FFFFFA0000000
0DFFFF60000000
03CFD700000000
ENDCHAR
STARTCHAR Iogonek
ENCODING 302
SWIDTH 327 0
DWIDTH 10 0
BBX 17 32 -5 -8
BITMAP
0000000017CEED8100
000000008FFFDFFC00
0000000019A25FFF10
0000000000007FFF10
000000000000AFFE00
000000000000DFFB00
000000000001FFF800
000000000005FFF500
000000000009FFF100
00000000000DFFC000
00000000003FFF7000
00000000007FFF3000
0000000000CFFD0000
0000000002FFF70000
0000000008FFF20000
000000000EFFB00000
000000005FFF400000
00000000CFFC000000
00000004FFF4000000
0000000CFFB0000000
0000007FFE20000000
000004FFF500000000
00003FFF6000000000
00006FE40000000000
0007FC200000000000
007FD1000000000000
04FF50000000000000
0CFE00000000000000
4FFE15300000000000
6FFFFF400000000000
4FFFF9000000000000
07CB50000000000000
ENDCHAR
STARTCHAR iogonek
ENCODING 303
SWIDTH 297 0
DWIDTH 10 0
BBX 12 32 -1 -8
BITMAP
00000004DFB2
0000001FFFF9
0000002FFFF7
0000000BFFE2
000000018820
000000000000
000000000000
000000000000
000009EFC200
00002FFFF600
000007FFF400
000006FFE000
00000AFF9000
00001FFF3000
00007FFB0000
0000DFF50000
0004FFD00000
000BFF700000
002FFF100000
006FFA000000
00AFF8000000
00CFFD990000
009FFFFC0000
002CFFD20000
0008FB100000
009FC1000000
07FF20000000
2FFA00000000
8FF904000000
BFFFEE000000
AFFFF6000000
2CEC50000000
ENDCHAR
STARTCHAR Idotaccent
ENCODING 304
SWIDTH 327 0
DWIDTH 10 0
BBX 13 31 -1 0
BITMAP
00000000167300
00000001CFFF40
00000004FFFF70
00000002FFFF30
000000007FE600
00000000011000
00000000000000
000017CEED8100
00008FFFDFFC00
000019A25FFF10
000000007FFF10
00000000AFFE00
00000000DFFC00
00000001FFF800
00000005FFF500
00000009FFF100
0000000DFFC000
0000003FFF7000
0000007FFF3000
000000CFFD0000
000002FFF70000
000008FFF20000
00000DFFB00000
00005FFF400000
0000BFFC000000
0003FFF5000000
000CFFB0000000
006FFE20000000
03EFF600000000
2EFF7000000000
2DD50000000000
ENDCHAR
STARTCHAR dotlessi
ENCODING 305
SWIDTH 286 0
DWIDTH 9 0
BBX 9 16 0 0
BITMAP
0002BEEA00
0006FFFF10
0000BFFE00
0000BFF900
0001EFF400
0006FFC000
000CFF5000
003FFD0000
00AFF70000
01FFE10000
07FF900000
0CFF400000
0FFF400000
1FFFFFA000
0DFFFF6000
03CFD70000
ENDCHAR
STARTCHAR IJ
ENCODING 306
SWIDTH 720 0
DWIDTH 23 0
BBX 25 33 -1 -9
BITMAP
000017CEED81000016BEFEB600
00008FFFDFFC0029FFFFEEFFA0
000019A25FFF13EFFFC409FFF0
000000007FFF1CFFF9000BFFF0
00000000AFFE06FF70000DFFD0
00000000DFFC001300001FFFA0
00000001FFF8000000005FFF70
00000005FFF5000000009FFF40
00000009FFF100000000DFFE00
0000000DFFC000000003FFFB00
0000003FFF7000000007FFF600
0000007FFF300000000CFFF100
000000CFFD000000002FFFB000
000002FFF7000000007FFF6000
000008FFF200000000DFFF1000
00000DFFB000000004FFFB0000
00005FFF400000000AFFF40000
0000BFFC000000001FFFD00000
0003FFF5000000008FFF600000
000CFFB000000001EFFE100000
006FFE2000000007FFF8000000
03EFF6000000001DFFE1000000
2EFF70000000007FFF70000000
2DD50000000001EFFD10000000
00000000000009FFF500000000
0000000000003FFFA000000000
000000000000DFFE1000000000
000000000009FFF40000000000
00000000007FFF700000000000
0000000006FFF8000000000000
000000008FFF70000000000000
0000005DFFE500000000000000
000000CFC71000000000000000
ENDCHAR
STARTCHAR ij
ENCODING 307
SWIDTH 567 0
DWIDTH 18 0
BBX 19 33 0 -9
BITMAP
0000007EE900004DFB20
000005FFFF4001FFFF80
000006FFFF3002FFFF70
000002EFFB0000BFFE10
00000039700000188200
00000000000000000000
00000000000000000000
00000000000000000000
0002BEEA00004CFE8000
0006FFFF10009FFFD000
0000BFFE00001EFFD000
0000BFF900000DFFB000
0001EFF400000EFF9000
0006FFC000001FFF6000
000CFF5000004FFF3000
003FFD0000007FFE0000
00AFF7000000BFFA0000
01FFE1000001EFF60000
07FF90000005FFF20000
0CFF40000009FFC00000
0FFF4000000EFF600000
1FFFFFA0004FFF100000
0DFFFF6000AFFA000000
03CFD70002FFF4000000
0000000008FFC0000000
000000001EFF40000000
000000007FFB00000000
00000002EFE200000000
0000000AFF7000000000
0000007FFA0000000000
000006FFB10000000000
0002BFFA100000000000
0003EC50000000000000
ENDCHAR
STARTCHAR Jcircumflex
ENCODING 308
SWIDTH 393 0
DWIDTH 13 0
BBX 23 40 -6 -9
BITMAP
000000000000000000481000
000000000000000005FFB000
00000000000000009FFFF200
000000000000004DFFDFF900
0000000000004CFFD33FFF40
0000000000005ED70005DF90
000000000000000000000000
0000000000038CEED9300000
0000000005DFFFFDFFF30000
000000009FFFF812FFF80000
00000004FFFE4003FFF70000
00000001CFD20005FFF50000
0000000004100009FFF30000
000000000000000CFFE00000
000000000000001FFFB00000
000000000000006FFF700000
00000000000000AFFF300000
00000000000000EFFE000000
00000000000004FFF9000000
0000000000000AFFF4000000
0000000000000EFFE0000000
0000000000005FFF90000000
000000000000BFFF30000000
000000000002FFFC00000000
000000000008FFF500000000
00000000001EFFE000000000
00000000007FFF7000000000
0000000000EFFE1000000000
0000000006FFF80000000000
000000001EFFE10000000000
000000007FFF700000000000
00000002EFFC000000000000
0000000AFFF3000000000000
0000005FFF80000000000000
000002EFFB00000000000000
00001DFFD100000000000000
0001CFFE2000000000000000
003DFFD20000000000000000
1AFFFA100000000000000000
4EEA40000000000000000000
ENDCHAR
STARTCHAR jcircumflex
ENCODING 309
SWIDTH 282 0
DWIDTH 9 0
BBX 18 34 -6 -9
BITMAP
000000000000002100
00000000000004EE30
0000000000005FFF80
000000000008FFFFB0
0000000002CFF7EFF1
000000028FFE40AFF6
0000000EFFA1003FFD
000000037200000374
000000000000000000
0000000004CFE70000
000000000AFFFD0000
0000000001FFFC0000
0000000000EFFA0000
0000000000FFF80000
0000000003FFF50000
0000000006FFF10000
0000000009FFD00000
000000000DFF800000
000000002FFF400000
000000007FFE000000
00000000CFFA000000
00000001FFF5000000
00000007FFE0000000
0000000DFF80000000
0000004FFF20000000
000000BFFA00000000
000002FFF300000000
00000AFF9000000000
00003FFE1000000000
0000CFF50000000000
0008FF900000000000
007FFA000000000000
2BFF90000000000000
4EC400000000000000
ENDCHAR
STARTCHAR Kcommaaccent
ENCODING 310
SWIDTH 616 0
DWIDTH 20 0
BBX 23 33 -2 -9
BITMAP
000017BEFC700000004EE800
0000AFFFDFF90000002FFF60
00003CA26FFF0000000EFFA0
000000008FFF0000000FFFB0
00000000BFFD0000004FFF80
00000000EFFB000000AFFF20
00000003FFF8000004FFF900
00000006FFF400002EFFB000
0000000AFFF10001DFFC1000
0000000EFFC0002DFFA10000
0000004FFF8003EFF7000000
0000008FFF307FFD30000000
000000DFFD1AFF9100000000
000003FFFBDFE50000000000
000009FFFDFFE30000000000
00000EFFC1CFFE2000000000
00006FFF602EFFD100000000
0000CFFE1007FFF900000000
0004FFF70000DFFF40000000
000CFFD100005FFFE1000000
007FFF5000000BFFFB000000
03FFF900000002EFFFC42100
3EFFA0000000004EFFFFF500
3ED7000000000002AEFC6000
000000000000000000000000
000000047300000000000000
0000006FFE20000000000000
0000009FFF40000000000000
0000001EFF20000000000000
0000000EFC00000000000000
0000006FF300000000000000
000003EF5000000000000000
00000AC30000000000000000
ENDCHAR
STARTCHAR kcommaaccent
ENCODING 311
SWIDTH 497 0
DWIDTH 16 0
BBX 17 35 0 -9
BITMAP
000000006500000000
00000006FF60000000
0000000AFFA0000000
0000000CFF80000000
0000000FFF50000000
0000004FFF10000000
0000007FFC00000000
000000BFF800000000
000001FFF300000000
000004FFD000000000
000009FF8002CFD500
00000DFF3002DFFF10
00003FFD00009FFF10
00008FF70001EFFD00
0000DFF2002CFFF400
0003FFB005EFFE5000
0009FF53BFFFA20000
000EFFCFFE92000000
005FFFFFE100000000
00BFFCFFF300000000
03FFF3CFFA00000000
0AFFB06FFF50000000
2FFF400DFFE4002000
AFFC0005FFFFCDE000
EFF500008FFFFF7000
6EA0000006DFC50000
000000000000000000
000166000000000000
000CFFA00000000000
001EFFD00000000000
0006FFB00000000000
0006FF600000000000
000CFC000000000000
009FC1000000000000
02E910000000000000
ENDCHAR
STARTCHAR kgreenlandic
ENCODING 312
SWIDTH 497 0
DWIDTH 16 0
BBX 17 16 0 0
BITMAP
0003CFD40001BFD700
0007FFFC0001CFFF30
0000CFFC00007FFF40
0000CFF80001DFFE10
0001FFF4001BFFF600
0005FFD004DFFF7000
000AFF83BFFFB30000
001FFFEFFFA4000000
007FFFFFF200000000
00DFFFCFF600000000
04FFF96FFD00000000
0BFFF11EFF80000000
3FFF9009FFF8004000
AFFF2001EFFFEEF100
EFF900004FFFFF8000
5DC1000003CFD60000
ENDCHAR
STARTCHAR Lacute
ENCODING 313
SWIDTH 517 0
DWIDTH 17 0
BBX 21 32 -1 0
BITMAP
0000000000000000003100
000000000000000007FD20
00000000000000001EFF60
00000000000000008FFF30
0000000000000005FFF500
000000000000005FFB3000
0000000000000047300000
0000000000000000000000
0000000000007CEEA10000
00000000002DFFDDFD1000
0000000002EFF800BF8000
000000001DFF90008FD000
000000008FFE1000AFF000
00000002FFF70001EFE000
0000000AFFE1000AFFA000
0000002FFF80008FFF5000
0000009FFF2009FFFC0000
000001EFFC01CFFFF30000
000006FFF604FFFF500000
00000CFFE1008ED4000000
00002FFF90000000000000
00007FFF30000000000000
0000DFFC00000000000000
0003FFF500000000000000
0009FFD000000000000000
000EFF6000000000000000
006FFC0000000000000000
00DFF30000000000000000
09FF70369BDEEB50000000
7FFEBFFFFFFFFFF5000000
8FFFFFFFFEDEFFFB000000
1CEC9642000026CB000000
ENDCHAR
STARTCHAR lacute
ENCODING 314
SWIDTH 279 0
DWIDTH 9 0
BBX 14 32 1 0
BITMAP
00000000001300
00000000009FD1
0000000001EFF5
0000000009FFE2
000000007FFE40
00000006FFB200
00000004730000
00000000000000
000000DD300000
000004FFB00000
000006FFB00000
00000AFF800000
00000EFF400000
00003FFE100000
00008FFA000000
0000DFF5000000
0003FFF1000000
0008FFA0000000
000DFF50000000
003FFE00000000
009FF900000000
00EFF400000000
04FFE000000000
09FF9000000000
0EFF4000000000
5FFD0000000000
9FF90000000000
DFF50000000000
FFF50400000000
EFFEEF10000000
9FFFF900000000
1AED7000000000
ENDCHAR
STARTCHAR Lcommaaccent
ENCODING 315
SWIDTH 517 0
DWIDTH 17 0
BBX 19 33 -1 -9
BITMAP
0000000000007CEEA100
00000000002DFFDDFD10
0000000002EFF800BF80
000000001DFF90008FD0
000000008FFE1000AFF0
00000002FFF70001EFE0
0000000AFFE1000AFFA0
0000002FFF80008FFF50
0000009FFF2009FFFC00
000001EFFC01CFFFF300
000006FFF604FFFF5000
00000CFFE1008ED40000
00002FFF900000000000
00007FFF300000000000
0000DFFC000000000000
0003FFF5000000000000
0009FFD0000000000000
000EFF60000000000000
006FFC00000000000000
00DFF300000000000000
09FF70369BDEEB500000
7FFEBFFFFFFFFFF50000
8FFFFFFFFEDEFFFB0000
1CEC9642000026CB0000
00000000000000000000
00006710000000000000
000BFFB0000000000000
000DFFF0000000000000
0005FFD0000000000000
0005FF70000000000000
000BFD10000000000000
007FD200000000000000
01EA1000000000000000
ENDCHAR
STARTCHAR lcommaaccent
ENCODING 316
SWIDTH 279 0
DWIDTH 9 0
BBX 12 35 -1 -9
BITMAP
000000004720
00000001FFD1
00000003FFF3
00000005FFF2
00000008FFD0
0000000CFF90
0000000FFF50
0000004FFF10
0000009FFA00
000000DFF500
000003FFE100
000008FFA000
00000DFF4000
00003FFE0000
00008FF90000
0000DFF30000
0004FFD00000
0009FF800000
000EFF300000
004FFD000000
008FF9000000
00CFF6000000
00EFF5000000
00DFFFDD2000
009FFFFC0000
001AEE910000
000000000000
001661000000
00CFFA000000
01EFFD000000
006FFB000000
006FF6000000
00CFC0000000
09FD10000000
2E9100000000
ENDCHAR
STARTCHAR Lcaron
ENCODING 317
SWIDTH 517 0
DWIDTH 17 0
BBX 26 30 -1 0
BITMAP
0000000000000000000001BFA0
0000000000000000000007FFF2
0000000000000000000004FFF1
0000000000000000000001FFD0
0000000000000000000003FF70
0000000000000000000009FD10
0000000000007CEEA1004FE300
00000000002DFFDDFD11ED3000
0000000002EFF800BF80200000
000000001DFF90008FD0000000
000000008FFE1000AFF0000000
00000002FFF70001EFE0000000
0000000AFFE1000AFFA0000000
0000002FFF80008FFF50000000
0000009FFF2009FFFC00000000
000001EFFC01CFFFF300000000
000006FFF604FFFF5000000000
00000CFFE1008ED40000000000
00002FFF900000000000000000
00007FFF300000000000000000
0000DFFC000000000000000000
0003FFF5000000000000000000
0009FFD0000000000000000000
000EFF60000000000000000000
006FFC00000000000000000000
00DFF300000000000000000000
09FF70369BDEEB500000000000
7FFEBFFFFFFFFFF50000000000
8FFFFFFFFEDEFFFB0000000000
1CEC9642000026CB0000000000
ENDCHAR
STARTCHAR lcaron
ENCODING 318
SWIDTH 467 0
DWIDTH 15 0
BBX 17 26 1 0
BITMAP
000000BE800007ED30
000002FFF3000FFF80
000004FFF3000CFF80
000006FFF10009FF50
00000AFFC0000BFE00
00000DFF80002FF500
00002FFF4001CF8000
00006FFE0008F70000
0000AFF90001100000
0000EFF40000000000
0004FFE00000000000
0009FF800000000000
000EFF300000000000
004FFD000000000000
009FF8000000000000
00EFF2000000000000
05FFC0000000000000
0AFF70000000000000
0EFF30000000000000
4FFD00000000000000
9FF900000000000000
CFF600000000000000
EFF605100000000000
DFFFEF100000000000
8FFFF9000000000000
19EE70000000000000
ENDCHAR
STARTCHAR Ldot
ENCODING 319
SWIDTH 668 0
DWIDTH 21 0
BBX 23 24 -1 0
BITMAP
0000000000007CEEA1000000
00000000002DFFDDFD100000
0000000002EFF800BF800000
000000001DFF90008FD00000
000000008FFE1000AFF00000
00000002FFF70001EFE00000
0000000AFFE1000AFFA00000
0000002FFF80008FFF500000
0000009FFF2009FFFC000000
000001EFFC01CFFFF3000000
000006FFF604FFFF50000000
00000CFFE1008ED400025300
00002FFF90000000006FFF80
00007FFF3000000000DFFFC0
0000DFFC0000000000CFFF90
0003FFF500000000004EFD20
0009FFD00000000000023000
000EFF600000000000000000
006FFC000000000000000000
00DFF3000000000000000000
09FF70369BDEEB5000000000
7FFEBFFFFFFFFFF500000000
8FFFFFFFFEDEFFFB00000000
1CEC9642000026CB00000000
ENDCHAR
STARTCHAR ldot
ENCODING 320
SWIDTH 489 0
DWIDTH 16 0
BBX 15 26 1 0
BITMAP
000000BE80000000
000002FFF3000000
000004FFF3000000
000006FFF1000000
00000AFFC0000000
00000DFF80000000
00002FFF40000000
00006FFE00000000
0000AFF900000000
0000EFF400000000
0004FFE000000000
0009FF8000000000
000EFF3000000000
004FFD0001BFD700
009FF80009FFFF40
00EFF2000BFFFF40
05FFC00006FFFC00
0AFF7000006B9100
0EFF300000000000
4FFD000000000000
9FF9000000000000
CFF6000000000000
EFF6051000000000
DFFFEF1000000000
8FFFF90000000000
19EE700000000000
ENDCHAR
STARTCHAR Lslash
ENCODING 321
SWIDTH 517 0
DWIDTH 17 0
BBX 19 24 -1 0
BITMAP
0000000000007CEE9100
00000000002DFFEDFD10
0000000002EFF800BF80
000000001DFFA0008FD0
000000008FFE1000AFF0
00000003FFF80001EFE0
0000000AFFF20009FFB0
0000003FFFA0006FFF60
0000009FFF4006FFFE10
000001EFFC009FFFF500
000006FFF705FFFF8000
00000CFFF101CFF80000
00002FFFA00004200000
00019FFFFFC300000000
029FFFFFFFFE00000000
3EFFFFFEDDEB00000000
2A7BFFE1000000000000
001EFF80000000000000
006FFE10000000000000
01DFF500000000000000
09FF901468ABB9300000
7FFE9DFFFFFFFFF40000
8FFFFFFFFFEFFFFB0000
1CECA742100037CB0000
ENDCHAR
STARTCHAR lslash
ENCODING 322
SWIDTH 279 0
DWIDTH 9 0
BBX 14 27 1 0
BITMAP
00002600000000
0001EFC4100000
0001EFFFFFFFF6
00003AFFFCA730
000005FFE00000
000009FFB00000
00000DFF600000
00003FFF200000
00007FFC000000
0000CFF7000000
0002FFF2000000
0007FFD0000000
000BFF80000000
001FFF20000000
006FFD00000000
00BFF700000000
01FFF200000000
06FFC000000000
0AFF8000000000
1FFF3000000000
5FFD0000000000
9FF90000000000
DFF60000000000
FFF50410000000
DFFFEF10000000
9FFFF900000000
1AED7000000000
ENDCHAR
STARTCHAR Nacute
ENCODING 323
SWIDTH 708 0
DWIDTH 23 0
BBX 25 31 0 0
BITMAP
0000000000000000000009A200
000000000000000000003FFC00
00000000000000000000BFFD00
00000000000000000006FFF500
0000000000000000005FFE4000
000000000000000001ED810000
00000000000000000000000000
00000000007DE7000001AEC400
000000001BFFFA000004FFFF30
00000000AFFFF70000009FFF90
00000007FFFFF40000003FFFB0
0000002FF9FFF30000001FFFB0
000000BFD2FFF20000002FFF80
000004FF53FFF20000003FFF40
00000CFC03FFF30000007FFD00
00005FF503FFF3000000BFF700
0000CFE002FFF5000001FFE100
0003FF8002FFF6000007FF8000
0009FF2001FFF800000DFE1000
001EFC0000EFFB00005FF70000
005FF70000BFFD0000CFD00000
00AFF200009FFF2004FF500000
01FFD000006FFF500BFC000000
05FF9000002FFF903FF4000000
09FF5000000CFFD09FB0000000
0DFF20000008FFF4FF30000000
1FFD00000003FFFEFB00000000
4FFA00000000BFFFF400000000
6FF7000000003FFFE000000000
5FF50000000008FFB000000000
0BE200000000008E8000000000
ENDCHAR
STARTCHAR nacute
ENCODING 324
SWIDTH 561 0
DWIDTH 18 0
BBX 17 25 0 0
BITMAP
00000000000002FD30
00000000000007FFA0
0000000000000DFFA0
0000000000006FFF30
000000000002EFF700
00000000001DFF5000
0000000001DFB30000
000000000174000000
000000000000000000
0002BFD40002AED700
0006FFFD005FFFFF50
0000CFFC04FFFFFFA0
0000BFF93EF60DFF90
0000EFF5DF601EFF60
0004FFDAF7007FFE10
0009FFCF9001EFF800
001EFFFB0006FFF200
006FFFD1000DFF9000
00CFFF30004FFF2000
03FFF700009FFB0000
0AFFD00000DFF60000
2FFF600001FFF40310
9FFE000000FFFEEF30
EFF7000000AFFFFB00
5DC10000001AEE8000
ENDCHAR
STARTCHAR Ncommaaccent
ENCODING 325
SWIDTH 708 0
DWIDTH 23 0
BBX 25 33 0 -9
BITMAP
00000000007DE7000001AEC400
000000001BFFFA000004FFFF30
00000000AFFFF70000009FFF90
00000007FFFFF40000003FFFB0
0000002FF9FFF30000001FFFB0
000000BFD2FFF20000002FFF80
000004FF53FFF20000003FFF40
00000CFC03FFF30000007FFD00
00005FF503FFF3000000BFF700
0000CFE002FFF5000001FFE100
0003FF8002FFF6000007FF8000
0009FF2001FFF800000DFE1000
001EFC0000EFFB00005FF70000
005FF70000BFFD0000CFD00000
00AFF200009FFF2004FF500000
01FFD000006FFF500BFC000000
05FF9000002FFF903FF4000000
09FF5000000CFFD09FB0000000
0DFF20000008FFF4FF30000000
1FFD00000003FFFEFB00000000
4FFA00000000BFFFF400000000
6FF7000000003FFFE000000000
5FF50000000008FFB000000000
0BE200000000008E8000000000
00000000000000000000000000
00000000153000000000000000
00000002EFF500000000000000
00000005FFF900000000000000
00000000BFF700000000000000
00000000AFF200000000000000
00000002EF8000000000000000
0000001CFA0000000000000000
0000006D700000000000000000
ENDCHAR
STARTCHAR ncommaaccent
ENCODING 326
SWIDTH 561 0
DWIDTH 18 0
BBX 17 25 0 -9
BITMAP
0002BFD40002AED700
0006FFFD005FFFFF50
0000CFFC04FFFFFFA0
0000BFF93EF60DFF90
0000EFF5DF601EFF60
0004FFDAF7007FFE10
0009FFCF9001EFF800
001EFFFB0006FFF200
006FFFD1000DFF9000
00CFFF30004FFF2000
03FFF700009FFB0000
0AFFD00000DFF60000
2FFF600001FFF40310
9FFE000000FFFEEF30
EFF7000000AFFFFB00
5DC10000001AEE8000
000000000000000000
000047300000000000
0006FFF20000000000
0008FFF50000000000
0001EFF30000000000
0000EFC00000000000
0006FF400000000000
003EF6000000000000
00AC40000000000000
ENDCHAR
STARTCHAR Ncaron
ENCODING 327
SWIDTH 708 0
DWIDTH 23 0
BBX 26 31 0 0
BITMAP
00000000000000036200000150
000000000000006FFF60003DF3
0000000000000009FFF22AFFE1
0000000000000001DFFDFFFA10
00000000000000007FFFC71000
00000000000000000993000000
00000000000000000000000000
00000000007DE7000001AEC400
000000001BFFFA000004FFFF30
00000000AFFFF70000009FFF90
00000007FFFFF40000003FFFB0
0000002FF9FFF30000001FFFB0
000000BFD2FFF20000002FFF80
000004FF53FFF20000003FFF40
00000CFC03FFF30000007FFD00
00005FF503FFF3000000BFF700
0000CFE002FFF5000001FFE100
0003FF8002FFF6000007FF8000
0009FF2001FFF800000DFE1000
001EFC0000EFFB00005FF70000
005FF70000BFFD0000CFD00000
00AFF200009FFF2004FF500000
01FFD000006FFF500BFC000000
05FF9000002FFF903FF4000000
09FF5000000CFFD09FB0000000
0DFF20000008FFF4FF30000000
1FFD00000003FFFEFB00000000
4FFA00000000BFFFF400000000
6FF7000000003FFFE000000000
5FF50000000008FFB000000000
0BE200000000008E8000000000
ENDCHAR
STARTCHAR ncaron
ENCODING 328
SWIDTH 561 0
DWIDTH 18 0
BBX 20 24 0 0
BITMAP
0000000039A2000005D1
000000004FFD00008FF3
000000000CFF402CFFA0
0000000006FF87FFE600
0000000002FFFFE81000
0000000000DFE7100000
00000000002500000000
00000000000000000000
0002BFD40002AED70000
0006FFFD005FFFFF5000
0000CFFC04FFFFFFA000
0000BFF93EF60DFF9000
0000EFF5DF601EFF6000
0004FFDAF7007FFE1000
0009FFCF9001EFF80000
001EFFFB0006FFF20000
006FFFD1000DFF900000
00CFFF30004FFF200000
03FFF700009FFB000000
0AFFD00000DFF6000000
2FFF600001FFF4031000
9FFE000000FFFEEF3000
EFF7000000AFFFFB0000
5DC10000001AEE800000
ENDCHAR
STARTCHAR Eng
ENCODING 330
SWIDTH 698 0
DWIDTH 22 0
BBX 25 33 0 -9
BITMAP
00000000019EE3000003CEA100
000000002DFFF5000009FFFD00
00000001DFFFF2000001DFFF50
0000000BFFFFE00000007FFF70
0000007FFAFFD00000006FFF70
000002EFA7FFC00000006FFF50
000009FF28FFC00000007FFF20
00002FFA09FFC00000009FFE00
00009FF309FFD0000000CFFA00
0001FFB008FFE0000000FFF600
0007FF5008FFF1000004FFF200
000DFE0006FFF3000007FFC000
004FF90004FFF600000CFF6000
00AFF30002FFF900002FFE1000
00EFE00000EFFC00007FF90000
05FF900000CFFF1000DFF30000
0AFF5000007FFF5003FFC00000
0EFF1000003FFFA009FF500000
2FFC0000000DFFE11EFC000000
6FF900000007FFF77FF5000000
8FF500000001EFFEDFB0000000
AFF3000000006FFFFF30000000
9FF1000000000CFFF900000000
2DC0000000001EFFD100000000
0000000000009FFF4000000000
000000000003FFF80000000000
00000000001DFFB00000000000
0000000000BFFD100000000000
000000000AFFD2000000000000
00000000AFFD20000000000000
0000002CFFC200000000000000
000019FFF91000000000000000
00001DEA400000000000000000
ENDCHAR
STARTCHAR eng
ENCODING 331
SWIDTH 561 0
DWIDTH 18 0
BBX 17 25 0 -9
BITMAP
0002BFD40002AED600
0006FFFD005FFFFF50
0000CFFC04FFFFFFA0
0000BFF93EF60DFFA0
0000EFF5DF600CFF70
0004FFDAF7000EFF40
0009FFCF90003FFF10
001EFFFB00007FFB00
006FFFD10000CFF600
00CFFF300003FFF100
03FFF7000009FFB000
0AFFD000001EFF6000
2FFF6000006FFE0000
9FFE000000DFF80000
DFF7000005FFF20000
5DC100000CFFA00000
000000005FFF200000
00000001DFF9000000
00000008FFE1000000
0000002FFF50000000
000000CFFA00000000
000009FFC100000000
00007FFD2000000000
001AFFD20000000000
002DE8100000000000
ENDCHAR
STARTCHAR Omacron
ENCODING 332
SWIDTH 655 0
DWIDTH 21 0
BBX 22 29 1 0
BITMAP
000000000007EFFFFFFFF9
00000000004FFFFFFFFFF6
00000000004CDDDDDDDD70
0000000000000000000000
0000000000000000000000
000000000017BEFDB40000
0000000008EFFECEFF9000
00000002CFFE6001BFF600
0000003EFFD200002FFD00
000002EFFE2000000EFF30
00001DFFF30000000DFF60
00009FFF700000000DFF70
0003FFFC000000000FFF60
000BFFF3000000003FFF50
003FFFA0000000006FFF30
00AFFF3000000000BFFE00
01FFFC0000000001FFFB00
05FFF60000000006FFF600
09FFF1000000000DFFE100
0CFFC0000000006FFF8000
0EFF8000000000DFFE2000
0FFF5000000006FFF80000
1FFF400000002EFFC00000
0FFF30000000BFFE300000
0CFF40000009FFF5000000
07FF9000009FFF50000000
01DFF4003BFFE400000000
003DFFDDFFFA2000000000
00018CEED9300000000000
ENDCHAR
STARTCHAR omacron
ENCODING 333
SWIDTH 514 0
DWIDTH 16 0
BBX 17 21 1 0
BITMAP
0000006EFFFFFFFFA0
000003FFFFFFFFFF80
000003CDDDDDDDD800
000000000000000000
000000000000000000
0000004ADFD9200000
00002BFFFDFFE30000
0002DFFC207FFB0000
001DFFC1003FFF2000
00AFFF20003FFF4000
05FFF800004FFF5000
0DFFE100007FFF3000
4FFF800000BFFF1000
8FFF300001FFFB0000
BFFD000008FFF50000
CFFA00001EFFD00000
CFF90000AFFF400000
AFF90005FFF8000000
5FFD006FFF90000000
0AFFDDFFE700000000
006CEFC82000000000
ENDCHAR
STARTCHAR Obreve
ENCODING 334
SWIDTH 655 0
DWIDTH 21 0
BBX 22 31 1 0
BITMAP
0000000000002CC000005B
000000000000AFF10003ED
000000000000CFFA127FF6
000000000000AFFFFFFFA0
0000000000002EFFFFF900
000000000000029CB93000
0000000000000000000000
000000000017BEFDB40000
0000000008EFFECEFF9000
00000002CFFE6001BFF600
0000003EFFD200002FFD00
000002EFFE2000000EFF30
00001DFFF30000000DFF60
00009FFF700000000DFF70
0003FFFC000000000FFF60
000BFFF3000000003FFF50
003FFFA0000000006FFF30
00AFFF3000000000BFFE00
01FFFC0000000001FFFB00
05FFF60000000006FFF600
09FFF1000000000DFFE100
0CFFC0000000006FFF8000
0EFF8000000000DFFE2000
0FFF5000000006FFF80000
1FFF400000002EFFC00000
0FFF30000000BFFE300000
0CFF40000009FFF5000000
07FF9000009FFF50000000
01DFF4003BFFE400000000
003DFFDDFFFA2000000000
00018CEED9300000000000
ENDCHAR
STARTCHAR obreve
ENCODING 335
SWIDTH 514 0
DWIDTH 16 0
BBX 17 24 1 0
BITMAP
00000001BD000004D0
00000008FF20002DE0
0000000BFFA005EF80
00000009FFFEEFFC10
00000002EFFFFFC100
000000002AEEB60000
000000000000000000
000000000000000000
0000004ADFD9200000
00002BFFFDFFE30000
0002DFFC207FFB0000
001DFFC1003FFF2000
00AFFF20003FFF4000
05FFF800004FFF5000
0DFFE100007FFF3000
4FFF800000BFFF1000
8FFF300001FFFB0000
BFFD000008FFF50000
CFFA00001EFFD00000
CFF90000AFFF400000
AFF90005FFF8000000
5FFD006FFF90000000
0AFFDDFFE700000000
006CEFC82000000000
ENDCHAR
STARTCHAR Ohungarumlaut
ENCODING 336
SWIDTH 655 0
DWIDTH 21 0
BBX 23 31 1 0
BITMAP
000000000000007D6000CC20
00000000000000CFD003FF70
00000000000002FFA008FF40
0000000000000BFE203EFB00
000000000000AFE302EFB100
000000000006EA200BD70000
000000000000000000000000
000000000017BEFDB4000000
0000000008EFFECEFF900000
00000002CFFE6001BFF60000
0000003EFFD200002FFD0000
000002EFFE2000000EFF3000
00001DFFF30000000DFF6000
00009FFF700000000DFF7000
0003FFFC000000000FFF6000
000BFFF3000000003FFF5000
003FFFA0000000006FFF3000
00AFFF3000000000BFFE0000
01FFFC0000000001FFFB0000
05FFF60000000006FFF60000
09FFF1000000000DFFE10000
0CFFC0000000006FFF800000
0EFF8000000000DFFE200000
0FFF5000000006FFF8000000
1FFF400000002EFFC0000000
0FFF30000000BFFE30000000
0CFF40000009FFF500000000
07FF9000009FFF5000000000
01DFF4003BFFE40000000000
003DFFDDFFFA200000000000
00018CEED930000000000000
ENDCHAR
STARTCHAR ohungarumlaut
ENCODING 337
SWIDTH 514 0
DWIDTH 16 0
BBX 18 25 1 0
BITMAP
0000000006F9000BF4
000000000CFD003FF7
000000005FFB00BFF5
00000000DFF304FFC0
00000008FF601DFE20
0000006FF700BFE300
000005FE500BFB2000
000004610007500000
000000000000000000
0000004ADFD9200000
00002BFFFDFFE30000
0002DFFC207FFB0000
001DFFC1003FFF2000
00AFFF20003FFF4000
05FFF800004FFF5000
0DFFE100007FFF3000
4FFF800000BFFF1000
8FFF300001FFFB0000
BFFD000008FFF50000
CFFA00001EFFD00000
CFF90000AFFF400000
AFF90005FFF8000000
5FFD006FFF90000000
0AFFDDFFE700000000
006CEFC82000000000
ENDCHAR
STARTCHAR OE
ENCODING 338
SWIDTH 900 0
DWIDTH 29 0
BBX 30 24 3 0
BITMAP
000000000049DEED930028BEFEC820
000000003CFFFDDFFF7AFFFFECDFE2
00000007FFFB2005FFFFFFC4000BF9
0000009FFF800000AFFFF800000AFC
000008FFF8000000BFFF8000003FFB
00005FFFA0000005FFFC000003EFF7
0002EFFE1000000BFFF200006EFFE1
000AFFF50000001FFFA00009FFFF50
004FFFB00000003FFF50000CFFF700
00BFFF300000002FFF300002AA4000
02FFFB000000000FFF300000000000
08FFF50000000009FFB12310000000
0CFFE00000000001CFFFFFD1000000
1FFF9000000000006EFFFFE2000000
4FFF40000000000AFFFFA300000000
7FFF1000000000BFFFD30000000000
8FFD0000000007FFFC100000000000
8FFC000000002EFFE1000000000000
7FFB00000001CFFF60000003600000
5FFD0000000BFFFF1000002EE00000
1EFF200001BFFFFF100003EFE00000
07FFB1005DFFEFFF80029FFF500000
008FFECEFFFA27FFFEDFFFD4000000
0004AEFEC8200039DEEDA400000000
ENDCHAR
STARTCHAR oe
ENCODING 339
SWIDTH 777 0
DWIDTH 25 0
BBX 24 16 1 0
BITMAP
00000006BEEC700006BEEC50
000004DFFEDFFA02CFFDEFF4
00006FFF900BFF9EFE304FFC
0005FFF90007FFFFF3002FFF
002EFFC00007FFFF70005FFF
00AFFF300009FFFE1000CFFC
02FFFB00000BFFF70008FFF5
08FFF400001FFFF2009FFF90
0CFFD000006FFFC26DFFF800
1FFF900000CFFFFFFFE92000
2FFF600005FFFFA873000000
2FFF40001DFFFF3000000000
0EFF5000AFFFFF6000006D10
09FF901AFFFFFFD1003AFF10
01DFFDEFFF84FFFECEFFE500
0018DFEC820029DFEDB71000
ENDCHAR
STARTCHAR Racute
ENCODING 340
SWIDTH 623 0
DWIDTH 20 0
BBX 21 33 -1 -1
BITMAP
0000000000000000013000
00000000000000000DFA00
00000000000000004FFF10
0000000000000001CFFC00
000000000000000AFFD200
00000000000000AFF91000
0000000000000066200000
0000000000000000000000
000000026ACEFFEB720000
000003BFFFFFDCDFFF8000
00004FFFFC6100017FFB00
00004FFD5000000009FF60
000004812EF5000005FFC0
00000000BFFB000005FFF0
00000003FFF7000008FFE0
0000000AFFF100000DFFC0
0000001FFFA000007FFF70
0000006FFF500004FFFD00
000000CFFE00006FFFE300
000002FFF9002AFFFD3000
000007FFF76BFFFFA10000
00000DFFFFFFFFC4000000
00003FFF9CFFC200000000
00009FFF11EFF500000000
0001EFFA006FFE20000000
0007FFF3000EFF90000000
000DFFA00007FFF3000000
006FFF200001EFFC000000
01EFF80000008FFF600000
0BFFC00000001DFFF50000
9FFD1000000003FFFFDE10
9E9100000000003DFFE600
0000000000000000341000
ENDCHAR
STARTCHAR racute
ENCODING 341
SWIDTH 407 0
DWIDTH 13 0
BBX 15 25 0 0
BITMAP
000000000001EE40
000000000005FFC0
00000000000CFFC0
00000000005FFF50
0000000001DFF800
000000001CFF7000
00000000BFC40000
0000000074000000
0000000000000000
0006DFA1001BEB00
000CFFF701DFFF50
0002FFF70CFFFF60
0000FFF58FFFFF30
0002FFF3FD43C900
0006FFBAE2000000
000AFF9F40000000
000EFFE900000000
005FFFD100000000
00AFFF4000000000
01FFFB0000000000
07FFF40000000000
0DFFB00000000000
4FFF400000000000
7FFD000000000000
1AE6000000000000
ENDCHAR
STARTCHAR Rcommaaccent
ENCODING 342
SWIDTH 623 0
DWIDTH 20 0
BBX 21 33 -1 -9
BITMAP
000000026ACEFFEB720000
000003BFFFFFDCDFFF8000
00004FFFFC6100017FFB00
00004FFD5000000009FF60
000004812EF5000005FFC0
00000000BFFB000005FFF0
00000003FFF7000008FFE0
0000000AFFF100000DFFC0
0000001FFFA000007FFF70
0000006FFF500004FFFD00
000000CFFE00006FFFE300
000002FFF9002AFFFD3000
000007FFF76BFFFFA10000
00000DFFFFFFFFC4000000
00003FFF9CFFC200000000
00009FFF11EFF500000000
0001EFFA006FFE20000000
0007FFF3000EFF90000000
000DFFA00007FFF3000000
006FFF200001EFFC000000
01EFF80000008FFF600000
0BFFC00000001DFFF50000
9FFD1000000003FFFFDE10
9E9100000000003DFFE600
0000000000000000341000
0000016600000000000000
00000CFF90000000000000
00001EFFD0000000000000
000007FFB0000000000000
000006FF50000000000000
00000DFB00000000000000
00009FC100000000000000
0002E91000000000000000
ENDCHAR
STARTCHAR rcommaaccent
ENCODING 343
SWIDTH 407 0
DWIDTH 13 0
BBX 17 25 -2 -9
BITMAP
000006DFA0001BEB00
00000CFFF602DFFF50
000002FFF70CFFFF60
000000FFF58FFFFF30
000003FFF3FD43D900
000006FFBAE2000000
00000AFF9F40000000
00001EFFE800000000
00005FFFD000000000
0000BFFF3000000000
0001FFFB0000000000
0007FFF30000000000
000DFFB00000000000
004FFF400000000000
007FFD000000000000
001AE6000000000000
000000000000000000
005720000000000000
09FFD0000000000000
0BFFF2000000000000
03FFF0000000000000
03FF90000000000000
09FE20000000000000
5FE300000000000000
DA2000000000000000
ENDCHAR
STARTCHAR Rcaron
ENCODING 344
SWIDTH 623 0
DWIDTH 20 0
BBX 22 32 -1 -1
BITMAP
0000000000036300000060
00000000004FFF80002CF5
000000000008FFF418FFF2
000000000000CFFDEFFB30
0000000000005FFFE83000
00000000000008B5000000
0000000000000000000000
000000026ACEFFEB720000
000003BFFFFFDCDFFF8000
00004FFFFC6100017FFB00
00004FFD5000000009FF60
000004812EF5000005FFC0
00000000BFFB000005FFF0
00000003FFF7000008FFE0
0000000AFFF100000DFFC0
0000001FFFA000007FFF70
0000006FFF500004FFFD00
000000CFFE00006FFFE300
000002FFF9002AFFFD3000
000007FFF76BFFFFA10000
00000DFFFFFFFFC4000000
00003FFF9CFFC200000000
00009FFF11EFF500000000
0001EFFA006FFE20000000
0007FFF3000EFF90000000
000DFFA00007FFF3000000
006FFF200001EFFC000000
01EFF80000008FFF600000
0BFFC00000001DFFF50000
9FFD1000000003FFFFDE10
9E9100000000003DFFE600
0000000000000000341000
ENDCHAR
STARTCHAR rcaron
ENCODING 345
SWIDTH 407 0
DWIDTH 13 0
BBX 18 24 0 0
BITMAP
00000029B3000005D2
0000003FFE10007FF4
0000000AFF502BFFB0
00000005FF87EFE700
00000001FFFFF91000
00000000CFE8100000
000000002500000000
000000000000000000
0006DFA1001BEB0000
000CFFF701DFFF5000
0002FFF70CFFFF6000
0000FFF58FFFFF3000
0002FFF3FD43C90000
0006FFBAE200000000
000AFF9F4000000000
000EFFE90000000000
005FFFD10000000000
00AFFF400000000000
01FFFB000000000000
07FFF4000000000000
0DFFB0000000000000
4FFF40000000000000
7FFD00000000000000
1AE600000000000000
ENDCHAR
STARTCHAR Sacute
ENCODING 346
SWIDTH 474 0
DWIDTH 15 0
BBX 20 32 0 0
BITMAP
00000000000000001300
0000000000000000DF90
0000000000000005FFF1
000000000000001DFFC0
00000000000000BFFC20
0000000000000AFF8100
00000000000006610000
00000000000000000000
0000000029DFEC710000
00000007FFFDDFFD2000
000000AFFC3002DFB000
000008FFB000007FF300
00003FFF2000006FF700
0000AFFA0000009FF800
0001FFF6000001EFF700
0005FFF400000AFFF300
0006FFF40001AFFFC000
0006FFF70009FFFF3000
0004FFFC0005FFE50000
0001FFFF600035100000
00009FFFE10000000000
00002EFFFB0000000000
000006FFFF6000000000
0000009FFFE000000000
0000000CFFF500000000
00780002FFF900000000
09FD00009FF900000000
1FFC00006FF700000000
3FFE00007FF200000000
1EFF8003EF7000000000
06FFFEDFF70000000000
004BEFD9200000000000
ENDCHAR
STARTCHAR sacute
ENCODING 347
SWIDTH 423 0
DWIDTH 14 0
BBX 16 25 0 0
BITMAP
000000000000BF70
000000000002FFF1
000000000008FFF1
00000000002EFF80
0000000000BFFB00
0000000009FFA000
000000008FD60000
0000000055100000
0000000000000000
0000029DFEC81000
00005EFECEFFD100
0003FFC102EFF700
000BFF7000AFF700
000DFF8000BFE200
000CFFD100482000
0008FFF800000000
0002FFFF50000000
00008FFFE1000000
00000CFFF9000000
000002EFFE000000
0AE1007FFF200000
7FF4003FFE000000
8FFC109FF8000000
2EFFFFFF90000000
029DFEA400000000
ENDCHAR
STARTCHAR Scircumflex
ENCODING 348
SWIDTH 474 0
DWIDTH 15 0
BBX 20 32 0 0
BITMAP
00000000000000010000
000000000000004EC100
00000000000006FFF700
000000000001AFFFFD00
00000000017EFE5DFF70
000000000EFFB205FFF2
00000000037300002760
00000000000000000000
0000000029DFEC710000
00000007FFFDDFFD2000
000000AFFC3002DFB000
000008FFB000007FF300
00003FFF2000006FF700
0000AFFA0000009FF800
0001FFF6000001EFF700
0005FFF400000AFFF300
0006FFF40001AFFFC000
0006FFF70009FFFF3000
0004FFFC0005FFE50000
0001FFFF600035100000
00009FFFE10000000000
00002EFFFB0000000000
000006FFFF6000000000
0000009FFFE000000000
0000000CFFF500000000
00780002FFF900000000
09FD00009FF900000000
1FFC00006FF700000000
3FFE00007FF200000000
1EFF8003EF7000000000
06FFFEDFF70000000000
004BEFD9200000000000
ENDCHAR
STARTCHAR scircumflex
ENCODING 349
SWIDTH 423 0
DWIDTH 14 0
BBX 16 25 0 0
BITMAP
000000000001A600
00000000001CFF40
0000000003DFFF70
000000006FFDFFB0
0000002BFFA1EFF1
00001AFFE6009FF7
00001CE910001BF9
0000000000000000
0000000000000000
0000029DFEC81000
00005EFECEFFD100
0003FFC102EFF700
000BFF7000AFF700
000DFF8000BFE200
000CFFD100482000
0008FFF800000000
0002FFFF50000000
00008FFFE1000000
00000CFFF9000000
000002EFFE000000
0AE1007FFF200000
7FF4003FFE000000
8FFC109FF8000000
2EFFFFFF90000000
029DFEA400000000
ENDCHAR
STARTCHAR Scedilla
ENCODING 350
SWIDTH 474 0
DWIDTH 15 0
BBX 18 31 0 -7
BITMAP
0000000039DFEC7100
00000008FFFDCFFD20
000000BFFB2002DFC0
000009FFB000007FF4
00004FFF2000006FF7
0000BFFA0000009FF8
0002FFF5000002FFF6
0005FFF400001CFFF2
0006FFF40003CFFFA0
0006FFF70009FFFD10
0003FFFD0002DFB200
0000EFFF6000000000
00007FFFE200000000
00000CFFFB00000000
000002EFFF70000000
0000004FFFE1000000
00110007FFF5000000
03ED0000CFF9000000
0DFD00007FF9000000
3FFD00006FF7000000
3FFF3000BFE1000000
0DFFE87CFF50000000
03EFFFFFE400000000
0028FFB61000000000
00009F700000000000
00006FD00000000000
0000AFF00000000000
0005FFE00000000000
02BFFF900000000000
02FFFD100000000000
006B92000000000000
ENDCHAR
STARTCHAR scedilla
ENCODING 351
SWIDTH 423 0
DWIDTH 14 0
BBX 14 23 0 -7
BITMAP
0000029DFEC810
00005EFECEFFD1
0003FFC102EFF7
000AFF7000AFF7
000DFF8000BFE2
000DFFD1004820
0009FFF8000000
0003FFFF400000
00009FFFE10000
00001DFFF80000
000003FFFE0000
0AE1008FFF2000
7FF3003FFF0000
8FFA007FF90000
3FFFEDFFB10000
03BFFEC6000000
000BF300000000
0008FA00000000
000AFD00000000
004FFC00000000
18EFF800000000
4FFFE100000000
0AFC3000000000
ENDCHAR
STARTCHAR Scaron
ENCODING 352
SWIDTH 474 0
DWIDTH 15 0
BBX 21 31 0 0
BITMAP
0000000000363000001600
0000000005FFF70002CF40
00000000008FFF318FFF20
00000000000DFFDEFFB300
000000000006FFFE830000
0000000000009B50000000
0000000000000000000000
0000000029DFEC71000000
00000007FFFDDFFD200000
000000AFFC3002DFB00000
000008FFB000007FF30000
00003FFF2000006FF70000
0000AFFA0000009FF80000
0001FFF6000001EFF70000
0005FFF400000AFFF30000
0006FFF40001AFFFC00000
0006FFF70009FFFF300000
0004FFFC0005FFE5000000
0001FFFF60003510000000
00009FFFE1000000000000
00002EFFFB000000000000
000006FFFF600000000000
0000009FFFE00000000000
0000000CFFF50000000000
00780002FFF90000000000
09FD00009FF90000000000
1FFC00006FF70000000000
3FFE00007FF20000000000
1EFF8003EF700000000000
06FFFEDFF7000000000000
004BEFD920000000000000
ENDCHAR
STARTCHAR scaron
ENCODING 353
SWIDTH 423 0
DWIDTH 14 0
BBX 18 24 0 0
BITMAP
00000005A8000000A9
00000009FF80002CFC
00000002FFE005EFF5
00000000CFF4BFFC30
000000007FFFFD6000
000000003FFC500000
000000000430000000
000000000000000000
0000029DFEC8100000
00005EFECEFFD10000
0003FFC102EFF70000
000BFF7000AFF70000
000DFF8000BFE20000
000CFFD10048200000
0008FFF80000000000
0002FFFF5000000000
00008FFFE100000000
00000CFFF900000000
000002EFFE00000000
0AE1007FFF20000000
7FF4003FFE00000000
8FFC109FF800000000
2EFFFFFF9000000000
029DFEA40000000000
ENDCHAR
STARTCHAR Tcommaaccent
ENCODING 354
SWIDTH 471 0
DWIDTH 15 0
BBX 20 33 1 -9
BITMAP
0005CEEDA730000001C1
009FFFFFFFFE96202AF1
06FFFFFFFFFFFFFFFFD0
0BFFF7202AFFFFFFFF50
0DFF70000DFFC8BCB400
0CFE00004FFF50000000
04FA0000AFFF10000000
00210001EFFB00000000
00000005FFF600000000
0000000AFFF100000000
0000001EFFC000000000
0000005FFF7000000000
0000009FFF2000000000
000000EFFC0000000000
000003FFF70000000000
000008FFF10000000000
00000DFFA00000000000
00003FFF400000000000
0000AFFC000000000000
0002FFF4000000000000
000AFFA0000000000000
006FFE10000000000000
07FFE300000000000000
0BEB2000000000000000
00000000000000000000
00165000000000000000
01DFF800000000000000
02FFFC00000000000000
008FFA00000000000000
008FF400000000000000
01DFA000000000000000
0AFC1000000000000000
3E810000000000000000
ENDCHAR
STARTCHAR tcommaaccent
ENCODING 355
SWIDTH 358 0
DWIDTH 11 0
BBX 13 29 0 -9
BITMAP
00000004720000
0000005FFD0000
000001EFF80000
00000AFFD10000
006EFFFFFFFF70
005AEFFECB9500
0001FFF5000000
0006FFE1000000
000BFF90000000
001FFF40000000
005FFE00000000
009FFA00000000
00DFF600000000
01FFF200000000
03FFE000000000
05FFC000030000
05FFD002CC0000
03FFFCCFF60000
00CFFFFF800000
002AEEB4000000
00000000000000
00472000000000
08FFE100000000
0AFFF300000000
01FFF100000000
01FFB000000000
08FE2000000000
4FE40000000000
CB300000000000
ENDCHAR
STARTCHAR Tcaron
ENCODING 356
SWIDTH 471 0
DWIDTH 15 0
BBX 20 31 2 0
BITMAP
00000000036200000150
000000007FFF60003DF2
000000000AFFF229FFE1
0000000001EFFCEFFA20
00000000007FFFD82000
000000000019A4000000
00000000000000000000
006CEEEDB97531016D10
1CFFFFFFFFFFFFFFFE00
8FFFFFFFFFFFFFFFF800
DFFE51019FFDBCDB6000
DFF30000EFF700000000
6FA00005FFF200000000
0320000BFFC000000000
0000001FFF8000000000
0000006FFF3000000000
000000BFFE0000000000
000001FFF90000000000
000005FFF50000000000
00000AFFE10000000000
00000EFFA00000000000
00004FFF500000000000
00008FFE000000000000
0000DFF9000000000000
0004FFF2000000000000
000AFFA0000000000000
002FFF30000000000000
00BFF900000000000000
06FFD100000000000000
7FFE2000000000000000
BEA20000000000000000
ENDCHAR
STARTCHAR tcaron
ENCODING 357
SWIDTH 497 0
DWIDTH 16 0
BBX 18 26 2 0
BITMAP
00000000000002CE90
00000000000008FFF1
00000000000004FFF0
00000000000002FFC0
00000000000004FF60
0000002730000AFC00
000000CFF2005FE200
000006FFF101FC2000
00000EFF9000200000
00006FFF2000000000
03DFFFFFFFFC000000
039DFFFCBA71000000
000CFFA00000000000
002FFF400000000000
007FFE000000000000
00BFF9000000000000
01FFF4000000000000
05FFE0000000000000
08FFA0000000000000
0BFF60000000000000
0EFF30000000000000
0FFF10003000000000
1FFF3019F200000000
0EFFDCEFB000000000
08FFFFFC1000000000
008DEC600000000000
ENDCHAR
STARTCHAR Tbar
ENCODING 358
SWIDTH 471 0
DWIDTH 15 0
BBX 19 24 2 0
BITMAP
006CEEEDB97531016D10
1BFFFFFFFFFFFFFFFE00
8FFFFFFFFFFFFFFFF800
DFFE51019FFDBCDB6000
DFF30000EFF700000000
7FA00005FFF200000000
0420000BFFD000000000
0000001FFF8000000000
0000006FFF4000000000
000000BFFE0000000000
000001FFFA0000000000
5DFFFFFFFFFD00000000
ABCCCFFFEC9200000000
00001FFF800000000000
00005FFF300000000000
0000AFFD000000000000
0000EFF7000000000000
0005FFF2000000000000
000BFFA0000000000000
003FFF20000000000000
00BFF800000000000000
07FFD100000000000000
8FFE2000000000000000
BEA20000000000000000
ENDCHAR
STARTCHAR tbar
ENCODING 359
SWIDTH 358 0
DWIDTH 11 0
BBX 13 21 0 0
BITMAP
00000003710000
0000002FFC0000
000000BFFB0000
000004FFF50000
00000BFFC00000
006EFFFFFFFF70
005AEFFECB9500
0001FFF6000000
0004FFF3000000
0008FFE0000000
000BFFA0000000
19EFFFFFFFFA00
4CDFFECCCC8100
00AFF800000000
00EFF300000000
02FFE000000000
04FFC000010000
05FFD002AC0000
04FFFCCFF70000
00DFFFFF900000
002BEEB4000000
ENDCHAR
STARTCHAR Utilde
ENCODING 360
SWIDTH 624 0
DWIDTH 20 0
BBX 23 31 0 0
BITMAP
0000000000007CD910007800
00000000001CFFFFD205FA00
0000000000BFFFFFFFEFF300
0000000003FC22CFFFFF5000
0000000004D10019EEA20000
000000000000000000000000
000000000000000000000000
0000007DFC300000000AE800
000001EFFFB00000005FFF10
0000002FFFB0000000CFFB00
0000001FFF70000006FFF400
0000005FFF2000000DFFC000
000000BFFC0000006FFF6000
000003FFF6000001EFFE1000
000009FFE1000007FFF90000
00001FFF8000001EFFF40000
00007FFF1000008FFFD00000
0000EFF9000002FFFF800000
0006FFF200000AFFFF300000
000CFFA000003FFFFD000000
004FFF300000CFFFF8000000
00AFFB000006FEFFF3000000
01FFF500001EF8FFE0000000
06FFE00000AF98FFA0000000
0BFF900005FD1CFF60000000
1FFF40003EF30FFF30000000
4FFF2002DF602FFF20000000
5FFF504DF8003FFF40220000
4FFFFDFF80001FFFFDF50000
0DFFFFF700000BFFFFC10000
02BEEA30000001AEE9100000
ENDCHAR
STARTCHAR utilde
ENCODING 361
SWIDTH 553 0
DWIDTH 18 0
BBX 20 24 0 0
BITMAP
0000000003AEE70001C4
000000004FFFFF901AF4
00000002EFEFFFFEFFC0
00000009F703EFFFFC10
0000000990003BFD8100
00000000000000000000
00000000000000000000
00000000000000000000
0001AEE70000006EC300
0005FFFF200002EFF600
00009FFF10000AFFD000
0000AFFC00004FFF7000
0001EFF70000DFFE1000
0006FFF20007FFF70000
000DFFB0001EFFE10000
004FFF4000AFFF900000
00BFFC0006FFFF300000
03FFF6003EDEFC000000
09FFD001DE6FF7000000
0EFF701CF68FF5000000
2FFF42CF80CFF5030000
3FFFEFFA00DFFEEF0000
1EFFFF9000AFFFF90000
04CFC500001BFD700000
ENDCHAR
STARTCHAR Umacron
ENCODING 362
SWIDTH 624 0
DWIDTH 20 0
BBX 23 29 0 0
BITMAP
00000000005EFFFFFFFFC000
0000000002FFFFFFFFFF9000
0000000002CCDDDDDDD90000
000000000000000000000000
000000000000000000000000
0000007DFC300000000AE800
000001EFFFB00000005FFF10
0000002FFFB0000000CFFB00
0000001FFF70000006FFF400
0000005FFF2000000DFFC000
000000BFFC0000006FFF6000
000003FFF6000001EFFE1000
000009FFE1000007FFF90000
00001FFF8000001EFFF40000
00007FFF1000008FFFD00000
0000EFF9000002FFFF800000
0006FFF200000AFFFF300000
000CFFA000003FFFFD000000
004FFF300000CFFFF8000000
00AFFB000006FEFFF3000000
01FFF500001EF8FFE0000000
06FFE00000AF98FFA0000000
0BFF900005FD1CFF60000000
1FFF40003EF30FFF30000000
4FFF2002DF602FFF20000000
5FFF504DF8003FFF40220000
4FFFFDFF80001FFFFDF50000
0DFFFFF700000BFFFFC10000
02BEEA30000001AEE9100000
ENDCHAR
STARTCHAR umacron
ENCODING 363
SWIDTH 553 0
DWIDTH 18 0
BBX 19 21 0 0
BITMAP
00000000AFFFFFFFFF60
00000008FFFFFFFFFF30
00000007CDDDDDDDC400
00000000000000000000
00000000000000000000
0001AEE70000006EC300
0005FFFF200002EFF600
00009FFF10000AFFD000
0000AFFC00004FFF7000
0001EFF70000DFFE1000
0006FFF20007FFF70000
000DFFB0001EFFE10000
004FFF4000AFFF900000
00BFFC0006FFFF300000
03FFF6003EDEFC000000
09FFD001DE6FF7000000
0EFF701CF68FF5000000
2FFF42CF80CFF5030000
3FFFEFFA00DFFEEF0000
1EFFFF9000AFFFF90000
04CFC500001BFD700000
ENDCHAR
STARTCHAR Ubreve
ENCODING 364
SWIDTH 624 0
DWIDTH 20 0
BBX 23 31 0 0
BITMAP
000000000000AE100003D100
000000000007FF40002DF100
00000000000AFFC216EF9000
000000000007FFFFFFFC1000
000000000001DFFFFFB10000
00000000000018BC94000000
000000000000000000000000
0000007DFC300000000AE800
000001EFFFB00000005FFF10
0000002FFFB0000000CFFB00
0000001FFF70000006FFF400
0000005FFF2000000DFFC000
000000BFFC0000006FFF6000
000003FFF6000001EFFE1000
000009FFE1000007FFF90000
00001FFF8000001EFFF40000
00007FFF1000008FFFD00000
0000EFF9000002FFFF800000
0006FFF200000AFFFF300000
000CFFA000003FFFFD000000
004FFF300000CFFFF8000000
00AFFB000006FEFFF3000000
01FFF500001EF8FFE0000000
06FFE00000AF98FFA0000000
0BFF900005FD1CFF60000000
1FFF40003EF30FFF30000000
4FFF2002DF602FFF20000000
5FFF504DF8003FFF40220000
4FFFFDFF80001FFFFDF50000
0DFFFFF700000BFFFFC10000
02BEEA30000001AEE9100000
ENDCHAR
STARTCHAR ubreve
ENCODING 365
SWIDTH 553 0
DWIDTH 18 0
BBX 19 24 0 0
BITMAP
0000000003D900000880
000000000DFC00005FA0
000000001FFF5018FF40
000000000EFFFDFFF800
0000000006FFFFFF9000
00000000005CEDA40000
00000000000000000000
00000000000000000000
0001AEE70000006EC300
0005FFFF200002EFF600
00009FFF10000AFFD000
0000AFFC00004FFF7000
0001EFF70000DFFE1000
0006FFF20007FFF70000
000DFFB0001EFFE10000
004FFF4000AFFF900000
00BFFC0006FFFF300000
03FFF6003EDEFC000000
09FFD001DE6FF7000000
0EFF701CF68FF5000000
2FFF42CF80CFF5030000
3FFFEFFA00DFFEEF0000
1EFFFF9000AFFFF90000
04CFC500001BFD700000
ENDCHAR
STARTCHAR Uring
ENCODING 366
SWIDTH 624 0
DWIDTH 20 0
BBX 23 31 0 0
BITMAP
000000000000018DFE910000
0000000000002DFFDFFB0000
000000000000CFF30BFF2000
000000000004FF9008FF2000
000000000007FF500AFE0000
000000000006FF401EF80000
000000000002EF91AFB00000
0000007DFC303AEFC70AE800
000001EFFFB00000005FFF10
0000002FFFB0000000CFFB00
0000001FFF70000006FFF400
0000005FFF2000000DFFC000
000000BFFC0000006FFF6000
000003FFF6000001EFFE1000
000009FFE1000007FFF90000
00001FFF8000001EFFF40000
00007FFF1000008FFFD00000
0000EFF9000002FFFF800000
0006FFF200000AFFFF300000
000CFFA000003FFFFD000000
004FFF300000CFFFF8000000
00AFFB000006FEFFF3000000
01FFF500001EF8FFE0000000
06FFE00000AF98FFA0000000
0BFF900005FD1CFF60000000
1FFF40003EF30FFF30000000
4FFF2002DF602FFF20000000
5FFF504DF8003FFF40220000
4FFFFDFF80001FFFFDF50000
0DFFFFF700000BFFFFC10000
02BEEA30000001AEE9100000
ENDCHAR
STARTCHAR uring
ENCODING 367
SWIDTH 553 0
DWIDTH 18 0
BBX 18 25 0 0
BITMAP
000000000005BEFC60
0000000000AFFDEFF5
0000000008FF702FFA
000000000DFD002FF9
000000000EFC01AFF3
000000000AFFDEFF70
00000000018DFEB400
000000000000000000
000000000000000000
0001AEE70000006EC3
0005FFFF200002EFF6
00009FFF10000AFFD0
0000AFFC00004FFF70
0001EFF70000DFFE10
0006FFF20007FFF700
000DFFB0001EFFE100
004FFF4000AFFF9000
00BFFC0006FFFF3000
03FFF6003EDEFC0000
09FFD001DE6FF70000
0EFF701CF68FF50000
2FFF42CF80CFF50300
3FFFEFFA00DFFEEF00
1EFFFF9000AFFFF900
04CFC500001BFD7000
ENDCHAR
STARTCHAR Uhungarumlaut
ENCODING 368
SWIDTH 624 0
DWIDTH 20 0
BBX 23 31 0 0
BITMAP
00000000000004E8000AD400
00000000000009FF001FFA00
0000000000001EFD005FF700
0000000000009FF401DFD100
000000000008FF601CFD2000
00000000003FB3008E910000
000000000000000000000000
0000007DFC300000000AE800
000001EFFFB00000005FFF10
0000002FFFB0000000CFFB00
0000001FFF70000006FFF400
0000005FFF2000000DFFC000
000000BFFC0000006FFF6000
000003FFF6000001EFFE1000
000009FFE1000007FFF90000
00001FFF8000001EFFF40000
00007FFF1000008FFFD00000
0000EFF9000002FFFF800000
0006FFF200000AFFFF300000
000CFFA000003FFFFD000000
004FFF300000CFFFF8000000
00AFFB000006FEFFF3000000
01FFF500001EF8FFE0000000
06FFE00000AF98FFA0000000
0BFF900005FD1CFF60000000
1FFF40003EF30FFF30000000
4FFF2002DF602FFF20000000
5FFF504DF8003FFF40220000
4FFFFDFF80001FFFFDF50000
0DFFFFF700000BFFFFC10000
02BEEA30000001AEE9100000
ENDCHAR
STARTCHAR uhungarumlaut
ENCODING 369
SWIDTH 553 0
DWIDTH 18 0
BBX 20 25 0 0
BITMAP
00000000000AF4002ED1
00000000002FF8007FF3
00000000009FF601EFE1
0000000003FFC009FF70
000000001CFE304FFB00
00000000BFE302EFB100
0000000AFC202EF80000
00000006500027300000
00000000000000000000
0001AEE70000006EC300
0005FFFF200002EFF600
00009FFF10000AFFD000
0000AFFC00004FFF7000
0001EFF70000DFFE1000
0006FFF20007FFF70000
000DFFB0001EFFE10000
004FFF4000AFFF900000
00BFFC0006FFFF300000
03FFF6003EDEFC000000
09FFD001DE6FF7000000
0EFF701CF68FF5000000
2FFF42CF80CFF5030000
3FFFEFFA00DFFEEF0000
1EFFFF9000AFFFF90000
04CFC500001BFD700000
ENDCHAR
STARTCHAR Uogonek
ENCODING 370
SWIDTH 684 0
DWIDTH 22 0
BBX 23 32 1 -8
BITMAP
0000008DFC300000000BE800
000001EFFFA00000005FFF10
0000003FFFA0000000DFFB00
0000001FFF70000006FFF300
0000006FFF2000001DFFC000
000000CFFC0000007FFF6000
000003FFF5000001EFFE1000
00000AFFE0000008FFF90000
00002FFF7000001EFFF30000
00008FFE1000009FFFD00000
0001EFF8000002FFFF800000
0006FFF200000AFFFF200000
000DFF9000003FFFFC000000
004FFF300000CFFFF7000000
00AFFB000007FEFFF3000000
01FFF400002EF8FFD0000000
07FFD00000BF98FF90000000
0CFF800006FD1CFF60000000
1FFF40003EF31FFF30000000
4FFF2002DF603FFF10000000
6FFF404EF8003FFF40220000
4FFFFDFF80002FFFFEF40000
0DFFFFF600000CFFFFB00000
02BEEA20000002BFF8000000
00000000000002DF40000000
0000000000002EF500000000
000000000000CFB000000000
000000000006FF5000000000
00000000000DFF7360000000
00000000000FFFFFA0000000
00000000000DFFFE20000000
000000000003BC8100000000
ENDCHAR
STARTCHAR uogonek
ENCODING 371
SWIDTH 553 0
DWIDTH 18 0
BBX 18 24 0 -8
BITMAP
0001AEE70000006EC3
0005FFFF200002EFF6
00009FFF10000AFFD0
0000AFFC00004FFF70
0001EFF70000DFFE10
0006FFF20007FFF700
000DFFB0001EFFE100
004FFF4000AFFF9000
00BFFC0006FFFF3000
03FFF6003EDEFC0000
09FFD001DE6FF70000
0EFF701CF68FF50000
2FFF42CF80CFF50300
3FFFEFFA00DFFEEE00
1EFFFF9000BFFFF800
04CFC500002CFF8000
00000000001CF60000
0000000001DF700000
000000000BFC000000
000000004FF7000000
00000000BFF8260000
00000000DFFFFC0000
00000000BFFFE30000
000000002BC9200000
ENDCHAR
STARTCHAR Wcircumflex
ENCODING 372
SWIDTH 941 0
DWIDTH 30 0
BBX 30 32 2 0
BITMAP
000000000000000000001000000000
0000000000000000001BE500000000
000000000000000002CFFE00000000
00000000000000005EFFFF50000000
000000000000004CFFB8FFD1000000
00000000000007FFE601CFF9000000
000000000000016510000573000000
000000000000000000000000000000
0049DFE8100000000000000003BEA0
1CFFFFFFC0000000000000001EFFF5
5FFFFFFFF6000000000000000DFFFA
0AFB526FFA0000000000000007FFFC
001001EFF80000000000000002FFFD
000009FFF30000003BFB100000FFFD
00003FFFB0000007FFFE100000EFFC
0000AFFF4000009FFFF3000000FFFA
0003FFFB00000AFFFF60000001FFF8
000AFFF40000AFFFFB00000004FFF4
002FFFB00008FFFFF300000007FFE1
009FFF40007FFFFFB00000000BFFA0
01EFFC0004FFEFFF600000002FFF30
05FFF5001EFE7FFF100000007FFB00
0BFFD000BFF49FFC00000001EFF400
1FFF7007FF60DFF800000008FFB000
4FFF202FF901FFF50000001EFE2000
8FFC00CFC003FFF2000000AFF60000
AFF807FE2004FFF1000006FF900000
BFF72EF40003FFF000004FFB000000
BFF6AF800001FFF10004EFB1000000
7FFBFB000000CFF6017FF900000000
1EFFE20000004FFFDEFD5000000000
04DE5000000005CFEB600000000000
ENDCHAR
STARTCHAR wcircumflex
ENCODING 373
SWIDTH 750 0
DWIDTH 24 0
BBX 23 25 1 0
BITMAP
000000000000000881000000
00000000000000AFF8000000
0000000000001BFFFB000000
000000000004DFEEFE000000
00000000019FFC2BFF400000
000000008EFF9005FFB00000
000000009EB300009ED10000
000000000000000000000000
000000000000000000000000
005DFD5000000000006DE800
00CFFFE000007A9100AFFF40
001CFFE00005FFF2003FFF70
0008FFB0000DFFC0000EFF80
000CFF60006FFF40000CFF70
002FFF1001EFFC00000BFF50
007FFA0008FFF500000DFF10
00DFF4004FFFE000001FFB00
04FFD001DFFF9000006FF400
09FF700AFEFF400000DFB000
1EFF207F9CFF200006FE2000
6FFB05FC1DFF10003EF60000
AFF77FD20DFF4003DF900000
DFFEFD200AFFD79FF9000000
CFFFC10004FFFFFF60000000
4ED70000006DFD9200000000
ENDCHAR
STARTCHAR Ycircumflex
ENCODING 374
SWIDTH 580 0
DWIDTH 19 0
BBX 22 40 0 -9
BITMAP
0000000000000001830000
000000000000002CFF2000
00000000000004EFFF7000
0000000000019FFCFFE100
00000000019EFF70CFFA00
0000000001CE92002BFD10
0000000000000000000000
0000008DFC200000000BE7
000002EFFFA00000006FFF
0000004FFF90000001DFFA
0000002FFF60000007FFF3
0000007FFF1000001EFFB0
000000DFFB0000008FFF50
000004FFF4000001EFFE00
00000BFFD0000009FFF900
00002FFF6000002FFFF300
00009FFE1000009FFFD000
0001EFF7000003FFFF7000
0007FFE100000BFFFF2000
000DFF8000004FFFFC0000
005FFF200000DFFFF60000
00BFFA000008FFFFF10000
02FFF300002FFBFFB00000
07FFD00000BF9DFF500000
0DFF700007FC4FFE100000
2FFF30004FE39FF9000000
5FFF1003EF52FFF3000000
7FFF305EF708FFC0000000
5FFFFEFF801EFF40000000
1DFFFFF6008FFC00000000
02BEE92001EFF400000000
0000000009FFA000000000
000000004FFE2000000000
00000001DFF70000000000
0000000BFFA00000000000
0000009FFD100000000000
000009FFE2000000000000
0002BFFD20000000000000
019FFFB100000000000000
04EEB50000000000000000
ENDCHAR
STARTCHAR ycircumflex
ENCODING 375
SWIDTH 549 0
DWIDTH 18 0
BBX 18 34 0 -9
BITMAP
00000000000005A200
0000000000007FFB00
000000000009FFFE00
0000000002CFFDFF30
000000007EFE47FF80
0000005DFFB102FFD1
0000006EC500006EE3
000000000000000000
000000000000000000
00019EE90000004ED4
0003EFFF400001DFF8
00007FFF300007FFF2
00008FFE00002EFFC0
0000DFFA00009FFF70
0004FFF40003FFFF20
000AFFD0000BFFFB00
002FFF60005FFFF600
009FFE1002EFFFF100
01EFF8000CFDFFA000
06FFE1009F8DFF5000
0CFF9008FB3FFE0000
0FFF61AFD18FF80000
1FFFEEFE20DFF20000
0CFFFFD204FFB00000
02CFD7100AFF400000
000000002FFC000000
00000000AFF4000000
00000005FFA0000000
0000002EFE20000000
000001DFF500000000
00002DFF8000000000
0017EFF90000000000
00EFFE700000000000
003861000000000000
ENDCHAR
STARTCHAR Ydieresis
ENCODING 376
SWIDTH 580 0
DWIDTH 19 0
BBX 22 39 0 -9
BITMAP
00000000008EE80006EFA1
0000000006FFFF303FFFF6
0000000007FFFF204FFFF5
0000000002FFFA001DFFC0
0000000000396000028710
0000000000000000000000
0000008DFC200000000BE7
000002EFFFA00000006FFF
0000004FFF90000001DFFA
0000002FFF60000007FFF3
0000007FFF1000001EFFB0
000000DFFB0000008FFF50
000004FFF4000001EFFE00
00000BFFD0000009FFF900
00002FFF6000002FFFF300
00009FFE1000009FFFD000
0001EFF7000003FFFF7000
0007FFE100000BFFFF2000
000DFF8000004FFFFC0000
005FFF200000DFFFF60000
00BFFA000008FFFFF10000
02FFF300002FFBFFB00000
07FFD00000BF9DFF500000
0DFF700007FC4FFE100000
2FFF30004FE39FF9000000
5FFF1003EF52FFF3000000
7FFF305EF708FFC0000000
5FFFFEFF801EFF40000000
1DFFFFF6008FFC00000000
02BEE92001EFF400000000
0000000009FFA000000000
000000004FFE2000000000
00000001DFF70000000000
0000000BFFA00000000000
0000009FFD100000000000
000009FFE2000000000000
0002BFFD20000000000000
019FFFB100000000000000
04EEB50000000000000000
ENDCHAR
STARTCHAR Zacute
ENCODING 377
SWIDTH 501 0
DWIDTH 16 0
BBX 21 32 -1 0
BITMAP
0000000000000000220000
0000000000000002FF6000
0000000000000008FFC000
000000000000002FFF8000
00000000000001DFFA1000
0000000000001DFE700000
0000000000001751000000
0000000000000000000000
00000DB52001257ADE9000
00000DFFFFFFFFFFFFF900
000009FFFFFFFFB6BFFF10
0000019DFFD95109FFFC00
000000000000008FFFF300
00000000000007FFFF6000
0000000000006FFFF80000
000000000005FFFFA00000
00000000004FFFFA000000
0000000003EFFFA0000000
000000002EFFFB00000000
00000001DFFFB000000000
0000001CFFFB1000000000
000000BFFFB10000000000
000009FFFC100000000000
00006FFFC1000000000000
0004FFFD10000000000000
001EFFE200000000000000
00BFFE3000000000000000
06FFF50000000000000000
1EFF90148ADEFD70000000
5FFE6BFFFFFFFFF6000000
4FFFFFFFFFFFFFFD000000
0AFDB863210025BD000000
ENDCHAR
STARTCHAR zacute
ENCODING 378
SWIDTH 430 0
DWIDTH 14 0
BBX 16 26 0 0
BITMAP
0000000000000100
0000000000005FB1
000000000000BFF6
000000000002FFF6
00000000000AFFE1
00000000005FFE30
0000000003EFD300
000000003EF91000
0000000027200000
0000000000000000
0002EA620015CD20
0003FFFFFFFFFF90
00009FFFFD9FFF80
0000013202CFFE10
000000003EFFE300
00000005EFFE3000
0000007FFFD20000
000009FFFB100000
0000AFFF90000000
000AFFF600000000
009FFF5000000000
06FFF40000000000
2FFF614676100000
AFFFCFFFFFE20000
CFFFFFDEFFF90000
2CD8300027D90000
ENDCHAR
STARTCHAR Zdotaccent
ENCODING 379
SWIDTH 501 0
DWIDTH 16 0
BBX 21 31 -1 0
BITMAP
0000000000005740000000
00000000000BFFF5000000
00000000002FFFF8000000
00000000001EFFF4000000
000000000006FF80000000
0000000000001100000000
0000000000000000000000
00000DB52001257ADE9000
00000DFFFFFFFFFFFFF900
000009FFFFFFFFB6BFFF10
0000019DFFD95109FFFC00
000000000000008FFFF300
00000000000007FFFF6000
0000000000006FFFF80000
000000000005FFFFA00000
00000000004FFFFA000000
0000000003EFFFA0000000
000000002EFFFB00000000
00000001DFFFB000000000
0000001CFFFB1000000000
000000BFFFB10000000000
000009FFFC100000000000
00006FFFC1000000000000
0004FFFD10000000000000
001EFFE200000000000000
00BFFE3000000000000000
06FFF50000000000000000
1EFF90148ADEFD70000000
5FFE6BFFFFFFFFF6000000
4FFFFFFFFFFFFFFD000000
0AFDB863210025BD000000
ENDCHAR
STARTCHAR zdotaccent
ENCODING 380
SWIDTH 430 0
DWIDTH 14 0
BBX 15 24 0 0
BITMAP
000000004DFB1000
00000001FFFF8000
00000002FFFF7000
00000000CFFE1000
0000000018820000
0000000000000000
0000000000000000
0000000000000000
0002EA620015CD20
0003FFFFFFFFFF90
00009FFFFD9FFF80
0000013202CFFE10
000000003EFFE300
00000005EFFE3000
0000007FFFD20000
000009FFFB100000
0000AFFF90000000
000AFFF600000000
009FFF5000000000
06FFF40000000000
2FFF614676100000
AFFFCFFFFFE20000
CFFFFFDEFFF90000
2CD8300027D90000
ENDCHAR
STARTCHAR Zcaron
ENCODING 381
SWIDTH 501 0
DWIDTH 16 0
BBX 21 31 -1 0
BITMAP
0000000000462000002500
0000000008FFF50004EF10
0000000000BFFE12AFFD00
00000000002EFFCFFF9100
000000000009FFFC710000
000000000001A930000000
0000000000000000000000
00000DB52001257ADE9000
00000DFFFFFFFFFFFFF900
000009FFFFFFFFB6BFFF10
0000019DFFD95109FFFC00
000000000000008FFFF300
00000000000007FFFF6000
0000000000006FFFF80000
000000000005FFFFA00000
00000000004FFFFA000000
0000000003EFFFA0000000
000000002EFFFB00000000
00000001DFFFB000000000
0000001CFFFB1000000000
000000BFFFB10000000000
000009FFFC100000000000
00006FFFC1000000000000
0004FFFD10000000000000
001EFFE200000000000000
00BFFE3000000000000000
06FFF50000000000000000
1EFF90148ADEFD70000000
5FFE6BFFFFFFFFF6000000
4FFFFFFFFFFFFFFD000000
0AFDB863210025BD000000
ENDCHAR
STARTCHAR zcaron
ENCODING 382
SWIDTH 430 0
DWIDTH 14 0
BBX 17 24 0 0
BITMAP
0000004A91000008C0
0000007FFA0001AFF0
0000000EFF204DFF70
00000009FF59FFD400
00000005FFFFE71000
00000001FFD6100000
000000003400000000
000000000000000000
0002EA620015CD2000
0003FFFFFFFFFF9000
00009FFFFD9FFF8000
0000013202CFFE1000
000000003EFFE30000
00000005EFFE300000
0000007FFFD2000000
000009FFFB10000000
0000AFFF9000000000
000AFFF60000000000
009FFF500000000000
06FFF4000000000000
2FFF61467610000000
AFFFCFFFFFE2000000
CFFFFFDEFFF9000000
2CD8300027D9000000
ENDCHAR
STARTCHAR florin
ENCODING 402
SWIDTH 466 0
DWIDTH 15 0
BBX 25 34 -6 -9
BITMAP
00000000000000000028BB6000
000000000000000005EFFFFA00
00000000000000004FFD419F40
0000000000000002EFE2007F90
000000000000000AFF5000DFA0
000000000000004FFB000AFF90
00000000000000CFF400AFFF40
00000000000004FFD004FFFA00
0000000000000BFF70009EA100
0000000000002FFF2000000000
0000000000007FFC0000000000
000000000000DFFEEEB3000000
00000000017DFFFFFFFE000000
000000003EFFFFFFFFFD000000
000000006FFFFF921000000000
00000000033FFF400000000000
00000000006FFF100000000000
0000000000AFFC000000000000
0000000000DFF8000000000000
0000000002FFF4000000000000
0000000006FFE0000000000000
000000000AFFB0000000000000
000000000DFF70000000000000
000000002FFF30000000000000
000000006FFD00000000000000
00000000BFF900000000000000
00000001FFF300000000000000
00000006FFD000000000000000
0120000CFF7000000000000000
4EF0004FFE1000000000000000
DFF100CFF70000000000000000
FFF709FFC00000000000000000
7FFFFFFC200000000000000000
03ADFD81000000000000000000
ENDCHAR
STARTCHAR AEacute
ENCODING 508
SWIDTH 878 0
DWIDTH 28 0
BBX 34 32 -3 0
BITMAP
0000000000000000000000000022000000
00000000000000000000000002FF600000
00000000000000000000000008FFD00000
0000000000000000000000002EFF900000
000000000000000000000001DFFA100000
00000000000000000000001DFE70000000
0000000000000000000000175100000000
0000000000000000000000000000000000
0000000000000000003ADFD849CEFEB700
000000000000000019FFFFFFFFFFECEFC0
0000000000000001CFFFDEFFFFA3001EF5
000000000000001CFFC32DFFF500000EF8
00000000000000BFFB10CFFF5000007FF7
00000000000008FFB107FFF9000006FFF3
0000000000005FFD100EFFD000019FFFB0
000000000001EFF3004FFF70001CFFFE20
00000000000AFF70007FFF20002FFFE300
00000000005FFB00007FFE000004B92000
0000000001EFE200005FFD000000000000
000000000AFF7000000DFF300000000000
000000005FFE8ADEFFFFFFEBEE70000000
00000017EFFFFFFFFFFFFFFFFFE0000000
000003EFFFFFFFFFFFFFFFFFB520000000
000003AFFE10000000BFFFC30000000000
000000CFF600000009FFFA100000000000
000007FFC00000003FFFB0000000000000
00002FFF30000000AFFF20000005300000
0000BFF800000000CFFC0000005FA00000
0007FFD100000000CFFC000006FF900000
006FFF30000000006FFF4003AFFE200000
2BFFF600000000000AFFFDDFFFB2000000
1CFC400000000000005ADFEC9300000000
ENDCHAR
STARTCHAR aeacute
ENCODING 509
SWIDTH 770 0
DWIDTH 25 0
BBX 24 25 1 0
BITMAP
000000000000000CE6000000
000000000000003FFE000000
00000000000000AFFE000000
00000000000003FFF7000000
0000000000000CFFA0000000
000000000000AFF900000000
000000000009FD5000000000
000000000006500000000000
000000000000000000000000
00000029DFC509EB6BEFD700
000008FFFCEFCFFFFECFFF80
0000AFFB202EFFFFA109FFE0
000BFFB0000BFFFB0007FFF2
007FFD10001EFFE2000BFFF1
03FFF500005FFF80005FFFC0
0BFFC00000AFFF1005FFFF40
3FFF500001FFFA019FFFE500
8FFF100008FFFBBFFFFA2000
BFFC00001EFFFFEDA6200000
DFFA00009FFFF60000000000
DFF90003FCFFF60000004000
CFFA001DE2EFF9000008F400
8FFD01CF408FFE2003BFF200
1DFFDEE5001CFFFCEFFE5000
02BEEA2000017CEFEB710000
ENDCHAR
STARTCHAR Scommaaccent
ENCODING 536
SWIDTH 474 0
DWIDTH 15 0
BBX 18 33 0 -9
BITMAP
0000000029DFEC7100
00000007FFFDDFFD20
000000AFFC3002DFB0
000008FFB000007FF3
00003FFF2000006FF7
0000AFFA0000009FF8
0001FFF6000001EFF7
0005FFF400000AFFF3
0006FFF40001AFFFC0
0006FFF70009FFFF30
0004FFFC0005FFE500
0001FFFF6000351000
00009FFFE100000000
00002EFFFB00000000
000006FFFF60000000
0000009FFFE0000000
0000000CFFF5000000
00780002FFF9000000
09FD00009FF9000000
1FFC00006FF7000000
3FFE00007FF2000000
1EFF8003EF70000000
06FFFEDFF700000000
004BEFD92000000000
000000000000000000
000167100000000000
000CFFB00000000000
001EFFE00000000000
0005FFC00000000000
0005FF700000000000
000CFC000000000000
008FD2000000000000
01E910000000000000
ENDCHAR
STARTCHAR scommaaccent
ENCODING 537
SWIDTH 423 0
DWIDTH 14 0
BBX 14 25 0 -9
BITMAP
0000029DFEC810
00005EFECEFFD1
0003FFC102EFF7
000BFF7000AFF7
000DFF8000BFE2
000CFFD1004820
0008FFF8000000
0002FFFF500000
00008FFFE10000
00000CFFF90000
000002EFFE0000
0AE1007FFF2000
7FF4003FFE0000
8FFC109FF80000
2EFFFFFF900000
029DFEA4000000
00000000000000
00166000000000
01DFF900000000
01EFFD00000000
007FFB00000000
007FF500000000
00DFB000000000
09FC1000000000
2E810000000000
ENDCHAR
STARTCHAR dotlessj
ENCODING 567
SWIDTH 277 0
DWIDTH 9 0
BBX 14 25 -6 -9
BITMAP
0000000005DFD5
000000000CFFFB
0000000003FFFA
0000000001FFF8
0000000002FFF6
0000000004FFF3
0000000007FFE0
000000000BFFB0
000000000EFF70
000000004FFF20
000000009FFD00
00000000DFF800
00000003FFF300
00000008FFC000
0000001EFF7000
0000006FFE1000
000000CFF80000
000004FFE10000
00000BFF800000
00005FFD100000
0001DFF3000000
000AFF70000000
009FF800000000
3CFF7000000000
5EB30000000000
ENDCHAR
STARTCHAR circumflex
ENCODING 710
SWIDTH 354 0
DWIDTH 11 0
BBX 12 7 0 18
BITMAP
00000005A200
0000006FFC00
000008FFFF00
0002BFFDFF40
006EFE47FF80
5DFFB202FFE1
6EC500006EE3
ENDCHAR
STARTCHAR caron
ENCODING 711
SWIDTH 381 0
DWIDTH 12 0
BBX 12 7 1 17
BITMAP
3AA2000007D1
5FFC0001AFF1
0DFF304DFF80
07FF8AFFD400
03FFFFD60000
00DFC5000000
002300000000
ENDCHAR
STARTCHAR breve
ENCODING 728
SWIDTH 344 0
DWIDTH 11 0
BBX 11 6 1 18
BITMAP
0AE100002D10
6FF50001DF10
9FFC216EFA00
6FFFFFFFD100
1CFFFFFC2000
017BCA500000
ENDCHAR
STARTCHAR dotaccent
ENCODING 729
SWIDTH 217 0
DWIDTH 7 0
BBX 5 5 2 19
BITMAP
1BFD50
AFFFD0
CFFFC0
6FFF50
069400
ENDCHAR
STARTCHAR ring
ENCODING 730
SWIDTH 402 0
DWIDTH 13 0
BBX 9 8 4 17
BITMAP
003AEFD700
05FFEDFF60
2FFB11EFC0
9FF200DFD0
BFE002FFA0
BFF10AFF30
5FFEDFF700
05CFEB4000
ENDCHAR
STARTCHAR ogonek
ENCODING 731
SWIDTH 311 0
DWIDTH 10 0
BBX 9 10 1 -8
BITMAP
0000003720
00002BE500
0005ED3000
005FD20000
04FF400000
0DFC000000
6FFB041000
9FFFEF2000
7FFFF90000
1BFD700000
ENDCHAR
STARTCHAR tilde
ENCODING 732
SWIDTH 397 0
DWIDTH 13 0
BBX 12 5 2 19
BITMAP
005CFC40003D
09FFFFF503DE
7FFEFFFFEFF7
EE307FFFFF90
D40006DFC500
ENDCHAR
STARTCHAR hungarumlaut
ENCODING 733
SWIDTH 392 0
DWIDTH 13 0
BBX 13 8 0 17
BITMAP
00000760002830
00003FF3009FC0
0000AFF301EFC0
0003FFD009FF70
000CFF303FFC00
009FF501DFD200
07FE501CFC2000
3FA2008E700000
ENDCHAR
STARTCHAR pi
ENCODING 960
SWIDTH 640 0
DWIDTH 20 0
BBX 22 16 -1 0
BITMAP
000006BEFFFFFFFFFFFFFA
0001CFFFFFFFFFFFFFFFF8
000BFFDDFFFFFFFFFFFFB1
00044101EF73459FFE5300
00000006FE1000BFF90000
0000000CF90002FFF30000
0000004FF40008FFC00000
000000CFD0000DFF600000
000005FF70003FFF200000
00001DFF10007FFD000000
00009FF90000AFF9000000
0005FFF30000DFF6000000
005FFFA00000EFF5020000
19FFFE100000DFFECF2000
6FFFF40000009FFFFA0000
0AEC300000001AEE800000
ENDCHAR
ENDFONT
